<svg width="290" height="205" viewBox="0 0 290 205" fill="none" xmlns="http://www.w3.org/2000/svg">
<path d="M246.714 187.537C266.642 187.537 282.796 171.383 282.796 151.456C282.796 131.529 266.642 115.374 246.714 115.374C226.787 115.374 210.633 131.529 210.633 151.456C210.633 171.383 226.787 187.537 246.714 187.537Z" fill="#E6EDFF"/>
<path d="M10.7497 43.2317H229.968C233.361 43.2317 236.114 45.986 236.114 49.3778V148.663C236.114 152.056 233.36 154.809 229.968 154.809H10.7497C7.35703 154.809 4.60352 152.055 4.60352 148.663V49.3778C4.60352 45.9852 7.35782 43.2317 10.7497 43.2317Z" fill="#B6CDFF"/>
<path d="M103.823 3.61938L102.127 26.6376L79.0938 28.3484V166.077H206.132V3.61938H103.823Z" fill="#6FA0FF"/>
<path d="M103.823 28.3484V3.61938L79.0938 28.3484H103.823Z" fill="#E6EDFF"/>
<path d="M81.2896 14.5227L79.5937 37.5409L56.5605 39.2518V176.98H183.598V14.5227H81.2896Z" fill="white"/>
<path d="M81.2896 39.2518V14.5227L56.5605 39.2518H81.2896Z" fill="#6FA0FF"/>
<path d="M169.606 51.321H70.5527V53.8045H169.606V51.321Z" fill="#E6EDFF"/>
<path d="M169.606 74.1879H70.5527V76.6713H169.606V74.1879Z" fill="#E6EDFF"/>
<g style="mix-blend-mode:multiply" opacity="0.3">
<path d="M190.233 18.0662H183.6V166.077H190.233V18.0662Z" fill="#2A65BA"/>
</g>
<path d="M169.606 97.0537H70.5527V99.5371H169.606V97.0537Z" fill="#E6EDFF"/>
<path d="M169.606 119.92H70.5527V122.404H169.606V119.92Z" fill="#E6EDFF"/>
<path d="M183.6 158.123C183.335 158.123 183.12 157.909 183.12 157.644V15.0025H114.001C113.737 15.0025 113.521 14.7882 113.521 14.5228C113.521 14.2574 113.736 14.0431 114.001 14.0431H183.6C183.865 14.0431 184.08 14.2574 184.08 14.5228V157.644C184.08 157.908 183.865 158.123 183.6 158.123Z" fill="#1A3863"/>
<path d="M146.165 177.46H56.5618C56.2972 177.46 56.082 177.246 56.082 176.98V58.1355C56.082 57.8709 56.2964 57.6558 56.5618 57.6558C56.8271 57.6558 57.0415 57.8701 57.0415 58.1355V176.501H146.165C146.43 176.501 146.645 176.715 146.645 176.98C146.645 177.246 146.431 177.46 146.165 177.46H146.165Z" fill="#1A3863"/>
<path d="M183.599 177.46H159.157C158.893 177.46 158.678 177.246 158.678 176.98C158.678 176.715 158.892 176.501 159.157 176.501H183.119V170.438C183.119 170.174 183.334 169.959 183.599 169.959C183.865 169.959 184.079 170.173 184.079 170.438V176.98C184.079 177.245 183.865 177.46 183.599 177.46Z" fill="#1A3863"/>
<path d="M151.32 150.914H100.662C99.7592 150.914 99.0273 151.646 99.0273 152.549V158.829C99.0273 159.732 99.7592 160.464 100.662 160.464H151.32C152.223 160.464 152.955 159.732 152.955 158.829V152.549C152.955 151.646 152.223 150.914 151.32 150.914Z" fill="#E6EDFF"/>
<path d="M92.044 158.958C91.7747 158.958 91.5069 158.955 91.2376 158.949C90.973 158.942 90.7634 158.722 90.7697 158.458C90.7759 158.197 90.9895 157.99 91.2486 157.99H91.2604C97.8533 158.148 104.493 156.312 110.159 152.903C109.974 152.544 109.813 152.171 109.674 151.786C108.569 148.695 109.012 144.934 110.858 141.729C111.897 139.924 113.157 138.687 114.602 138.054C116.438 137.249 118.584 137.566 119.821 138.824C120.961 139.983 121.323 141.909 120.743 143.731C120.22 145.373 119.081 146.718 118.037 147.818C116.077 149.881 113.856 151.695 111.453 153.228C112.865 155.397 115.204 156.831 117.629 156.884C119.645 156.93 121.825 156.043 123.788 154.394C125.385 153.051 126.715 151.355 128.001 149.715L128.451 149.143C129.405 147.933 130.369 146.787 131.673 146.078C132.965 145.374 134.88 145.13 136.244 146.17C137.231 146.922 137.635 148.066 138.026 149.172C138.196 149.651 138.356 150.104 138.56 150.526C139.335 152.124 140.908 153.445 142.989 154.246C144.899 154.981 146.991 155.227 149.014 155.465C150.716 155.665 152.467 155.868 154.203 155.854C156.77 155.828 159.488 155.306 162.28 154.304C162.529 154.216 162.804 154.344 162.893 154.594C162.983 154.843 162.853 155.118 162.604 155.207C159.71 156.245 156.886 156.786 154.211 156.813C152.42 156.834 150.633 156.621 148.901 156.418C146.819 156.174 144.666 155.921 142.644 155.142C140.335 154.253 138.577 152.762 137.696 150.945C137.469 150.475 137.292 149.976 137.121 149.492C136.761 148.474 136.421 147.512 135.662 146.933C134.639 146.153 133.152 146.365 132.131 146.921C130.986 147.544 130.128 148.565 129.205 149.737L128.757 150.308C127.44 151.987 126.079 153.723 124.405 155.13C122.265 156.928 119.846 157.886 117.609 157.844C114.864 157.785 112.222 156.172 110.639 153.734C105.052 157.092 98.5489 158.96 92.044 158.96V158.958ZM116.716 138.566C116.143 138.566 115.549 138.685 114.988 138.931C113.735 139.481 112.625 140.582 111.69 142.207C109.982 145.172 109.567 148.633 110.578 151.462C110.693 151.783 110.826 152.094 110.977 152.395C113.301 150.909 115.447 149.153 117.344 147.156C118.313 146.136 119.366 144.896 119.831 143.439C120.305 141.952 120.033 140.404 119.139 139.496C118.541 138.887 117.656 138.567 116.717 138.567L116.716 138.566Z" fill="#1A3863"/>
<path d="M81.2908 39.7316H56.5618C56.2972 39.7316 56.082 39.5172 56.082 39.2519C56.082 38.9865 56.2964 38.7721 56.5618 38.7721H80.8111V19.4292C80.8111 19.1646 81.0254 18.9495 81.2908 18.9495C81.5562 18.9495 81.7705 19.1638 81.7705 19.4292V39.2519C81.7705 39.5165 81.5562 39.7316 81.2908 39.7316Z" fill="#1A3863"/>
<path d="M142.68 204.345C221.481 204.345 285.361 202.447 285.361 200.105C285.361 197.763 221.481 195.864 142.68 195.864C63.8802 195.864 0 197.763 0 200.105C0 202.447 63.8802 204.345 142.68 204.345Z" fill="#E6EDFF"/>
<path d="M256.702 65.3524C256.702 65.3524 264.186 75.1778 258.51 77.3534C252.833 79.5291 248.596 75.4282 247.843 74.0095C247.09 72.5907 254.183 64.8609 256.702 65.3532V65.3524Z" fill="#1F3C66"/>
<path d="M239.661 177.63C239.855 178.405 241.746 177.63 241.746 177.63L249.841 167.79L250.564 167.475L253.848 166.046L269.859 159.081L266.821 151.455L254.202 159.431L248.848 162.815L248.467 163.056C246.754 162.313 244.945 166.724 244.945 166.724C244.945 166.724 239.467 176.855 239.661 177.63V177.63Z" fill="#FDC8AA"/>
<path d="M240.389 177.703L240.243 177.966C240.188 178.064 240.068 178.104 239.965 178.058L239.563 177.877C239.349 177.78 239.252 177.529 239.347 177.314C240.297 175.153 245.01 164.646 247.659 162.604L248.386 162.863L240.389 177.703L240.389 177.703Z" fill="#244272"/>
<path d="M248.848 162.816L250.563 167.476L253.848 166.047L254.202 159.431L248.848 162.816Z" fill="#EFA37D"/>
<path d="M201.636 75.0624C201.523 77.6777 207.227 81.8845 208.437 81.9638L221.549 94.8513C222.032 95.3255 222.761 95.4488 223.373 95.1575L231.287 91.6149L235.07 89.9221L236.573 89.2492L232.838 83.436L231.091 84.4763L229.044 85.6949L223.309 89.1087L210.56 78.5257C210.56 78.5257 209.252 73.3884 207.629 74.3181C206.006 75.2469 208.371 76.3665 207.435 76.9742C206.498 77.5811 201.751 72.4478 201.637 75.0632L201.636 75.0624Z" fill="#FDC8AA"/>
<path d="M229.043 85.6941L231.286 91.6149L235.07 89.9214L231.09 84.4756L229.043 85.6941Z" fill="#EFA37D"/>
<path d="M260.936 171.53L263.473 191.285L268.996 199.99C268.996 199.99 267.131 201.876 262.383 199.608C257.636 197.339 257.475 191.719 257.904 191.119L253.781 172.139L260.936 171.53Z" fill="#FDC8AA"/>
<path d="M253.67 114.133C253.699 114.366 253.736 114.603 253.781 114.841C254.782 120.196 259.593 126.914 264.509 132.618C270.31 139.35 276.259 144.67 276.259 144.67L265.215 151.506L269.472 159.793L287.017 151.595C289.129 150.608 290.262 148.26 289.689 145.998C285.712 130.314 261.007 98.2667 261.007 98.2667L252.314 99.5913C252.314 99.5913 252.217 102.499 253.671 114.133H253.67Z" fill="#244272"/>
<path opacity="0.75" d="M253.781 114.842C254.782 120.197 259.593 126.915 264.509 132.619C262.421 117.975 257.998 109.476 257.998 109.476L253.781 114.842Z" fill="#11294C"/>
<path d="M257.936 88.3951L260.918 99.4767C261.205 100.54 262.113 101.319 263.206 101.441L282.866 103.791C282.866 103.791 289.206 103.625 289.836 101.589C290.466 99.5529 284.963 100.807 284.963 100.807C284.963 100.807 286.33 98.7709 285.457 98.6743C284.585 98.5769 283.156 100.067 281.992 100.067C280.827 100.067 266.564 97.2657 266.564 97.2657L263.987 87.2386L263.801 86.5123L257.936 88.3959V88.3951Z" fill="#FDC8AA"/>
<path d="M250.828 145.688C250.828 145.688 247.934 159.502 253.541 175.498L262.055 174.626L259.646 152.378C259.646 152.378 262.406 147.747 260.629 127.834C260.389 125.153 260.067 122.194 259.646 118.933C258.402 109.313 256.678 103.895 254.963 100.917C254.682 100.431 254.402 100.009 254.125 99.6447C254.046 99.5426 253.968 99.4453 253.891 99.3518C251.105 96.0008 248.62 98.2683 248.62 98.2683L246.829 101.788L246.737 101.969C246.737 101.969 246.368 102.671 245.875 103.989C243.835 109.442 239.677 125.428 250.827 145.69L250.828 145.688Z" fill="#244272"/>
<path opacity="0.75" d="M245.875 103.987C247.031 103.584 249.661 102.696 252.396 101.778C253.255 101.489 254.125 101.197 254.963 100.917C258.098 99.8661 260.782 98.971 260.782 98.971L260.511 98.3421L260.29 97.8318L256.444 98.9616L254.125 99.6439L252.318 100.175L246.829 101.787L246.737 101.967C246.737 101.967 246.368 102.67 245.875 103.987Z" fill="#11294C"/>
<path d="M253.541 76.2284C253.541 76.2284 257.887 76.0345 260.214 78.8461C262.54 81.6577 264.576 86.2619 264.576 86.2619L257.935 88.3943L261.685 98.7787L245.876 102.592L239.11 89.1284L233.996 90.833L228.854 84.8564L242.393 77.0371L253.541 76.2284Z" fill="#F4B545"/>
<path d="M258.687 62.695C258.755 60.292 257.552 58.3081 256.001 58.264C254.449 58.2198 253.136 60.1321 253.067 62.5351C252.999 64.9382 254.201 66.922 255.753 66.9662C257.305 67.0103 258.618 65.0981 258.687 62.695Z" fill="#1F3C66"/>
<path d="M253.608 66.9636C253.608 66.9636 255.012 66.8277 255.257 67.5249C255.502 68.2222 254.414 70.1309 251.871 69.7477L253.608 66.9636Z" fill="#FDC8AA"/>
<path d="M242.393 77.0371C242.393 77.0371 243.557 82.2709 247.821 82.2709C252.085 82.2709 253.541 76.2284 253.541 76.2284L251.28 75.2297L251.513 71.3895L251.602 69.9174L246.271 72.0914L245.639 74.2223L245.341 75.2289L242.393 77.0363V77.0371Z" fill="#FDC8AA"/>
<path d="M245.637 74.2232C246.646 74.3009 249.959 74.3143 251.51 71.3904L251.6 69.9182L246.269 72.0923L245.637 74.2232Z" fill="#EFA37D"/>
<path d="M267.317 197.343C267.317 197.343 267.091 200.074 263.208 198.798C259.325 197.522 257.904 191.119 257.904 191.119L257.82 191.157C257.532 191.287 257.359 191.585 257.385 191.901C257.558 193.962 258.754 201.281 266.999 201.007C266.999 201.007 268.172 200.74 268.925 200.203C269.302 199.933 269.355 199.392 269.028 199.063L267.317 197.343Z" fill="#244272"/>
<path d="M248.683 62.1571C249.515 59.5103 248.988 56.9875 247.507 56.5222C246.026 56.057 244.151 57.8255 243.32 60.4723C242.489 63.1191 243.015 65.6419 244.496 66.1072C245.977 66.5725 247.852 64.8039 248.683 62.1571Z" fill="#1F3C66"/>
<path d="M244.116 62.0675C242.646 67.2683 242.799 72.1943 245.265 72.8413C247.632 73.4623 253.907 70.3665 254.388 65.6061C254.408 65.4059 254.418 65.2034 254.418 64.9969C254.395 59.8942 251.831 59.3069 251.831 59.3069C251.831 59.3069 246.841 56.9609 244.698 60.6558C244.468 61.0531 244.271 61.5194 244.116 62.0667V62.0675Z" fill="#FDC8AA"/>
<path d="M244.836 60.6558C244.996 61.0311 245.178 61.4064 245.382 61.7778C247.5 65.6368 251.182 67.6868 253.608 66.356C253.96 66.1629 254.266 65.91 254.525 65.6054C254.546 65.4052 254.556 65.2026 254.555 64.9961C254.533 59.8934 251.968 59.3062 251.968 59.3062C251.968 59.3062 246.979 56.9601 244.836 60.655V60.6558Z" fill="#EFA37D"/>
<path d="M246.886 60.7577C246.886 60.7577 244.463 61.8232 243.444 63.8544C243.444 63.8544 242.826 63.1187 243.864 61.2681C244.902 59.4175 246.559 58.8867 246.559 58.8867L246.886 60.7577H246.886Z" fill="#1F3C66"/>
<path d="M261.143 97.2774L259.611 89.4087L263.987 87.2377L263.8 86.5115L257.936 88.395L261.143 97.2774Z" fill="#EFA37D"/>
<path d="M247.534 69.9001L244.508 69.4722C244.508 69.4722 244.331 71.4704 245.636 71.636C246.94 71.8025 247.364 70.7834 247.533 69.9001H247.534Z" fill="white"/>
<path d="M254.784 66.9474C257.21 65.6165 257.46 61.4092 255.343 57.5501C253.226 53.691 249.543 51.6414 247.117 52.9723C244.691 54.3032 244.441 58.5105 246.558 62.3696C248.675 66.2288 252.358 68.2783 254.784 66.9474Z" fill="#244272"/>
<g style="mix-blend-mode:multiply" opacity="0.3">
<path d="M56.5598 170.612C71.6361 170.612 83.8579 158.39 83.8579 143.314C83.8579 128.238 71.6361 116.016 56.5598 116.016C41.4835 116.016 29.2617 128.238 29.2617 143.314C29.2617 158.39 41.4835 170.612 56.5598 170.612Z" fill="#1561BC"/>
</g>
<path d="M74.4099 159.682C85.0705 149.021 85.0705 131.737 74.4099 121.076C63.7494 110.416 46.4652 110.416 35.8046 121.076C25.144 131.737 25.144 149.021 35.8046 159.682C46.4652 170.342 63.7493 170.342 74.4099 159.682Z" fill="#61D14A"/>
<path d="M29.9155 151.394C29.7278 151.394 29.5496 151.283 29.4727 151.099C28.5038 148.778 27.8537 146.324 27.5404 143.805C27.078 140.085 27.3583 136.383 28.3735 132.806C29.3541 129.352 30.9746 126.156 33.1919 123.31C35.4084 120.464 38.1093 118.11 41.2193 116.313C44.4392 114.453 47.959 113.276 51.6798 112.813C54.8196 112.423 57.9649 112.564 61.0278 113.232C63.9886 113.878 66.812 115.001 69.4187 116.571C69.6456 116.708 69.7186 117.002 69.582 117.229C69.4454 117.456 69.151 117.529 68.9241 117.392C63.7397 114.27 57.8173 113.016 51.7976 113.764C37.1232 115.588 26.6681 129.011 28.492 143.685C28.7943 146.118 29.4216 148.487 30.3575 150.727C30.4596 150.971 30.3442 151.253 30.1 151.355C30.0395 151.38 29.9767 151.392 29.9155 151.392V151.394Z" fill="#1A3863"/>
<path d="M51.2195 154.175L41.4648 146.577L44.9305 142.127L50.235 146.258L64.0277 128.552L68.4771 132.017L51.2195 154.175Z" fill="white"/>
<path d="M211.78 60.3127L200.594 60.7346L205.703 196.201L216.89 195.779L211.78 60.3127Z" fill="#3B82F4"/>
<path d="M211.779 60.3212L200.592 60.742L203.915 54.2685L207.978 54.1154L211.779 60.3212Z" fill="#244272"/>
<path d="M203.914 54.2685L205.186 51.7906C205.459 51.2574 206.211 51.2292 206.524 51.7403L207.979 54.1154L203.915 54.2685H203.914Z" fill="white"/>
<path d="M205.702 196.2L216.889 195.778L216.898 196.03C217.002 198.794 214.844 201.121 212.081 201.226L210.906 201.27C208.143 201.374 205.815 199.216 205.711 196.452L205.701 196.2L205.702 196.2Z" fill="#244272"/>
<path d="M208.018 66.0638L211.989 65.9138L216.675 190.304L212.704 190.454C211.53 190.498 210.543 189.583 210.499 188.409L205.972 68.2693C205.928 67.0955 206.844 66.1077 208.018 66.0638Z" fill="#244272"/>
<path d="M30.2234 98.8109C24.937 98.8109 20.6367 94.5099 20.6367 89.2242V82.3188C20.6367 77.0324 24.9378 72.7322 30.2234 72.7322C35.509 72.7322 39.8101 77.0332 39.8101 82.3188V89.2242C39.8101 94.5106 35.509 98.8109 30.2234 98.8109ZM30.2234 75.3695C26.3911 75.3695 23.274 78.4873 23.274 82.3188V89.2242C23.274 93.0566 26.3919 96.1736 30.2234 96.1736C34.0549 96.1736 37.1728 93.0558 37.1728 89.2242V82.3188C37.1728 78.4865 34.0549 75.3695 30.2234 75.3695Z" fill="#244272"/>
<path d="M40.8104 83.9379H19.6341C18.3563 83.9379 17.3203 84.9738 17.3203 86.2517V104.554C17.3203 105.831 18.3563 106.867 19.6341 106.867H40.8104C42.0883 106.867 43.1242 105.831 43.1242 104.554V86.2517C43.1242 84.9738 42.0883 83.9379 40.8104 83.9379Z" fill="#3B82F4"/>
<path d="M32.6759 94.5845C32.6759 93.2293 31.5775 92.1309 30.2231 92.1309C28.8687 92.1309 27.7695 93.2293 27.7695 94.5845C27.7695 95.6523 28.4526 96.5583 29.405 96.8951V98.9915C29.405 99.4414 29.7732 99.8096 30.2231 99.8096C30.673 99.8096 31.0405 99.4414 31.0405 98.9915V96.8951C31.9928 96.5583 32.6759 95.6523 32.6759 94.5845Z" fill="#244272"/>
<path d="M18.041 9.33997H18.0402C17.5693 9.33997 17.1875 9.72172 17.1875 10.1926V13.6057C17.1875 14.0766 17.5693 14.4584 18.0402 14.4584H18.041C18.5119 14.4584 18.8936 14.0766 18.8936 13.6057V10.1926C18.8936 9.72172 18.5119 9.33997 18.041 9.33997Z" fill="#3B82F4"/>
<path d="M21.0441 15.8567C20.5746 15.8567 20.1914 15.4728 20.1914 15.0041V11.5918C20.1914 11.1223 20.5753 10.7391 21.0441 10.7391C21.5136 10.7391 21.8968 11.1231 21.8968 11.5918V15.0041C21.8968 15.4736 21.5128 15.8567 21.0441 15.8567Z" fill="#3B82F4"/>
<path d="M37.0617 8.07739H16.3173C15.2619 8.07739 14.4062 8.93282 14.4062 9.98805C14.4062 11.0433 15.2619 11.8987 16.3173 11.8987H37.0617C38.1172 11.8987 38.9728 11.0433 38.9728 9.98805C38.9728 8.93282 38.1172 8.07739 37.0617 8.07739Z" fill="#3B82F4"/>
<path d="M43.9677 14.9833C46.726 12.225 46.726 7.7528 43.9677 4.99445C41.2093 2.2361 36.7372 2.2361 33.9788 4.99445C31.2205 7.75281 31.2205 12.225 33.9788 14.9833C36.7372 17.7417 41.2093 17.7417 43.9677 14.9833Z" fill="#6FA0FF"/>
<path d="M44.1088 11.0383C44.6883 10.4588 44.6883 9.51923 44.1088 8.93972C43.5293 8.3602 42.5897 8.36021 42.0102 8.93972C41.4307 9.51923 41.4307 10.4588 42.0102 11.0383C42.5897 11.6178 43.5293 11.6178 44.1088 11.0383Z" fill="white"/>
<path d="M30.2219 70.8816C29.9573 70.8816 29.7422 70.6673 29.7422 70.4019V61.0437C29.7422 60.7791 29.9565 60.564 30.2219 60.564C30.4873 60.564 30.7016 60.7783 30.7016 61.0437V70.4019C30.7016 70.6665 30.4873 70.8816 30.2219 70.8816Z" fill="#1A3863"/>
<path d="M30.2219 24.2547C29.9573 24.2547 29.7422 24.0403 29.7422 23.7749V14.4167C29.7422 14.1521 29.9565 13.937 30.2219 13.937C30.4873 13.937 30.7016 14.1514 30.7016 14.4167V23.7749C30.7016 24.0395 30.4873 24.2547 30.2219 24.2547Z" fill="#1A3863"/>
<path d="M43.1203 30.3145V46.7241C43.1203 48.4985 42.4946 50.2149 41.3459 51.5677C39.5047 53.7331 36.1553 56.8094 30.9372 58.5885C30.7048 58.6678 30.4622 58.7063 30.218 58.7063C29.9738 58.7063 29.7312 58.6678 29.4988 58.5885C24.2838 56.8094 20.9344 53.7331 19.0932 51.5677C17.9445 50.2157 17.3164 48.4985 17.3164 46.7241V30.3145C17.3164 29.9258 17.5755 29.5882 17.9492 29.4846L29.9589 26.1948C30.0429 26.1705 30.1316 26.1587 30.218 26.1587C30.3043 26.1587 30.3931 26.1705 30.4771 26.1948L42.4899 29.4846C42.8612 29.5874 43.1203 29.9258 43.1203 30.3145Z" fill="#6FA0FF"/>
<path d="M30.2195 53.3852C26.6871 51.9759 24.3622 49.8458 23.0016 48.2449C22.6443 47.8248 22.4473 47.2846 22.4473 46.724V34.1397C22.4473 33.8044 22.6718 33.51 22.9953 33.4213L30.2195 31.4419L37.4436 33.4213C37.7671 33.51 37.9917 33.8036 37.9917 34.1397V46.724C37.9917 47.2846 37.7946 47.824 37.4373 48.2449C36.0767 49.8458 33.7526 51.9759 30.2195 53.3852Z" fill="white"/>
<g style="mix-blend-mode:multiply" opacity="0.3">
<path d="M43.1211 30.3145V46.7241C43.1211 48.4986 42.4953 50.2149 41.3467 51.5677C39.5055 53.7332 36.156 56.8094 30.9379 58.5885C30.7055 58.6678 30.4629 58.7063 30.2188 58.7063V26.1603C30.3075 26.1603 30.3938 26.1721 30.4778 26.1964L42.4906 29.4862C42.862 29.589 43.1211 29.9274 43.1211 30.3161V30.3145Z" fill="#1561BC"/>
</g>
</svg>
