<svg width="366" height="349" viewBox="0 0 366 349" fill="none" xmlns="http://www.w3.org/2000/svg">
<path d="M167.641 75.3741H39.8105V221.358H167.641V75.3741Z" fill="white"/>
<path d="M168.028 221.753H39.4238V74.9874H168.028V221.745V221.753ZM40.1973 220.979H167.255V75.7609H40.1973V220.972V220.979Z" fill="#EBEBEB"/>
<path d="M167.641 83.4027H39.8105V84.1762H167.641V83.4027Z" fill="#EBEBEB"/>
<path d="M46.4618 79.4734C46.4618 80.3629 45.7424 81.09 44.853 81.09C43.9635 81.09 43.2441 80.3707 43.2441 79.4734C43.2441 78.5762 43.9635 77.8646 44.853 77.8646C45.7424 77.8646 46.4618 78.5839 46.4618 79.4734Z" fill="#DBDBDB"/>
<path d="M53.0516 79.4734C53.0516 80.3629 52.3323 81.09 51.4428 81.09C50.5533 81.09 49.834 80.3707 49.834 79.4734C49.834 78.5762 50.5533 77.8646 51.4428 77.8646C52.3323 77.8646 53.0516 78.5839 53.0516 79.4734Z" fill="#A6A6A6"/>
<path d="M59.6336 79.4734C59.6336 80.3629 58.9143 81.09 58.0248 81.09C57.1353 81.09 56.416 80.3707 56.416 79.4734C56.416 78.5762 57.1353 77.8646 58.0248 77.8646C58.9143 77.8646 59.6336 78.5839 59.6336 79.4734Z" fill="#EBEBEB"/>
<path d="M308.173 157.648H180.342V252.522H308.173V157.648Z" fill="white"/>
<path d="M308.559 252.908H179.955V157.261H308.559V252.908ZM180.729 252.135H307.786V158.035H180.729V252.135Z" fill="#EBEBEB"/>
<path d="M308.173 165.677H180.342V166.45H308.173V165.677Z" fill="#EBEBEB"/>
<path d="M186.994 161.74C186.994 162.629 186.275 163.356 185.385 163.356C184.496 163.356 183.776 162.637 183.776 161.74C183.776 160.842 184.496 160.131 185.385 160.131C186.275 160.131 186.994 160.85 186.994 161.74Z" fill="#DBDBDB"/>
<path d="M193.584 161.74C193.584 162.629 192.865 163.356 191.975 163.356C191.086 163.356 190.366 162.637 190.366 161.74C190.366 160.842 191.086 160.131 191.975 160.131C192.865 160.131 193.584 160.85 193.584 161.74Z" fill="#A6A6A6"/>
<path d="M200.166 161.74C200.166 162.629 199.447 163.356 198.557 163.356C197.668 163.356 196.948 162.637 196.948 161.74C196.948 160.842 197.668 160.131 198.557 160.131C199.447 160.131 200.166 160.85 200.166 161.74Z" fill="#EBEBEB"/>
<path d="M98.1533 0.386719H16.7305V95.2602H98.1533V0.386719Z" fill="white"/>
<path d="M98.5401 95.6469H16.3438V0H98.5401V95.6469ZM17.1172 94.8735H97.7666V0.773467H17.1172V94.8735Z" fill="#EBEBEB"/>
<path d="M98.1533 8.41528H16.7305V9.18875H98.1533V8.41528Z" fill="#EBEBEB"/>
<path d="M23.3817 4.48601C23.3817 5.3755 22.6624 6.10255 21.7729 6.10255C20.8834 6.10255 20.1641 5.38323 20.1641 4.48601C20.1641 3.58879 20.8834 2.8772 21.7729 2.8772C22.6624 2.8772 23.3817 3.59652 23.3817 4.48601Z" fill="#DBDBDB"/>
<path d="M29.9715 4.48601C29.9715 5.3755 29.2522 6.10255 28.3627 6.10255C27.4732 6.10255 26.7539 5.38323 26.7539 4.48601C26.7539 3.58879 27.4732 2.8772 28.3627 2.8772C29.2522 2.8772 29.9715 3.59652 29.9715 4.48601Z" fill="#A6A6A6"/>
<path d="M36.5536 4.48601C36.5536 5.3755 35.8342 6.10255 34.9448 6.10255C34.0553 6.10255 33.3359 5.38323 33.3359 4.48601C33.3359 3.58879 34.0553 2.8772 34.9448 2.8772C35.8342 2.8772 36.5536 3.59652 36.5536 4.48601Z" fill="#EBEBEB"/>
<path d="M318.173 261.734C294.374 254.749 270.659 247.788 247.03 240.865C246.078 206.013 273.962 181.981 276.081 148.281C299.881 155.274 323.595 162.227 347.225 169.15C348.16 203.994 320.277 228.034 318.173 261.734Z" fill="white"/>
<path d="M318.174 261.733C300.338 256.567 264.619 246.256 246.798 241.043C245.77 215.766 261.425 194.504 270.203 171.903C273.119 164.315 275.208 156.372 275.703 148.258L275.734 147.779L276.198 147.918L347.31 168.894L347.504 168.948V169.149C348.718 202.919 320.347 228.675 318.182 261.741L318.174 261.733ZM318.174 261.733C319.968 228.683 348.208 202.788 346.955 169.157C348.3 170.016 275.672 148.444 275.973 148.653L276.468 148.305C275.95 156.511 273.808 164.532 270.853 172.151C262.059 194.651 246.404 215.712 247.27 240.858C263.729 245.212 300.833 256.737 318.174 261.733Z" fill="#DBDBDB"/>
<path d="M280.336 164.656C293.763 168.616 307.175 172.568 320.564 176.513C320.378 177.333 320.185 178.137 319.968 178.949C306.549 174.997 293.106 171.029 279.655 167.061C279.895 166.265 280.119 165.46 280.336 164.656Z" fill="#DBDBDB"/>
<path d="M278.495 170.673C291.984 174.657 305.465 178.632 318.924 182.608C318.676 183.404 318.421 184.193 318.158 184.982C304.669 180.999 291.172 177.016 277.659 173.025C277.945 172.243 278.224 171.462 278.495 170.681V170.673Z" fill="#DBDBDB"/>
<path d="M276.298 176.552C289.842 180.55 303.377 184.549 316.897 188.548C316.603 189.321 316.302 190.095 316 190.868C302.465 186.87 288.913 182.863 275.354 178.856C275.679 178.091 275.996 177.325 276.306 176.559L276.298 176.552Z" fill="#DBDBDB"/>
<path d="M273.823 182.329C293.716 188.216 313.602 194.094 333.465 199.965C333.14 200.73 332.815 201.496 332.482 202.254C312.596 196.376 292.703 190.49 272.786 184.603C273.134 183.845 273.482 183.095 273.823 182.337V182.329Z" fill="#DBDBDB"/>
<path d="M271.163 188.038C291.095 193.931 311.012 199.825 330.921 205.719C330.573 206.477 330.217 207.227 329.869 207.978C309.945 202.084 290.012 196.19 270.08 190.288C270.444 189.538 270.807 188.788 271.163 188.038Z" fill="#DBDBDB"/>
<path d="M268.401 193.715C288.341 199.616 308.289 205.518 328.221 211.412C327.857 212.162 327.494 212.912 327.13 213.662C307.19 207.761 287.243 201.859 267.303 195.958C267.666 195.208 268.038 194.465 268.401 193.715Z" fill="#DBDBDB"/>
<path d="M265.639 199.384C285.572 205.278 305.512 211.18 325.452 217.081C325.088 217.832 324.717 218.582 324.353 219.324C304.413 213.423 284.481 207.529 264.557 201.635C264.912 200.885 265.276 200.135 265.632 199.384H265.639Z" fill="#DBDBDB"/>
<path d="M262.956 205.085C282.857 210.971 302.774 216.865 322.706 222.759C322.35 223.509 321.994 224.259 321.638 225.017C301.722 219.123 281.82 213.237 261.935 207.359C262.267 206.601 262.607 205.843 262.956 205.085Z" fill="#DBDBDB"/>
<path d="M260.442 210.847C280.297 216.718 300.167 222.588 320.061 228.474C319.72 229.232 319.388 229.998 319.063 230.756C299.193 224.886 279.338 219.015 259.514 213.16C259.815 212.386 260.125 211.621 260.442 210.847Z" fill="#DBDBDB"/>
<path d="M258.199 216.71C277.977 222.55 297.793 228.405 317.624 234.26C317.323 235.034 317.021 235.807 316.735 236.58C296.927 230.733 277.149 224.893 257.402 219.061C257.658 218.273 257.928 217.484 258.199 216.702V216.71Z" fill="#DBDBDB"/>
<path d="M256.296 222.704C275.981 228.513 295.712 234.33 315.467 240.162C315.204 240.951 314.956 241.74 314.709 242.536C294.993 236.72 275.308 230.911 255.662 225.125C255.863 224.313 256.072 223.509 256.296 222.704Z" fill="#DBDBDB"/>
<path d="M254.835 228.869C274.411 234.631 294.026 240.409 313.688 246.202C313.479 247.014 313.285 247.827 313.108 248.639C293.492 242.861 273.924 237.099 254.401 231.359C254.533 230.524 254.68 229.689 254.842 228.869H254.835Z" fill="#DBDBDB"/>
<path d="M0 347.813C116.995 347.294 248.244 347.287 365.239 347.813C248.244 348.339 116.995 348.331 0 347.813Z" fill="#263238"/>
<path d="M148.63 93.2028H32.5557V219.015H148.63V93.2028Z" fill="white"/>
<path d="M149.017 219.394H32.1689V92.8159H149.017V219.402V219.394ZM32.9424 218.62H148.243V93.5894H32.9424V218.628V218.62Z" fill="#EBEBEB"/>
<path d="M148.63 93.2028H32.5557V101.618H148.63V93.2028Z" fill="#263238"/>
<path d="M39.2079 97.2944C39.2079 98.1838 38.4885 98.9032 37.599 98.9032C36.7096 98.9032 35.9902 98.1838 35.9902 97.2944C35.9902 96.4049 36.7096 95.6855 37.599 95.6855C38.4885 95.6855 39.2079 96.4049 39.2079 97.2944Z" fill="#0069B8"/>
<path d="M45.7976 97.2944C45.7976 98.1838 45.0783 98.9032 44.1811 98.9032C43.2839 98.9032 42.5723 98.1838 42.5723 97.2944C42.5723 96.4049 43.2916 95.6855 44.1811 95.6855C45.0706 95.6855 45.7976 96.4049 45.7976 97.2944Z" fill="#455A64"/>
<path d="M52.3797 97.2944C52.3797 98.1838 51.6604 98.9032 50.7709 98.9032C49.8814 98.9032 49.1621 98.1838 49.1621 97.2944C49.1621 96.4049 49.8814 95.6855 50.7709 95.6855C51.6604 95.6855 52.3797 96.4049 52.3797 97.2944Z" fill="#EBEBEB"/>
<path d="M332.684 2.32812H166.18V128.14H332.684V2.32812Z" fill="white"/>
<path d="M333.071 128.527H165.793V1.94141H333.071V128.527ZM166.566 127.754H332.297V2.71487H166.566V127.754Z" fill="#EBEBEB"/>
<path d="M332.684 2.32812H166.18V10.7434H332.684V2.32812Z" fill="#263238"/>
<path d="M172.831 6.4196C172.831 7.30909 172.112 8.02841 171.222 8.02841C170.333 8.02841 169.613 7.30909 169.613 6.4196C169.613 5.53012 170.333 4.81079 171.222 4.81079C172.112 4.81079 172.831 5.53012 172.831 6.4196Z" fill="#0069B8"/>
<path d="M179.413 6.4196C179.413 7.30909 178.694 8.02841 177.804 8.02841C176.915 8.02841 176.195 7.30909 176.195 6.4196C176.195 5.53012 176.915 4.81079 177.804 4.81079C178.694 4.81079 179.413 5.53012 179.413 6.4196Z" fill="#455A64"/>
<path d="M185.995 6.4196C185.995 7.30909 185.276 8.02841 184.386 8.02841C183.497 8.02841 182.777 7.30909 182.777 6.4196C182.777 5.53012 183.497 4.81079 184.386 4.81079C185.276 4.81079 185.995 5.53012 185.995 6.4196Z" fill="#EBEBEB"/>
<path d="M279.631 114.945H259.212V113.475H279.631V114.945ZM279.631 110.211H259.212V108.742H279.631V110.211ZM279.631 105.478H259.212V104.008H279.631V105.478ZM279.631 100.744H259.212V99.2744H279.631V100.744ZM279.631 96.0104H259.212V94.5408H279.631V96.0104ZM279.631 91.2768H259.212V89.8072H279.631V91.2768ZM279.631 86.5432H259.212V85.0736H279.631V86.5432ZM279.631 81.1134H259.212V78.1201H279.631V81.1134ZM279.631 73.3246H259.212V29.2447H279.631V73.3246ZM279.631 25.2846H259.212V22.2913H279.631V25.2846ZM322.373 114.945H285.394V94.5331H322.373V114.945ZM322.373 91.2768H285.394V89.8072H322.373V91.2768ZM322.373 86.5432H285.394V85.0736H322.373V86.5432ZM322.373 81.8095H285.394V80.34H322.373V81.8095ZM322.373 77.0682H285.394V75.5986H322.373V77.0682ZM322.373 72.3346H285.394V70.865H322.373V72.3346ZM322.373 67.601H285.394V66.1314H322.373V67.601ZM322.373 62.8673H285.394V61.3978H322.373V62.8673ZM322.373 57.4376H285.394V54.4443H322.373V57.4376ZM322.373 49.6565H285.394V48.1869H322.373V49.6565ZM322.373 44.9229H285.394V43.4533H322.373V44.9229ZM322.373 40.1816H285.394V38.712H322.373V40.1816ZM322.373 35.4479H285.394V33.9784H322.373V35.4479ZM322.373 30.7143H285.394V29.2447H322.373V30.7143ZM322.373 25.2614H285.394V22.2681H322.373V25.2614Z" fill="#EBEBEB"/>
<path d="M326.217 18.7644H254.37V119.895H326.217V18.7644Z" fill="#EBEBEB"/>
<path d="M279.631 29.2449H259.212V73.3248H279.631V29.2449Z" fill="#A6A6A6"/>
<path d="M322.373 22.2681H285.394V25.2614H322.373V22.2681Z" fill="#263238"/>
<path d="M279.631 22.2914H259.212V25.2847H279.631V22.2914Z" fill="#263238"/>
<path d="M279.631 78.1202H259.212V81.1136H279.631V78.1202Z" fill="#263238"/>
<path d="M322.373 29.2449H285.394V30.7145H322.373V29.2449Z" fill="#A6A6A6"/>
<path d="M322.373 33.9784H285.394V35.448H322.373V33.9784Z" fill="#A6A6A6"/>
<path d="M322.373 38.7122H285.394V40.1817H322.373V38.7122Z" fill="#A6A6A6"/>
<path d="M322.373 43.4457H285.394V44.9153H322.373V43.4457Z" fill="#A6A6A6"/>
<path d="M322.373 48.187H285.394V49.6566H322.373V48.187Z" fill="#A6A6A6"/>
<path d="M279.631 85.0737H259.212V86.5433H279.631V85.0737Z" fill="#A6A6A6"/>
<path d="M279.631 89.8073H259.212V91.2768H279.631V89.8073Z" fill="#A6A6A6"/>
<path d="M279.631 94.5409H259.212V96.0105H279.631V94.5409Z" fill="#A6A6A6"/>
<path d="M279.631 99.2744H259.212V100.744H279.631V99.2744Z" fill="#A6A6A6"/>
<path d="M279.631 104.008H259.212V105.478H279.631V104.008Z" fill="#A6A6A6"/>
<path d="M279.631 108.742H259.212V110.211H279.631V108.742Z" fill="#A6A6A6"/>
<path d="M279.631 113.475H259.212V114.945H279.631V113.475Z" fill="#A6A6A6"/>
<path d="M322.373 54.4443H285.394V57.4377H322.373V54.4443Z" fill="#263238"/>
<path d="M322.373 61.3978H285.394V62.8674H322.373V61.3978Z" fill="#A6A6A6"/>
<path d="M322.373 66.1313H285.394V67.6009H322.373V66.1313Z" fill="#A6A6A6"/>
<path d="M322.373 70.8651H285.394V72.3347H322.373V70.8651Z" fill="#A6A6A6"/>
<path d="M322.373 75.5986H285.394V77.0682H322.373V75.5986Z" fill="#A6A6A6"/>
<path d="M322.373 80.3323H285.394V81.8019H322.373V80.3323Z" fill="#A6A6A6"/>
<path d="M322.373 85.0737H285.394V86.5433H322.373V85.0737Z" fill="#A6A6A6"/>
<path d="M322.373 89.8073H285.394V91.2768H322.373V89.8073Z" fill="#A6A6A6"/>
<path d="M322.373 94.5409H285.394V114.953H322.373V94.5409Z" fill="#A6A6A6"/>
<path d="M179.189 38.7506H51.0723V55.179H179.189V38.7506Z" fill="white"/>
<path d="M179.584 55.5581H50.6855V38.3562H179.576V55.5581H179.584ZM51.459 54.7846H178.803V39.1297H51.459V54.7846Z" fill="#EBEBEB"/>
<path d="M179.198 38.7506H162.77V55.179H179.198V38.7506Z" fill="#0069B8"/>
<path d="M176.189 51.5669L174.673 52.7194L171.866 49.0068L170.837 47.6532C171.046 47.5759 171.239 47.4598 171.425 47.3206C171.781 47.0499 172.044 46.6941 172.206 46.3074L173.297 47.746L176.189 51.5669Z" fill="white"/>
<path d="M173.203 42.8269C171.811 41.0092 169.212 40.6689 167.395 42.0611C165.577 43.4534 165.237 46.0522 166.629 47.8699C167.882 49.5019 170.102 49.9428 171.858 49.0069C172.059 48.8986 172.252 48.7748 172.43 48.6356C172.77 48.3726 173.056 48.071 173.288 47.7461C174.309 46.3075 174.325 44.3119 173.196 42.8346L173.203 42.8269ZM171.424 47.313C171.239 47.4522 171.038 47.5682 170.837 47.6456C169.831 48.0478 168.648 47.7538 167.952 46.8566C167.116 45.7738 167.325 44.2114 168.408 43.3838C169.491 42.5484 171.045 42.7572 171.881 43.8401C172.438 44.5672 172.53 45.5108 172.198 46.2997C172.035 46.6865 171.772 47.0345 171.417 47.313H171.424Z" fill="white"/>
<path d="M55.938 42.5173H55.1104V51.3967H55.938V42.5173Z" fill="#263238"/>
<path d="M333.518 241.267H186.544V347.805H333.518V241.267Z" fill="#0069B8"/>
<path d="M238.475 230.238H186.544V241.267H241.46L238.475 230.238Z" fill="#0069B8"/>
<g opacity="0.2">
<path d="M333.518 241.267H186.544V347.805H333.518V241.267Z" fill="black"/>
<path d="M238.475 230.238H186.544V241.267H241.46L238.475 230.238Z" fill="black"/>
</g>
<path d="M234.128 233.571H191.657V239.991H234.128V233.571Z" fill="white"/>
<path d="M323.318 230.627L186.761 237.258L191.926 343.639L328.484 337.008L323.318 230.627Z" fill="#EBEBEB"/>
<path d="M220.539 330.595L218.412 289.044L216.502 247.486L218.629 289.029L220.539 330.595Z" fill="#C7C7C7"/>
<path d="M223.926 330.425L221.807 288.874L219.889 247.316L222.016 288.867L223.926 330.425Z" fill="#C7C7C7"/>
<path d="M227.314 330.263L225.195 288.712L223.284 247.154L225.403 288.704L227.314 330.263Z" fill="#C7C7C7"/>
<path d="M230.703 330.1L228.583 288.549L226.673 246.991L228.792 288.542L230.703 330.1Z" fill="#C7C7C7"/>
<path d="M234.09 329.938L231.971 288.387L230.061 246.829L232.18 288.372L234.09 329.938Z" fill="#C7C7C7"/>
<path d="M237.478 329.767L235.359 288.217L233.448 246.658L235.568 288.209L237.478 329.767Z" fill="#C7C7C7"/>
<path d="M240.873 329.605L238.746 288.054L236.836 246.496L238.955 288.047L240.873 329.605Z" fill="#C7C7C7"/>
<path d="M244.261 329.443L242.134 287.892L240.224 246.334L242.351 287.884L244.261 329.443Z" fill="#C7C7C7"/>
<path d="M247.649 329.28L245.53 287.73L243.619 246.171L245.738 287.714L247.649 329.28Z" fill="#C7C7C7"/>
<path d="M251.037 329.11L248.917 287.559L247.007 246.001L249.126 287.551L251.037 329.11Z" fill="#C7C7C7"/>
<path d="M254.424 328.948L252.305 287.397L250.395 245.839L252.514 287.389L254.424 328.948Z" fill="#C7C7C7"/>
<path d="M257.813 328.785L255.694 287.235L253.783 245.676L255.903 287.227L257.813 328.785Z" fill="#C7C7C7"/>
<path d="M261.201 328.615L259.081 287.072L257.171 245.514L259.29 287.057L261.201 328.615Z" fill="#C7C7C7"/>
<path d="M264.596 328.453L262.469 286.902L260.559 245.344L262.686 286.894L264.596 328.453Z" fill="#C7C7C7"/>
<path d="M267.984 328.29L265.865 286.74L263.954 245.181L266.073 286.732L267.984 328.29Z" fill="#C7C7C7"/>
<path d="M256.956 313.677L257.262 319.981L271.484 319.29L271.178 312.986L256.956 313.677Z" fill="#0069B8"/>
<path d="M248.816 302.355L249.122 308.659L270.931 307.6L270.625 301.296L248.816 302.355Z" fill="#0069B8"/>
<path d="M239.755 291.094L240.062 297.398L270.361 295.926L270.055 289.622L239.755 291.094Z" fill="#0069B8"/>
<path d="M235.548 279.575L235.854 285.88L269.808 284.231L269.502 277.927L235.548 279.575Z" fill="#0069B8"/>
<path d="M228.457 268.183L228.763 274.487L269.214 272.523L268.908 266.219L228.457 268.183Z" fill="#0069B8"/>
<path d="M221.472 256.805L221.778 263.109L268.649 260.833L268.343 254.529L221.472 256.805Z" fill="#0069B8"/>
<path d="M218.049 328.453L231.484 327.64L244.919 326.875C253.876 326.364 262.84 325.908 271.805 325.459L271.434 325.869L270.436 305.658L269.5 285.44L268.649 265.222L267.899 244.995L269.113 265.198L270.219 285.409L271.248 305.62L272.215 325.831L272.23 326.225L271.843 326.24C262.879 326.658 253.914 327.076 244.95 327.432L231.499 327.973L218.049 328.46V328.453Z" fill="#C7C7C7"/>
<path d="M274.032 312.863L274.338 319.167L274.91 319.139L274.603 312.835L274.032 312.863Z" fill="#C7C7C7"/>
<path d="M273.478 301.17L273.784 307.474L274.356 307.446L274.05 301.142L273.478 301.17Z" fill="#C7C7C7"/>
<path d="M272.893 289.477L273.199 295.781L273.771 295.753L273.465 289.449L272.893 289.477Z" fill="#C7C7C7"/>
<path d="M272.323 277.776L272.629 284.08L273.201 284.053L272.894 277.749L272.323 277.776Z" fill="#C7C7C7"/>
<path d="M271.76 266.091L272.066 272.395L272.638 272.367L272.332 266.063L271.76 266.091Z" fill="#C7C7C7"/>
<path d="M271.191 254.406L271.497 260.71L272.069 260.682L271.763 254.378L271.191 254.406Z" fill="#C7C7C7"/>
<path d="M259.043 319.202C258.849 316.124 258.455 313.061 257.898 310.029C257.356 306.997 256.676 303.996 255.825 301.041C254.123 295.139 251.919 289.362 248.887 284.025C245.948 278.649 242.243 273.676 237.85 269.391L237.037 268.579L236.179 267.813L234.454 266.289C233.24 265.353 232.079 264.34 230.788 263.497C228.313 261.664 225.613 260.171 222.898 258.709L222.922 258.655C228.545 261.192 233.843 264.588 238.337 268.88C240.634 270.976 242.661 273.351 244.563 275.803C246.474 278.255 248.152 280.884 249.66 283.592C252.661 289.037 254.905 294.869 256.475 300.863C258.014 306.857 258.996 313.022 259.035 319.202H259.043Z" fill="#263238"/>
<path d="M227.199 256.706L227.462 257.564L223.208 258.848L224.801 262.994L223.958 263.311L222.024 258.268L227.199 256.706Z" fill="#263238"/>
<path d="M296.689 328.69L292.481 242.032L288.974 242.203L293.182 328.86L296.689 328.69Z" fill="#DBDBDB"/>
<path d="M305.532 328.26L303.163 279.473L299.656 279.644L302.025 328.431L305.532 328.26Z" fill="#DBDBDB"/>
<path d="M209.121 313.959L206.752 265.172L203.245 265.342L205.614 314.129L209.121 313.959Z" fill="#DBDBDB"/>
<path d="M331.167 347.813H184.185L155.621 250.108H302.603L331.167 347.813Z" fill="#0069B8"/>
<path d="M204.598 239.991H152.667L155.622 250.108H210.538L204.598 239.991Z" fill="#0069B8"/>
<path d="M286.74 226.216C262.059 222.031 237.687 217.847 213.539 213.662C216.664 183.064 232.141 152.466 231.344 121.867C256.026 126.052 280.398 130.236 304.545 134.421C301.42 165.019 285.943 195.618 286.74 226.216Z" fill="#0069B8"/>
<path opacity="0.8" d="M286.74 226.216C262.059 222.031 237.687 217.847 213.539 213.662C216.664 183.064 232.141 152.466 231.344 121.867C256.026 126.052 280.398 130.236 304.545 134.421C301.42 165.019 285.943 195.618 286.74 226.216Z" fill="white"/>
<path d="M237.424 136.618C250.805 138.946 264.116 141.274 277.373 143.602C277.234 144.391 277.095 145.172 276.948 145.961C263.729 143.633 250.457 141.305 237.122 138.977C237.23 138.188 237.331 137.407 237.431 136.618H237.424Z" fill="#0069B8"/>
<path d="M236.565 142.565C249.838 144.894 263.056 147.222 276.229 149.55C276.066 150.339 275.896 151.12 275.718 151.909C262.577 149.581 249.389 147.253 236.155 144.924C236.302 144.136 236.434 143.354 236.565 142.565Z" fill="#0069B8"/>
<path d="M235.459 148.513C248.647 150.842 261.788 153.17 274.89 155.498C274.705 156.287 274.511 157.068 274.318 157.857C261.231 155.529 248.121 153.201 234.964 150.873C235.134 150.084 235.296 149.302 235.459 148.513Z" fill="#0069B8"/>
<path d="M234.152 154.469C253.372 157.88 272.516 161.291 291.62 164.694C291.411 165.483 291.202 166.264 290.986 167.053C271.897 163.642 252.777 160.231 233.587 156.828C233.78 156.039 233.966 155.258 234.152 154.469Z" fill="#0069B8"/>
<path d="M232.69 160.417C251.833 163.828 270.923 167.239 290.004 170.642C289.787 171.431 289.571 172.212 289.354 173.001C270.281 169.59 251.199 166.179 232.079 162.776C232.288 161.987 232.489 161.206 232.69 160.417Z" fill="#0069B8"/>
<path d="M231.127 166.365C250.224 169.776 269.29 173.187 288.364 176.59C288.147 177.379 287.931 178.16 287.714 178.949C268.633 175.538 249.567 172.127 230.485 168.724C230.702 167.935 230.911 167.154 231.127 166.365Z" fill="#0069B8"/>
<path d="M229.495 172.313C248.569 175.724 267.635 179.135 286.74 182.538C286.531 183.327 286.322 184.108 286.113 184.897C266.993 181.486 247.919 178.075 228.846 174.672C229.062 173.883 229.279 173.102 229.495 172.313Z" fill="#0069B8"/>
<path d="M227.855 178.261C246.936 181.672 266.033 185.083 285.184 188.486C284.983 189.275 284.79 190.056 284.596 190.845C265.414 187.434 246.302 184.023 227.213 180.62C227.429 179.831 227.638 179.05 227.855 178.261Z" fill="#0069B8"/>
<path d="M226.247 184.209C245.359 187.62 264.51 191.031 283.746 194.434C283.568 195.223 283.391 196.004 283.22 196.793C263.953 193.382 244.771 189.971 225.636 186.568C225.837 185.779 226.046 184.998 226.255 184.209H226.247Z" fill="#0069B8"/>
<path d="M224.716 190.165C243.89 193.576 263.118 196.987 282.455 200.39C282.3 201.179 282.146 201.96 281.999 202.749C262.616 199.338 243.341 195.927 224.136 192.524C224.321 191.735 224.515 190.954 224.708 190.165H224.716Z" fill="#0069B8"/>
<path d="M223.315 196.113C242.575 199.524 261.919 202.935 281.387 206.338C281.263 207.127 281.14 207.908 281.031 208.697C261.501 205.286 242.111 201.875 222.812 198.472C222.975 197.683 223.145 196.902 223.323 196.113H223.315Z" fill="#0069B8"/>
<path d="M222.093 202.061C241.461 205.472 260.945 208.883 280.567 212.286C280.475 213.075 280.397 213.856 280.32 214.645C260.62 211.234 241.082 207.823 221.66 204.42C221.799 203.631 221.939 202.849 222.086 202.061H222.093Z" fill="#0069B8"/>
<path d="M326.93 131.033L330.588 139.866L326.937 141.382L323.256 132.487L317.223 137.174V112.292L334.633 129.888L326.93 131.033Z" fill="#0069B8"/>
<path d="M317.431 108.981C316.905 107.891 316.897 106.769 317.431 105.679C317.964 106.769 317.957 107.891 317.431 108.981Z" fill="#37474F"/>
<path d="M314.593 110.157C313.448 109.763 312.651 108.974 312.257 107.821C313.402 108.216 314.191 109.012 314.593 110.157Z" fill="#37474F"/>
<path d="M313.417 113.003C312.326 113.529 311.205 113.537 310.114 113.003C311.205 112.47 312.326 112.477 313.417 113.003Z" fill="#37474F"/>
<path d="M314.593 115.842C314.198 116.987 313.409 117.783 312.257 118.178C312.651 117.033 313.448 116.244 314.593 115.842Z" fill="#37474F"/>
<path d="M321.453 113.003C322.544 112.477 323.665 112.47 324.756 113.003C323.665 113.537 322.544 113.529 321.453 113.003Z" fill="#37474F"/>
<path d="M320.277 110.157C320.672 109.012 321.461 108.216 322.613 107.821C322.219 108.966 321.422 109.755 320.277 110.157Z" fill="#37474F"/>
<path d="M125.534 100.945C129.796 118.186 146.704 150.083 153.386 150.888C158.924 151.553 179.746 137.182 186.436 130.484C190.188 126.732 175.786 104.225 172.228 107.442C167.378 111.828 155.738 121.063 153.773 122.014C152.458 122.656 139.069 105.137 133.632 98.1296C126.199 88.5464 123.84 94.1153 125.526 100.945H125.534Z" fill="#D3766A"/>
<path d="M202.222 120.784C198.541 125.302 187.403 131.582 184.131 132.062L170.936 109.554C172.15 106.383 185.539 93.3883 191.355 92.143C197.164 90.8977 206.035 116.105 202.222 120.784Z" fill="#D3766A"/>
<path d="M194.283 139.992L202.029 138.167L191.087 91.7312L183.34 93.5568L194.283 139.992Z" fill="#C7C7C7"/>
<path d="M192.515 88.4692C191.471 89.0648 190.403 89.5521 189.313 89.9311C189.05 90.0316 188.779 90.109 188.516 90.1863C188.276 90.2636 188.029 90.3255 187.789 90.3874C187.627 90.4416 187.449 90.488 187.286 90.5189L179.699 92.2515C180.387 92.0968 181.068 91.9034 181.733 91.6636C182.298 91.4703 182.854 91.2382 183.404 90.983C183.914 90.7509 184.432 90.488 184.943 90.2018C197.535 83.0549 201.588 62.8829 193.985 45.1628C188.137 31.4956 177.084 23.2814 166.55 23.498C165.243 23.5212 163.943 23.6759 162.659 23.9698L170.247 22.2295C170.247 22.2295 170.278 22.2218 170.309 22.2218C170.634 22.1444 170.958 22.0825 171.291 22.0284C171.577 21.9743 171.856 21.9278 172.142 21.9046C172.273 21.8892 172.405 21.866 172.536 21.8582C172.753 21.8273 172.969 21.8118 173.186 21.8041C173.31 21.7964 173.441 21.7886 173.557 21.7809C180.031 21.4483 186.745 24.3488 192.345 29.7708C192.631 30.0492 192.917 30.3277 193.188 30.6139C196.506 34.0326 199.399 38.3563 201.565 43.4302C209.168 61.1426 205.115 81.3146 192.515 88.4692Z" fill="#37474F"/>
<path d="M144.429 73.3246C152.156 91.3309 167.587 101.278 181.184 98.1684L188.764 96.4281C175.182 99.5529 159.744 89.5984 152.009 71.5843C143.114 50.8013 147.871 27.1332 162.636 18.7333C163.866 18.0449 165.119 17.4648 166.388 17.024C167.177 16.7455 167.966 16.5212 168.77 16.3356L161.19 18.0759C160.386 18.2615 159.589 18.4935 158.8 18.772C157.532 19.2129 156.279 19.7852 155.056 20.4814C140.276 28.8812 135.526 52.5493 144.429 73.3324V73.3246Z" fill="#37474F"/>
<path d="M205.51 41.1793C197.767 23.1111 182.251 13.1411 168.615 16.3664C168.313 16.436 168.004 16.5211 167.71 16.6062C167.625 16.6217 167.548 16.6526 167.455 16.6758C167.091 16.7841 166.736 16.9001 166.38 17.0239C165.746 17.2559 165.119 17.5034 164.493 17.7819C163.866 18.0758 163.24 18.3775 162.636 18.7332C147.863 27.1331 143.114 50.8089 152.009 71.5842C154.77 78.0272 158.521 83.4338 162.822 87.5873C163.479 88.2293 164.152 88.8326 164.841 89.4127C165.521 89.9928 166.225 90.5342 166.937 91.0679C167.633 91.5784 168.352 92.0657 169.079 92.5143C169.435 92.7386 169.806 92.9551 170.178 93.1717C171.268 93.7982 172.39 94.3551 173.511 94.8269C173.511 94.8269 173.511 94.8347 173.519 94.8347C174.261 95.1518 175.019 95.438 175.777 95.6855C179.219 96.8147 182.731 97.2402 186.157 96.8612C186.413 96.8457 186.652 96.8147 186.908 96.7683C187.318 96.7142 187.727 96.6446 188.137 96.5595C188.176 96.5595 188.207 96.5518 188.23 96.544C189.213 96.3507 190.179 96.0799 191.138 95.7474C192.415 95.2987 193.668 94.7341 194.882 94.038C209.663 85.6381 214.42 61.9701 205.494 41.187L205.51 41.1793ZM192.515 88.469C191.471 89.0646 190.404 89.5519 189.313 89.9309C189.05 90.0314 188.779 90.1088 188.516 90.1861C188.277 90.2635 188.029 90.3254 187.789 90.3872C186.343 90.7585 184.873 90.9596 183.404 90.9828C172.869 91.2148 161.816 82.9929 155.961 69.3412C148.366 51.6288 152.426 31.4568 165.019 24.2867C165.521 23.9928 166.032 23.7298 166.55 23.5055C167.099 23.2503 167.648 23.0183 168.213 22.8249C168.886 22.5851 169.559 22.3917 170.247 22.2371C170.263 22.2293 170.278 22.2293 170.309 22.2293C170.634 22.152 170.959 22.0901 171.291 22.036C171.578 21.9818 171.856 21.9354 172.142 21.9122C172.274 21.8967 172.405 21.8735 172.537 21.8658C172.753 21.8348 172.97 21.8194 173.186 21.8116C173.31 21.8039 173.442 21.7962 173.558 21.7884C180.031 21.4559 186.745 24.3564 192.345 29.7784C192.631 30.0568 192.917 30.3353 193.188 30.6214C196.506 34.0402 199.399 38.3638 201.565 43.4378C209.168 61.1502 205.115 81.3222 192.515 88.4768V88.469Z" fill="#455A64"/>
<path opacity="0.4" d="M184.935 90.2093C184.424 90.5032 183.906 90.7662 183.395 90.9905C172.861 91.2226 161.808 83.0006 155.953 69.3489C148.357 51.6365 152.418 31.4645 165.01 24.2945C165.513 24.0005 166.023 23.7376 166.542 23.5133C177.076 23.289 188.129 31.5109 193.977 45.1781C201.58 62.8905 197.527 83.0625 184.935 90.2171V90.2093Z" fill="white"/>
<g opacity="0.3">
<path d="M181.95 29.0901L152.783 58.5669C152.373 56.1382 152.156 53.725 152.133 51.3582L177.17 26.0581C178.802 26.878 180.411 27.8912 181.95 29.0901Z" fill="#EBEBEB"/>
<path d="M170.101 23.761L153.456 40.5839C155.367 33.4448 159.319 27.5355 165.019 24.2947C165.522 24.0008 166.033 23.7378 166.551 23.5135C167.727 23.4903 168.918 23.5676 170.109 23.7687L170.101 23.761Z" fill="#EBEBEB"/>
<path d="M185.214 31.9597L153.912 63.5945C153.618 62.5426 153.355 61.4906 153.139 60.4465L183.188 30.0879C183.876 30.6757 184.557 31.3022 185.222 31.9674L185.214 31.9597Z" fill="#EBEBEB"/>
<path d="M197.543 68.297C197.365 69.9368 197.087 71.5301 196.715 73.0771L179.32 90.6502C178.276 90.4723 177.224 90.2094 176.195 89.8613L197.543 68.2893V68.297Z" fill="#EBEBEB"/>
<path d="M197.149 55.8521L167.935 85.3753C165.065 83.1632 162.412 80.3246 160.107 76.9446L193.212 43.4844C193.475 44.0335 193.73 44.5982 193.978 45.1705C195.486 48.6743 196.53 52.271 197.141 55.8521H197.149Z" fill="#EBEBEB"/>
</g>
<path d="M197.148 161.036L208.866 158.274L199.902 120.22L188.184 122.981L197.148 161.036Z" fill="#263238"/>
<path d="M185.104 95.3608C183.921 98.2149 187.958 97.9751 187.958 97.9751C187.958 97.9751 182.235 99.7232 182.15 103.134C182.08 106.421 186.945 105.957 187.293 105.934C186.992 106.027 181.771 107.775 182.041 111.209C182.328 114.783 187.131 113.475 187.44 113.39C187.185 113.568 183.82 115.997 184.625 118.557C186.002 122.958 194.765 116.987 198.4 117.838C198.4 117.838 200.55 122.316 200.566 122.51C200.566 122.51 206.135 118.851 207.009 113.878C207.465 111.256 205.114 110.312 205.114 110.312C205.114 110.312 208.038 108.835 207.906 106.127C207.837 104.735 205.547 103.606 205.547 103.606C205.547 103.606 207.837 102.33 207.574 99.9243C207.372 98.0061 205.106 97.1707 205.106 97.1707C205.106 97.1707 206.738 94.9199 205.887 93.0327C204.186 89.2117 187.634 89.2736 185.097 95.3763L185.104 95.3608Z" fill="#D3766A"/>
<path d="M204.774 96.9774C204.828 96.9774 204.843 96.9078 204.789 96.8923C199.344 95.5851 192.955 95.8172 187.742 97.9674C187.572 98.037 187.611 98.3464 187.812 98.3077C193.605 97.1166 198.841 96.5288 204.774 96.9851V96.9774Z" fill="#263238"/>
<path d="M205.64 103.56C205.702 103.56 205.718 103.459 205.64 103.444C200.017 102.129 192.832 102.585 187.116 105.772C186.922 105.88 186.853 106.174 187.085 106.066C191.045 104.232 200.296 103.126 205.632 103.56H205.64Z" fill="#263238"/>
<path d="M187.132 113.738C192.731 110.9 198.679 110.134 204.898 110.235C204.975 110.235 204.975 110.118 204.898 110.103C201.866 109.229 197.898 109.577 194.828 110.111C191.888 110.621 189.344 111.673 187.023 113.545C186.93 113.615 187 113.8 187.124 113.738H187.132Z" fill="#263238"/>
<path d="M187.959 97.9751C186.891 98.4159 185.855 98.9419 184.896 99.5684C183.952 100.195 183.039 100.961 182.583 101.92C182.359 102.399 182.297 102.918 182.444 103.405C182.599 103.9 182.869 104.372 183.241 104.712C183.975 105.416 185.136 105.617 186.133 105.509L188.647 105.238L186.381 106.367C185.391 106.862 184.416 107.52 183.643 108.309C182.869 109.09 182.312 110.072 182.39 111.062C182.452 112.099 183.07 112.918 184.076 113.12C185.058 113.367 186.249 113.205 187.278 112.895L190.155 112.044L187.727 113.785C187.069 114.257 186.427 114.844 185.909 115.471C185.399 116.105 184.981 116.832 184.919 117.559C184.857 118.279 185.19 119.037 185.793 119.369C186.42 119.733 187.301 119.748 188.129 119.686C189.823 119.539 191.509 119.021 193.211 118.588C194.061 118.364 194.912 118.139 195.778 117.961C196.637 117.799 197.542 117.613 198.408 117.822C197.534 117.706 196.676 117.985 195.84 118.201C195.005 118.449 194.177 118.735 193.342 119.021C191.679 119.593 190.008 120.15 188.214 120.413C187.324 120.514 186.35 120.584 185.399 120.119C184.424 119.632 183.929 118.518 184.006 117.497C184.084 116.461 184.594 115.595 185.166 114.868C185.754 114.141 186.404 113.522 187.162 112.957L187.611 113.839C186.396 114.21 185.166 114.419 183.836 114.141C183.186 113.994 182.513 113.622 182.073 113.05C181.632 112.47 181.431 111.797 181.392 111.116C181.315 109.709 182.104 108.486 182.978 107.628C183.883 106.746 184.896 106.081 186.017 105.54L186.265 106.398C184.989 106.491 183.666 106.166 182.738 105.222C182.281 104.751 182.003 104.171 181.841 103.552C181.678 102.918 181.802 102.221 182.096 101.665C182.707 100.543 183.743 99.8701 184.749 99.29C185.77 98.7176 186.853 98.2845 187.966 97.9596L187.959 97.9751Z" fill="#263238"/>
<path d="M170.943 109.554C170.943 109.554 184.788 83.256 190.713 92.236C192.477 94.9044 196.514 107.961 193.908 108.819C190.543 109.933 187.836 104.797 186.652 101.309C186.652 101.309 183.412 109.152 177.27 108.525C173.426 108.131 170.943 109.562 170.943 109.562V109.554Z" fill="#D3766A"/>
<path d="M190.172 91.5167C191.023 92.4449 191.611 93.5896 192.152 94.7189C192.693 95.8559 193.127 97.047 193.513 98.2459C194.256 100.659 194.913 103.072 195.23 105.625C195.3 106.267 195.346 106.924 195.23 107.636C195.168 107.984 195.052 108.371 194.813 108.703C194.697 108.873 194.581 109.005 194.38 109.167C194.194 109.299 194.008 109.392 193.823 109.453C193.065 109.716 192.283 109.6 191.618 109.337C190.961 109.051 190.404 108.641 189.909 108.177C188.934 107.241 188.246 106.128 187.666 104.983C187.078 103.838 186.637 102.647 186.227 101.448L187.047 101.464C186.637 102.368 186.15 103.181 185.601 103.977C185.052 104.766 184.425 105.501 183.721 106.158C183.017 106.808 182.213 107.365 181.354 107.783C180.496 108.208 179.56 108.456 178.624 108.525C179.544 108.332 180.418 107.992 181.215 107.512C182.012 107.04 182.708 106.429 183.334 105.764C183.969 105.099 184.526 104.364 185.005 103.583C185.485 102.809 185.918 101.974 186.235 101.146L186.637 100.094L187.055 101.162C187.503 102.307 187.952 103.459 188.548 104.526C189.128 105.594 189.777 106.638 190.628 107.427C191.448 108.2 192.562 108.781 193.475 108.471C194.302 108.262 194.341 106.893 194.24 105.725C194.14 104.519 193.908 103.297 193.676 102.075C193.444 100.852 193.188 99.6381 192.879 98.4315C192.214 96.0492 191.549 93.6128 190.164 91.5167H190.172Z" fill="#263238"/>
<path d="M167.054 110.242L181.185 135.79C181.185 135.79 156.481 153.672 152.157 152.04C144.322 149.07 129.657 116.136 125.96 104.604C122.015 92.3287 125.441 86.2338 135.566 99.5064C143.78 110.273 153.549 121.318 153.905 121.341C154.261 121.365 167.054 110.25 167.054 110.25V110.242Z" fill="#0069B8"/>
<path opacity="0.4" d="M167.054 110.242L181.185 135.79C181.185 135.79 156.481 153.672 152.157 152.04C144.322 149.07 129.657 116.136 125.96 104.604C122.015 92.3287 125.441 86.2338 135.566 99.5064C143.78 110.273 153.549 121.318 153.905 121.341C154.261 121.365 167.054 110.25 167.054 110.25V110.242Z" fill="black"/>
<path d="M156.001 119.539C153.727 121.504 151.731 123.731 149.782 125.975C148.815 127.088 147.918 128.249 147.021 129.416C146.139 130.561 145.273 131.768 144.584 133.029C144.561 133.075 144.638 133.114 144.669 133.083C145.714 132.046 146.673 130.909 147.609 129.78C148.552 128.651 149.519 127.537 150.463 126.408C152.342 124.141 154.322 121.952 156.132 119.632C156.186 119.555 156.078 119.477 156.008 119.532L156.001 119.539Z" fill="#263238"/>
<path d="M162.954 116.105C163.813 117.397 164.571 118.766 165.36 120.104C166.141 121.442 166.914 122.795 167.672 124.149C169.181 126.864 170.673 129.587 172.128 132.332C172.53 133.083 172.924 133.833 173.311 134.591C173.721 135.403 174.038 136.269 174.456 137.074C174.487 137.136 174.394 137.19 174.355 137.128C173.976 136.47 173.497 135.859 173.102 135.21C172.692 134.529 172.298 133.848 171.903 133.16C171.137 131.806 170.372 130.453 169.614 129.099C168.105 126.384 166.605 123.662 165.182 120.9C164.377 119.338 163.527 117.791 162.815 116.182C162.776 116.09 162.9 116.02 162.954 116.105Z" fill="#263238"/>
<path opacity="0.1" d="M158.329 150.277C155.49 151.661 153.208 152.435 152.156 152.033C144.329 149.062 129.664 116.136 125.951 104.596C123.932 98.292 123.847 93.6203 125.619 92.3518L158.329 150.269V150.277Z" fill="black"/>
<path d="M123.956 89.6602C123.956 89.6602 124.884 81.6858 125.147 81.5311C125.41 81.3841 129.254 88.0591 137.244 97.3949C137.461 97.6501 131.729 100.017 131.729 100.017L123.964 89.6602H123.956Z" fill="#0069B8"/>
<g opacity="0.4">
<path d="M123.956 89.6602C123.956 89.6602 124.884 81.6858 125.147 81.5311C125.41 81.3841 129.254 88.0591 137.244 97.3949C137.461 97.6501 131.729 100.017 131.729 100.017L123.964 89.6602H123.956Z" fill="black"/>
</g>
<path d="M128.581 91.501C128.581 91.501 132.827 102.809 137.538 117.482C141.196 128.883 163.14 215.341 163.132 216.052C163.116 217.46 114.682 217.236 112.702 216.602C110.722 215.967 111.147 160.123 111.41 146.719C111.673 133.315 115.038 106.893 122.316 92.1817C123.847 89.0955 128.581 91.501 128.581 91.501Z" fill="#0069B8"/>
<g opacity="0.4">
<path d="M128.581 91.501C128.581 91.501 132.827 102.809 137.538 117.482C141.196 128.883 163.14 215.341 163.132 216.052C163.116 217.46 114.682 217.236 112.702 216.602C110.722 215.967 111.147 160.123 111.41 146.719C111.673 133.315 115.038 106.893 122.316 92.1817C123.847 89.0955 128.581 91.501 128.581 91.501Z" fill="black"/>
</g>
<path d="M183.807 346.382C181.835 347.024 124.103 346.413 121.976 345.028C121.156 344.518 125.588 289.779 125.588 289.779L161.717 290.081L158.36 326.705C158.36 326.705 179.77 336.559 181.943 338.33C184.101 340.093 185.772 345.755 183.807 346.389V346.382Z" fill="#D3766A"/>
<path d="M121.976 345.028C124.103 346.413 181.834 347.024 183.807 346.382C185.779 345.747 184.101 340.086 181.943 338.322C179.769 336.551 158.36 326.705 158.36 326.705L158.808 321.824H123.144C122.285 333.89 121.612 344.804 121.976 345.028Z" fill="#DBDBDB"/>
<path d="M185.06 345.848C183.018 346.521 124.188 346.451 121.976 345.028C121.125 344.502 122.448 324.609 122.448 324.609L158.522 324.91L158.507 325.552C158.507 325.552 180.806 335.669 183.072 337.494C185.323 339.312 187.094 345.19 185.052 345.856L185.06 345.848Z" fill="#263238"/>
<path d="M161.678 325.676C157.811 324.933 153.07 325.498 150.092 328.244C149.976 328.352 150.13 328.515 150.254 328.476C154.083 327.292 157.656 326.534 161.655 326.163C161.934 326.14 161.949 325.73 161.671 325.676H161.678Z" fill="#0069B8"/>
<path opacity="0.6" d="M161.678 325.676C157.811 324.933 153.07 325.498 150.092 328.244C149.976 328.352 150.13 328.515 150.254 328.476C154.083 327.292 157.656 326.534 161.655 326.163C161.934 326.14 161.949 325.73 161.671 325.676H161.678Z" fill="black"/>
<path d="M164.462 327.378C160.595 326.635 155.854 327.2 152.876 329.945C152.76 330.054 152.915 330.216 153.038 330.178C156.867 328.994 160.44 328.236 164.439 327.865C164.718 327.842 164.733 327.432 164.455 327.378H164.462Z" fill="#0069B8"/>
<path opacity="0.6" d="M164.462 327.378C160.595 326.635 155.854 327.2 152.876 329.945C152.76 330.054 152.915 330.216 153.038 330.178C156.867 328.994 160.44 328.236 164.439 327.865C164.718 327.842 164.733 327.432 164.455 327.378H164.462Z" fill="black"/>
<path d="M167.254 329.079C163.387 328.337 158.646 328.901 155.668 331.647C155.552 331.755 155.707 331.918 155.83 331.879C159.659 330.696 163.232 329.938 167.231 329.567C167.51 329.543 167.525 329.133 167.247 329.079H167.254Z" fill="#0069B8"/>
<path opacity="0.6" d="M167.254 329.079C163.387 328.337 158.646 328.901 155.668 331.647C155.552 331.755 155.707 331.918 155.83 331.879C159.659 330.696 163.232 329.938 167.231 329.567C167.51 329.543 167.525 329.133 167.247 329.079H167.254Z" fill="black"/>
<path d="M185.965 343.76C187.009 344.17 186.761 347.674 186.011 347.952C185.253 348.23 121.589 347.612 120.506 347.356C119.423 347.109 119.841 343.226 121.102 343.033C122.362 342.839 185.965 343.752 185.965 343.752V343.76Z" fill="#0069B8"/>
<path opacity="0.6" d="M185.965 343.76C187.009 344.17 186.761 347.674 186.011 347.952C185.253 348.23 121.589 347.612 120.506 347.356C119.423 347.109 119.841 343.226 121.102 343.033C122.362 342.839 185.965 343.752 185.965 343.752V343.76Z" fill="black"/>
<path d="M85.7392 147.779C85.7392 147.779 126.137 227.755 127.228 232.303C129.231 240.695 120.073 324.33 120.073 324.33L161.315 324.539C161.315 324.539 171.872 243.797 167.131 225.473C164.184 214.08 149.241 174.123 137.84 156.998C136.394 154.825 134.127 147.779 134.127 147.779H85.7314H85.7392Z" fill="#0069B8"/>
<path opacity="0.7" d="M85.7392 147.779C85.7392 147.779 126.137 227.755 127.228 232.303C129.231 240.695 120.073 324.33 120.073 324.33L161.315 324.539C161.315 324.539 171.872 243.797 167.131 225.473C164.184 214.08 149.241 174.123 137.84 156.998C136.394 154.825 134.127 147.779 134.127 147.779H85.7314H85.7392Z" fill="black"/>
<path d="M158.119 315.954C152.303 315.752 131.706 314.94 123.94 315.59C123.878 315.59 123.878 315.714 123.94 315.721C126.593 316.24 152.295 316.209 158.119 316.139C158.228 316.139 158.228 315.954 158.119 315.954Z" fill="#263238"/>
<path d="M128.171 311.057C129.479 291.651 131.157 267.883 132.17 248.577C132.379 242.552 132.975 236.433 132.518 230.424C129.943 223.114 126.168 216.184 122.896 209.13C119.864 202.873 116.77 196.639 113.692 190.404L95.1211 153.023C99.9707 162.258 109.554 180.821 114.249 190.126C118.944 199.446 123.592 208.797 128.086 218.218C129.888 222.209 131.969 226.069 133.253 230.284C133.717 236.402 133.083 242.505 132.859 248.615C131.691 269.46 129.989 290.267 128.171 311.057Z" fill="#263238"/>
<path opacity="0.2" d="M125.797 228.822C118.449 212.541 85.7471 147.779 85.7471 147.779H123.392L125.797 228.822Z" fill="black"/>
<path d="M81.8485 346.119C79.7833 346.32 23.5136 333.38 21.7346 331.578C21.4484 331.291 27.4041 311.916 27.4041 311.916L46.4469 280.591L79.4043 290.661L60.3847 319.976C60.3847 319.976 80.0076 335.661 81.7556 337.858C83.4882 340.039 83.9136 345.933 81.8485 346.126V346.119Z" fill="#D3766A"/>
<path d="M81.848 346.119C79.7906 346.32 23.5131 333.38 21.7342 331.57C21.4402 331.284 27.4037 311.908 27.4037 311.908L28.6025 309.572L62.0395 316.611L60.3843 319.952C60.3843 319.952 80.0072 335.646 81.7552 337.827C83.4878 340.008 83.9132 345.902 81.848 346.103V346.119Z" fill="#EBEBEB"/>
<path d="M83.1862 345.864C81.0437 346.088 23.5983 333.442 21.7342 331.578C21.0149 330.882 26.5684 311.73 26.5684 311.73L61.7457 319.736L61.591 320.355C61.591 320.355 81.2061 335.004 83.0392 337.27C84.8491 339.529 85.3287 345.647 83.1862 345.864Z" fill="#263238"/>
<path d="M64.6546 321.159C61.0348 319.604 56.278 319.148 52.7897 321.19C52.6504 321.267 52.7665 321.461 52.8979 321.453C56.889 321.112 60.5398 321.143 64.5309 321.631C64.8093 321.662 64.9099 321.267 64.6546 321.159Z" fill="#0069B8"/>
<path opacity="0.6" d="M64.6546 321.159C61.0348 319.604 56.278 319.148 52.7897 321.19C52.6504 321.267 52.7665 321.461 52.8979 321.453C56.889 321.112 60.5398 321.143 64.5309 321.631C64.8093 321.662 64.9099 321.267 64.6546 321.159Z" fill="black"/>
<path d="M67.014 323.417C63.3942 321.863 58.6374 321.406 55.149 323.448C55.0098 323.526 55.1258 323.719 55.2573 323.703C59.2484 323.363 62.8992 323.394 66.8903 323.881C67.1687 323.92 67.2693 323.518 67.014 323.41V323.417Z" fill="#0069B8"/>
<path opacity="0.6" d="M67.014 323.417C63.3942 321.863 58.6374 321.406 55.149 323.448C55.0098 323.526 55.1258 323.719 55.2573 323.703C59.2484 323.363 62.8992 323.394 66.8903 323.881C67.1687 323.92 67.2693 323.518 67.014 323.41V323.417Z" fill="black"/>
<path d="M69.3734 325.676C65.7536 324.121 60.9968 323.665 57.5084 325.707C57.3692 325.784 57.4852 325.978 57.6167 325.962C61.6078 325.622 65.2586 325.653 69.2496 326.14C69.5281 326.179 69.6286 325.776 69.3734 325.668V325.676Z" fill="#0069B8"/>
<path opacity="0.6" d="M69.3734 325.676C65.7536 324.121 60.9968 323.665 57.5084 325.707C57.3692 325.784 57.4852 325.978 57.6167 325.962C61.6078 325.622 65.2586 325.653 69.2496 326.14C69.5281 326.179 69.6286 325.776 69.3734 325.668V325.676Z" fill="black"/>
<path d="M84.5089 344.015C85.437 344.634 84.4547 348.014 83.6503 348.122C82.8536 348.23 20.7906 334.014 19.7929 333.542C18.7874 333.07 20.0326 329.366 21.3011 329.451C22.5696 329.528 84.5089 344.023 84.5089 344.023V344.015Z" fill="#0069B8"/>
<path opacity="0.6" d="M84.5089 344.015C85.437 344.634 84.4547 348.014 83.6503 348.122C82.8536 348.23 20.7906 334.014 19.7929 333.542C18.7874 333.07 20.0326 329.366 21.3011 329.451C22.5696 329.528 84.5089 344.023 84.5089 344.023V344.015Z" fill="black"/>
<path d="M65.1411 319.821L25.5938 310.864C25.5938 310.864 69.5576 242.946 70.4394 237.423C71.12 233.146 82.4436 185.787 80.3629 177.766C79.2569 173.52 85.1507 156.782 88.144 147.771H134.134C134.134 147.771 131.621 174.409 126.802 180.171L119.531 184.163C119.531 184.163 109.817 224.63 107.72 239.759C105.601 255.028 65.1411 319.805 65.1411 319.805V319.821Z" fill="#0069B8"/>
<path opacity="0.7" d="M65.1411 319.821L25.5938 310.864C25.5938 310.864 69.5576 242.946 70.4394 237.423C71.12 233.146 82.4436 185.787 80.3629 177.766C79.2569 173.52 85.1507 156.782 88.144 147.771H134.134C134.134 147.771 131.621 174.409 126.802 180.171L119.531 184.163C119.531 184.163 109.817 224.63 107.72 239.759C105.601 255.028 65.1411 319.805 65.1411 319.805V319.821Z" fill="black"/>
<path d="M66.7037 311.351C60.8718 309.82 62.5657 310.168 56.7183 308.706C53.8565 307.987 35.038 303.3 32.238 303.137C32.1762 303.137 32.153 303.238 32.2071 303.269C34.775 304.39 53.6786 308.722 56.5559 309.379C62.4342 310.725 60.7635 310.269 66.6573 311.537C66.7656 311.56 66.812 311.382 66.7037 311.351Z" fill="#263238"/>
<path d="M92.9405 164.942C93.7217 164.71 94.9205 164.841 98.3393 164.168C99.2829 163.983 100.211 163.681 101.116 163.348C102.021 163.024 102.934 162.66 103.614 161.948C104.751 160.75 105.509 158.963 106.097 157.439C106.747 155.768 107.373 153.866 107.559 152.071C107.567 151.963 107.729 151.994 107.729 152.102C107.675 153.131 107.698 154.152 107.559 155.188C107.427 156.155 107.18 157.114 106.894 158.05C106.368 159.798 105.726 161.678 104.38 162.985C102.972 164.354 100.83 164.841 98.958 165.212C97.8752 165.429 93.5824 165.847 92.9327 165.305C92.8167 165.212 92.7935 164.973 92.9405 164.926V164.942Z" fill="#263238"/>
<path d="M92.1427 150.153C90.5803 156.774 89.0489 163.41 87.8577 170.101C87.1616 173.458 87.2622 176.876 86.7362 180.233C86.2876 183.613 85.7771 186.978 85.2666 190.343C82.7297 206.307 80.1153 222.271 76.9673 238.127C76.8049 238.963 76.5265 239.86 76.1397 240.618C74.6237 243.712 72.8447 246.605 71.0967 249.528C64.0118 261.161 56.4859 272.5 48.9601 283.847L37.5205 300.755L48.6352 283.63C56.0296 272.214 63.4239 260.782 70.4857 249.157C72.2182 246.241 73.9895 243.317 75.4668 240.293C75.8458 239.527 76.0701 238.8 76.2325 237.957C79.9606 218.775 83.2866 199.469 86.2721 180.164C86.4887 178.485 86.7826 176.791 86.8058 175.121C87.6953 166.636 90.1781 158.422 92.1505 150.153H92.1427Z" fill="#263238"/>
<path d="M128.357 179.29C124.288 180.69 120.359 182.677 116.608 184.766C116.461 184.851 116.561 185.075 116.716 185.006C120.676 183.304 124.714 181.68 128.573 179.761C128.875 179.615 128.674 179.181 128.357 179.29Z" fill="#263238"/>
<path d="M129.617 152.133C129.609 151.994 129.37 151.963 129.37 152.11C129.4 156.813 129.099 160.943 128.704 165.336C128.519 167.378 126.879 178.64 123.344 177.82C122.749 177.681 122.447 177.101 122.354 176.211C122.246 175.136 122.648 173.821 122.826 172.754C123.22 170.395 123.53 168.028 123.739 165.646C124.118 161.198 124.133 156.751 123.592 152.319C123.576 152.172 123.367 152.187 123.367 152.334C123.367 158.491 123.213 164.64 122.292 170.735C121.851 173.667 120.374 178.075 123.437 178.532C126.562 178.988 128.581 171.601 128.96 169.575C130.019 163.936 130.066 157.841 129.617 152.133Z" fill="#263238"/>
<path d="M123.437 178.122C123.12 178.88 122.857 179.669 122.64 180.458C122.47 181.069 122.238 181.734 122.308 182.376C122.323 182.499 122.485 182.515 122.555 182.43C122.973 181.904 123.143 181.185 123.375 180.558C123.646 179.839 123.932 179.119 124.179 178.392C124.342 177.905 123.63 177.658 123.437 178.122Z" fill="#263238"/>
<path d="M84.8104 158.522L136.463 154.554C136.579 154.438 137.522 149.388 137.313 147.508C136.818 143.076 133.755 139.634 133.005 133.121C131.334 118.642 130.94 101.324 128.032 92.0813C126.825 88.2527 117.11 85.9555 112.354 90.1167C89.2733 110.312 85.8236 142.326 83.6347 153.657C83.0701 156.588 84.7253 158.406 84.8104 158.53V158.522Z" fill="#0069B8"/>
<g opacity="0.7">
<path d="M84.8104 158.522L136.463 154.554C136.579 154.438 137.522 149.388 137.313 147.508C136.818 143.076 133.755 139.634 133.005 133.121C131.334 118.642 130.94 101.324 128.032 92.0813C126.825 88.2527 117.11 85.9555 112.354 90.1167C89.2733 110.312 85.8236 142.326 83.6347 153.657C83.0701 156.588 84.7253 158.406 84.8104 158.53V158.522Z" fill="white"/>
</g>
<path d="M115.317 88.1676C115.317 88.1676 113.816 119.191 114.458 124.01C116.113 136.432 128.249 225.187 128.04 225.876C127.623 227.222 74.6401 217.128 72.923 215.96C71.2059 214.792 80.1703 154.137 84.2156 141.359C88.2608 128.574 96.0651 103.505 110.622 90.6659C113.205 88.3842 115.317 88.1676 115.317 88.1676Z" fill="#0069B8"/>
<g opacity="0.3">
<path d="M115.317 88.1676C115.317 88.1676 113.816 119.191 114.458 124.01C116.113 136.432 128.249 225.187 128.04 225.876C127.623 227.222 74.6401 217.128 72.923 215.96C71.2059 214.792 80.1703 154.137 84.2156 141.359C88.2608 128.574 96.0651 103.505 110.622 90.6659C113.205 88.3842 115.317 88.1676 115.317 88.1676Z" fill="black"/>
</g>
<path opacity="0.1" d="M107.56 162.973L88.9248 177.236L91.9476 181.185L110.583 166.922L107.56 162.973Z" fill="black"/>
<path d="M105.037 92.4601C91.3926 98.9031 69.4107 113.738 67.0594 118.588C64.9787 122.881 67.4152 144.197 70.424 152.102C71.5455 155.065 93.9064 145.241 92.6457 142.101C91.1297 138.334 86.7054 124.582 87.2391 123.654C87.827 122.633 103.892 109.306 111.325 99.9241C118.062 91.4159 110.203 90.0237 105.044 92.4601H105.037Z" fill="#D3766A"/>
<path d="M93.9521 145.156C100.217 149.093 101.223 151.058 108.277 151.576C112.902 151.909 114.673 155.01 110.257 156.936C103.025 160.092 93.8748 156.72 91.0361 154.631L93.9521 145.156Z" fill="#D3766A"/>
<path opacity="0.1" d="M93.9521 145.156C100.217 149.093 101.223 151.058 108.277 151.576C112.902 151.909 114.673 155.01 110.257 156.936C103.025 160.092 93.8748 156.72 91.0361 154.631L93.9521 145.156Z" fill="black"/>
<path d="M92.6378 142.109C96.1648 144.314 105.833 152.311 106.993 168.624C107.272 172.491 104.92 178.199 102.175 172.05C100.226 167.68 100.311 164.315 98.7095 161.979C98.7095 161.979 94.8576 168.887 90.9671 169.01C89.2268 169.064 84.4855 169.111 80.7883 168.616C80.7883 168.616 80.68 167.781 80.6955 166.705C80.6955 166.705 71.236 161.747 70.4238 152.118L92.6455 142.117L92.6378 142.109Z" fill="#D3766A"/>
<path d="M95.1589 146.441C96.2572 149.094 98.4848 154.763 98.6937 160.03C98.9257 165.886 97.7964 177.217 93.4805 177.348C90.3093 177.441 90.3634 173.079 90.3634 173.079C90.3634 173.079 88.9093 177.665 86.032 177.124C83.41 176.629 83.6497 173.257 83.6497 173.257C83.6497 173.257 82.2884 175.886 79.852 174.927C76.9206 173.767 80.2542 168.446 78.2973 164.71C77.8565 163.867 95.1744 146.456 95.1744 146.456L95.1589 146.441Z" fill="#D3766A"/>
<path d="M92.468 159.249C93.0868 161.918 92.9475 168.33 90.4647 173.017C90.4106 173.125 90.2945 173.141 90.3255 173.032C91.9652 167.293 92.3829 161.662 92.4138 159.257C92.4138 159.226 92.4602 159.226 92.468 159.257V159.249Z" fill="#263238"/>
<path d="M86.5655 159.651C86.8671 162.003 86.4185 168.616 83.7423 173.272C83.6804 173.373 83.5722 173.38 83.6031 173.272C85.56 167.347 86.3334 162.041 86.5113 159.644C86.5113 159.613 86.5655 159.613 86.5655 159.644V159.651Z" fill="#263238"/>
<path d="M66.0081 150.872L92.6618 139.1L88.0674 123.971C94.1391 117.141 109.446 103.598 112.934 98.2456C117.026 91.9651 112.246 88.7939 105.223 91.8027C89.158 98.6788 67.2147 115.115 65.3352 119.06C62.6358 124.706 66.0081 150.872 66.0081 150.872Z" fill="#0069B8"/>
<path opacity="0.3" d="M66.0081 150.872L92.6618 139.1L88.0674 123.971C94.1391 117.141 109.446 103.598 112.934 98.2456C117.026 91.9651 112.246 88.7939 105.223 91.8027C89.158 98.6788 67.2147 115.115 65.3352 119.06C62.6358 124.706 66.0081 150.872 66.0081 150.872Z" fill="black"/>
<path d="M67.2145 143.664C68.7228 142.681 83.7822 135.798 87.665 134.885C87.7655 134.862 87.8429 134.97 87.7501 135.009C86.0252 135.767 69.0399 143.316 67.2609 143.741C67.1991 143.756 67.1681 143.687 67.2223 143.656L67.2145 143.664Z" fill="#263238"/>
<path d="M110.073 101.85C103.668 109.082 95.0985 116.786 88.5472 123.91C88.5317 123.933 88.4312 124.056 88.4234 124.08C88.4002 124.142 88.4544 123.979 88.4389 123.995C89.6919 129.061 91.3703 134.026 92.693 139.085L92.7007 139.124H92.6698L91.9736 139.34L92.6466 139.062L92.6234 139.108C90.8444 134.112 88.9339 129.13 87.6964 123.971C87.6809 123.933 87.7583 123.708 87.7737 123.716C88.114 123.198 88.5627 122.757 88.9649 122.316C95.7095 115.301 103.143 108.664 110.081 101.85H110.073Z" fill="#263238"/>
<path d="M110.089 102.608C109.509 103.374 108.712 104.039 107.753 104.232C108.465 103.567 109.168 102.972 110.089 102.608Z" fill="#263238"/>
<path d="M122.448 99.7384C119.903 99.5683 115.177 94.2545 113.576 90.0391C113.468 89.753 114.272 86.9762 115.084 83.5575C115.572 81.4846 116.067 79.1565 116.361 77.0062L129.401 82.142C129.401 82.142 127.452 86.4735 126.957 90.2248C126.919 90.5419 126.911 90.8358 126.926 91.122C126.926 91.1607 126.926 91.2148 126.926 91.269C126.965 92.9861 126.424 99.9937 122.44 99.7307L122.448 99.7384Z" fill="#D3766A"/>
<path d="M115.224 82.9697C117.389 87.4171 121.025 91.9728 126.926 92.143C126.942 91.7795 126.949 91.4933 126.942 91.2845C126.942 91.2303 126.934 91.1762 126.942 91.1375C126.918 90.8513 126.926 90.5497 126.973 90.2403C127.468 86.4812 129.409 82.1575 129.409 82.1575L116.368 77.0217C116.105 78.9631 115.672 81.0592 115.231 82.9697H115.224Z" fill="#263238"/>
<path d="M127.096 89.5288L123.955 97.4181L114.132 87.4868L111.371 90.6967C111.371 90.6967 120.993 106.499 121.055 105.787L124.28 98.9883L128.983 103.699L128.565 91.8414L127.096 89.5442V89.5288Z" fill="#0069B8"/>
<path opacity="0.7" d="M127.096 89.5288L123.955 97.4181L114.132 87.4868L111.371 90.6967C111.371 90.6967 120.993 106.499 121.055 105.787L124.28 98.9883L128.983 103.699L128.565 91.8414L127.096 89.5442V89.5288Z" fill="white"/>
<path d="M129.115 97.8126C128.983 95.8557 128.898 93.8834 128.674 91.9343C128.666 91.8646 128.558 91.8337 128.542 91.9188C128.155 93.806 128.712 101.285 128.712 103.08C128.712 103.08 128.697 103.064 128.689 103.057C128.496 102.856 124.335 98.9109 124.288 98.9805C123.584 100.063 121.217 105.014 121.063 105.462C119.539 102.948 113.707 93.8292 111.905 91.4547C111.851 91.3851 111.75 91.4392 111.789 91.5243C113.135 94.1773 120.854 106.468 120.97 106.429C121.047 106.491 123.994 100.388 124.342 99.2435C125.046 100.102 129.246 104.549 129.262 104.256C129.354 102.291 129.246 99.7772 129.115 97.8203V97.8126Z" fill="#263238"/>
<path d="M108.038 67.5545C108.023 72.6671 114.589 85.4448 118.828 87.4558C124.977 90.3718 133.006 88.3994 134.97 81.4692C136.873 74.7555 128.025 58.2574 123.477 56.6409C116.778 54.2586 108.061 60.0055 108.038 67.5545Z" fill="#D3766A"/>
<path opacity="0.3" d="M134.971 81.4692C133.014 88.3917 124.977 90.364 118.828 87.4481C117.111 86.6359 115.007 84.0448 113.12 80.92L114.389 74.6704C114.389 74.6704 117.003 78.3289 119.903 79.4117C123.902 80.9123 128.504 78.1278 129.131 74.9256L130.941 74.3997C130.941 74.3997 133.3 75.1654 133.756 72.1334C135.017 75.73 135.62 79.1642 134.971 81.4614V81.4692Z" fill="#263238"/>
<path d="M112.346 79.0097C114.473 78.739 114.852 76.6661 114.844 75.2661C114.828 73.8738 111.371 66.8044 111.541 64.6309C111.719 62.4575 113.281 60.6398 115.045 60.4387C116.808 60.2454 120.421 60.8719 121.534 60.2763C122.648 59.6807 121.148 57.6388 121.96 57.2985C123.731 56.5482 127.444 60.1371 128.581 61.947C128.581 61.947 125.278 53.2687 115.741 56.6101C107.225 59.5956 107.442 65.969 107.774 68.7767C108.401 74.1446 112.346 79.0019 112.346 79.0019V79.0097Z" fill="#263238"/>
<path d="M114.937 77.1688C114.937 77.1688 110.49 73.8119 108.866 75.529C107.241 77.2538 111.573 82.8151 114.172 82.9233C116.763 83.0316 116.917 80.6339 116.917 80.6339L114.937 77.1688Z" fill="#D3766A"/>
<path d="M110.149 77.0914C110.149 77.0914 110.118 77.1533 110.157 77.1611C111.99 77.2925 113.336 78.5224 114.442 79.8837C113.762 79.4428 113.004 79.3268 112.385 80.1621C112.354 80.2085 112.416 80.2627 112.454 80.2317C113.073 79.8759 113.591 79.8295 114.21 80.224C114.651 80.4947 115.022 80.9046 115.394 81.2682C115.517 81.3919 115.757 81.2295 115.641 81.0748C115.633 81.0671 115.626 81.0516 115.618 81.0439C114.984 78.9632 112.439 76.5887 110.149 77.0992V77.0914Z" fill="#263238"/>
<path d="M124.063 71.9943C124.063 71.9943 124.017 72.0716 124.032 72.1025C124.497 72.9534 124.883 74.0053 124.249 74.6859C124.226 74.7091 124.249 74.7478 124.28 74.7323C125.162 74.1136 124.636 72.7291 124.056 71.9943H124.063Z" fill="#263238"/>
<path d="M122.834 71.4838C121.395 72.0794 122.695 74.918 124.033 74.3689C125.348 73.8197 124.041 70.9811 122.834 71.4838Z" fill="#263238"/>
<path d="M128.921 69.8131C128.921 69.8131 129.006 69.8208 129.021 69.8595C129.4 70.749 129.981 71.7081 130.909 71.6385C130.94 71.6385 130.955 71.6849 130.924 71.6926C129.888 72.002 129.13 70.7181 128.921 69.8131Z" fill="#263238"/>
<path d="M129.277 68.5368C130.638 67.7788 132.054 70.5633 130.793 71.2672C129.548 71.9555 128.132 69.1711 129.277 68.5368Z" fill="#263238"/>
<path d="M121.048 70.6949C121.45 70.5248 121.798 70.3004 122.185 70.0993C122.618 69.8673 122.989 69.7204 123.221 69.264C123.352 69.0165 123.221 68.6375 122.997 68.4905C122.471 68.1502 121.875 68.3049 121.341 68.5679C120.761 68.8541 120.39 69.2176 120.119 69.7977C119.856 70.3623 120.514 70.9192 121.048 70.6949Z" fill="#263238"/>
<path d="M130.059 66.9589C129.788 67.307 129.487 67.5777 129.185 67.8948C128.845 68.2506 128.613 68.5677 128.11 68.6838C127.839 68.7456 127.499 68.5213 127.422 68.2661C127.228 67.6705 127.538 67.1291 127.924 66.6882C128.35 66.2009 128.798 65.938 129.433 65.8374C130.044 65.7369 130.407 66.5103 130.059 66.9667V66.9589Z" fill="#263238"/>
<path d="M126.547 80.5642C126.848 80.6725 127.189 80.8581 127.521 80.7421C127.838 80.626 128.132 80.3244 128.364 80.0846C128.387 80.0614 128.426 80.0846 128.426 80.1156C128.357 80.5564 127.97 80.9896 127.529 81.1056C127.096 81.2216 126.748 80.9664 126.477 80.6415C126.438 80.5951 126.5 80.5487 126.547 80.5642Z" fill="#263238"/>
<path d="M127.05 78.6462C128.024 78.4683 130.507 77.192 130.569 77.1456C130.662 77.0837 130.685 76.9755 130.654 76.8672L129.726 75.0109C130.027 75.0186 131.551 75.0031 131.365 74.6551C129.834 71.8164 128.125 68.653 125.998 66.1469C125.928 66.0618 125.797 66.1469 125.851 66.2475C127.22 69.0397 129.068 71.5689 130.484 74.3457C130.012 74.3766 129.223 74.3998 128.875 74.57C128.79 74.6396 130.074 76.813 130.081 76.8285C129.014 77.4318 128.643 77.571 127.019 78.4064C126.725 78.5533 126.748 78.6926 127.065 78.6384L127.05 78.6462Z" fill="#263238"/>
<path d="M131.753 63.1999C131.753 63.1999 129.517 57.5846 127.421 55.6045C125.333 53.6244 121.868 51.0797 119.509 51.2653C118.434 51.3504 114.682 55.2719 114.125 55.4111C112.617 55.7901 109.106 55.4962 108.092 56.3702C105.857 58.2884 106.669 67.9103 106.669 67.9103C106.669 67.9103 116.252 65.7988 120.267 64.8861C124.281 63.9734 131.753 63.2077 131.753 63.2077V63.1999Z" fill="#0069B8"/>
<path opacity="0.3" d="M131.753 63.1999C131.753 63.1999 129.517 57.5846 127.421 55.6045C125.333 53.6244 121.868 51.0797 119.509 51.2653C118.434 51.3504 114.682 55.2719 114.125 55.4111C112.617 55.7901 109.106 55.4962 108.092 56.3702C105.857 58.2884 106.669 67.9103 106.669 67.9103C106.669 67.9103 116.252 65.7988 120.267 64.8861C124.281 63.9734 131.753 63.2077 131.753 63.2077V63.1999Z" fill="black"/>
<path d="M131.753 63.1999C131.753 63.1999 124.281 63.9656 120.259 64.886C116.253 65.7987 106.67 67.9025 106.67 67.9025C106.67 67.9025 106.585 66.9125 106.546 65.4971C108.24 64.9943 114.83 63.0761 118.844 62.4032C120.306 62.1557 128.319 61.1966 130.748 60.9104C131.359 62.1944 131.753 63.1921 131.753 63.1921V63.1999Z" fill="#263238"/>
<path d="M102.415 72.087C102.415 72.087 117.018 67.6396 121.914 67.0053C126.81 66.3711 137.136 65.3888 137.136 65.3888L131.745 63.1921C131.745 63.1921 124.76 63.8805 121.93 64.275C119.106 64.6695 106.661 67.8948 106.661 67.8948L102.407 72.0793L102.415 72.087Z" fill="#0069B8"/>
<path opacity="0.3" d="M102.415 72.087C102.415 72.087 117.018 67.6396 121.914 67.0053C126.81 66.3711 137.136 65.3888 137.136 65.3888L131.745 63.1921C131.745 63.1921 124.76 63.8805 121.93 64.275C119.106 64.6695 106.661 67.8948 106.661 67.8948L102.407 72.0793L102.415 72.087Z" fill="black"/>
<path d="M121.828 104.078L124.272 99.0887L128.016 102.716L127.382 106.591L123.932 107.249L121.828 104.078Z" fill="#263238"/>
<path d="M123.933 107.249C123.933 107.249 124.799 132.008 133.686 141.993C142.442 151.824 156.372 149.96 156.372 149.96L167.989 144.654L158.538 137.731C158.538 137.731 148.011 137.615 141.367 132.379C134.846 127.243 127.382 106.591 127.382 106.591L123.933 107.241V107.249Z" fill="#263238"/>
<path d="M108.34 90.6502C108.34 90.6502 112.509 81.7631 112.903 81.5929C113.29 81.4305 115.572 88.8867 122.053 99.3363C122.231 99.6224 114.156 102.237 114.156 102.237L108.348 90.6502H108.34Z" fill="#0069B8"/>
<g opacity="0.3">
<path d="M108.34 90.6502C108.34 90.6502 112.509 81.7631 112.903 81.5929C113.29 81.4305 115.572 88.8867 122.053 99.3363C122.231 99.6224 114.156 102.237 114.156 102.237L108.348 90.6502H108.34Z" fill="black"/>
</g>
</svg>
