<svg width="387" height="215" viewBox="0 0 387 215" fill="none" xmlns="http://www.w3.org/2000/svg">
<path d="M377.446 113.471C366.627 99.6651 346.223 97.4021 335.688 81.2738C322.312 60.7956 335.59 41.7081 318.928 26.9633C304.682 14.3558 278.784 15.3984 262.203 24.4981C253.402 29.6046 245.071 36.7965 234.914 37.393C208.688 38.258 193.892 6.88945 169.169 2.04574C140.072 -3.6558 117.071 8.5329 105.864 41.5117C101.692 53.79 97.3119 56.6017 93.7405 60.9429C86.2237 70.0772 71.2622 71.6918 68.0489 83.0746C64.9296 102.756 70.491 119.232 48.3058 130.548C42.1884 133.365 35.3358 134.152 29.0119 136.472C14.2684 141.885 2.86392 156.191 1.7447 171.856C-0.27568 200.18 19.1641 209.359 46.4227 211.717L344.218 211.522C376.292 189.256 397.811 139.466 377.444 113.471H377.446Z" fill="#E6F6FF"/>
<path d="M353.392 211.509C356.573 196.138 356.92 179.814 351.59 165.049C346.259 150.284 334.65 137.307 319.593 132.868C313.262 131.002 306.133 130.463 301.223 126.051C294.749 120.234 294.799 110.307 294.63 101.605C294.264 82.5821 290.483 57.7787 281.029 41.2661C271.576 24.7551 259.207 13.7708 239.449 10.3019C220.71 7.01213 198.081 11.6334 185.087 25.5306C180.321 30.6285 173.216 44.8087 167.199 48.3425C159.336 52.9624 142.327 57.6574 125.114 53.9459C92.2951 46.868 60.9236 57.6328 42.1625 84.6155C17.5743 119.977 23.7726 174.447 46.4199 211.716L353.39 211.509H353.392Z" fill="#E6F6FF"/>
<path d="M122.759 206.495C121.931 204.18 121.032 201.891 120.058 199.634C119.447 198.217 118.796 196.789 117.787 195.622C116.761 194.437 115.417 193.576 114.064 192.783C110.407 190.643 106.532 188.872 102.521 187.51C104.079 188.752 105.415 190.273 106.447 191.979C108.177 194.837 109.019 198.126 110.016 201.317C111.014 204.505 112.245 207.737 114.558 210.149C116.87 212.561 120.512 213.975 123.643 212.805L122.758 206.495H122.759Z" fill="#C7EBFF"/>
<path d="M151.98 185.737C148.08 184.544 143.813 185.636 140.177 187.481C138.971 188.094 137.797 188.794 136.813 189.723C135.571 190.894 134.68 192.384 133.894 193.899C131.296 198.918 129.852 207.627 130.647 213.222H137.761C140.242 211.906 141.673 208.244 142.138 205.474C142.721 201.997 141.286 198.411 141.898 194.939C142.736 190.192 147.285 186.837 151.978 185.737H151.98Z" fill="#9EBCF2"/>
<path d="M149.778 195.429C146.406 196.058 143.114 197.615 140.924 200.253C139.83 201.571 139.043 203.109 138.265 204.632C137.102 206.911 135.938 210.943 134.774 213.222H144.975C146.744 213.039 148.38 211.873 149.129 210.26C150.305 207.733 149.297 204.7 149.994 202.002C150.529 199.936 152.058 198.213 153.905 197.141C155.752 196.07 157.895 195.6 160.026 195.453C156.622 195.024 153.15 194.799 149.778 195.429Z" fill="#C7EBFF"/>
<path d="M126.574 195.29C124.263 189.353 120.033 183.825 114.064 181.599C116.007 182.964 117.037 184.475 117.53 186.53C118.372 190.041 118.793 193.651 118.78 197.261C118.772 199.276 117.893 202.895 118.215 204.884C118.817 208.592 121.109 210.721 122.737 213.222H127.983C131.225 207.94 128.822 201.067 126.575 195.29H126.574Z" fill="#9EBCF2"/>
<path d="M132.292 205.675C132.382 204.214 132.694 202.749 132.955 201.309C133.979 195.703 136.72 190.563 136.391 184.875C136.275 182.888 136.171 180.934 135.575 179.035C134.534 175.716 133.777 172.158 131.957 169.11C132.622 171.658 133.179 173.979 132.473 176.373C131.767 178.767 130.455 180.928 129.232 183.104C127.314 186.517 125.706 190.116 124.796 193.922C122.93 201.724 125.239 208.059 126.013 213.221H132.625C132.109 210.436 132.136 208.243 132.294 205.672L132.292 205.675Z" fill="#C7EBFF"/>
<path d="M344.325 205.906C343.498 203.591 342.597 201.302 341.625 199.045C341.014 197.628 340.363 196.2 339.353 195.033C338.328 193.847 336.983 192.987 335.63 192.194C331.973 190.054 328.099 188.283 324.087 186.921C325.645 188.163 326.981 189.684 328.014 191.389C329.744 194.247 330.586 197.537 331.582 200.727C332.58 203.916 333.812 207.148 336.124 209.56C338.436 211.972 342.078 213.385 345.209 212.216L344.324 205.906H344.325Z" fill="#C7EBFF"/>
<path d="M373.546 185.148C369.647 183.955 365.379 185.047 361.743 186.892C360.537 187.505 359.363 188.205 358.38 189.134C357.139 190.305 356.247 191.795 355.461 193.31C352.863 198.329 351.419 207.038 352.213 212.633H359.327C361.808 211.317 363.239 207.655 363.704 204.885C364.288 201.408 362.852 197.822 363.464 194.35C364.302 189.603 368.851 186.248 373.545 185.148H373.546Z" fill="#9EBCF2"/>
<path d="M371.345 194.839C367.973 195.469 364.682 197.026 362.491 199.664C361.398 200.981 360.611 202.519 359.832 204.043C358.67 206.322 357.506 210.354 356.342 212.633H366.542C368.311 212.45 369.947 211.284 370.697 209.671C371.872 207.144 370.864 204.111 371.562 201.413C372.096 199.347 373.625 197.624 375.473 196.552C377.32 195.481 379.463 195.011 381.593 194.864C378.189 194.435 374.717 194.21 371.345 194.839Z" fill="#C7EBFF"/>
<path d="M348.14 194.701C345.829 188.764 341.6 183.236 335.631 181.01C337.573 182.375 338.603 183.885 339.097 185.94C339.939 189.451 340.359 193.062 340.346 196.672C340.339 198.687 339.459 202.306 339.781 204.294C340.384 208.003 342.675 210.132 344.303 212.633H349.55C352.792 207.35 350.389 200.477 348.142 194.701H348.14Z" fill="#9EBCF2"/>
<path d="M353.86 205.084C353.95 203.623 354.262 202.159 354.523 200.719C355.547 195.113 358.288 189.973 357.959 184.284C357.843 182.297 357.739 180.343 357.143 178.444C356.102 175.125 355.345 171.567 353.525 168.52C354.19 171.067 354.747 173.388 354.041 175.782C353.335 178.177 352.023 180.337 350.8 182.514C348.882 185.926 347.274 189.525 346.362 193.332C344.496 201.133 346.806 207.469 347.58 212.63H354.191C353.675 209.846 353.703 207.652 353.86 205.082V205.084Z" fill="#C7EBFF"/>
<path d="M305.892 177.099H298.581C298.005 177.099 297.537 176.632 297.537 176.055C297.537 175.479 298.005 175.011 298.581 175.011H304.847V168.745C304.847 168.169 305.315 167.701 305.892 167.701C306.468 167.701 306.936 168.169 306.936 168.745V176.055C306.936 176.632 306.468 177.099 305.892 177.099Z" fill="#0069B8"/>
<path d="M284.206 177.099H269.831C269.255 177.099 268.787 176.631 268.787 176.055C268.787 175.479 269.255 175.011 269.831 175.011H284.206C284.783 175.011 285.25 175.479 285.25 176.055C285.25 176.631 284.783 177.099 284.206 177.099ZM255.457 177.099H241.082C240.506 177.099 240.038 176.631 240.038 176.055C240.038 175.479 240.506 175.011 241.082 175.011H255.457C256.034 175.011 256.502 175.479 256.502 176.055C256.502 176.631 256.034 177.099 255.457 177.099ZM226.709 177.099H212.333C211.757 177.099 211.289 176.631 211.289 176.055C211.289 175.479 211.757 175.011 212.333 175.011H226.709C227.285 175.011 227.753 175.479 227.753 176.055C227.753 176.631 227.285 177.099 226.709 177.099ZM197.958 177.099H183.583C183.007 177.099 182.539 176.631 182.539 176.055C182.539 175.479 183.007 175.011 183.583 175.011H197.958C198.534 175.011 199.002 175.479 199.002 176.055C199.002 176.631 198.534 177.099 197.958 177.099ZM169.209 177.099H154.836C154.259 177.099 153.792 176.631 153.792 176.055C153.792 175.479 154.259 175.011 154.836 175.011H169.209C169.786 175.011 170.253 175.479 170.253 176.055C170.253 176.631 169.786 177.099 169.209 177.099ZM140.46 177.099H126.085C125.509 177.099 125.041 176.631 125.041 176.055C125.041 175.479 125.509 175.011 126.085 175.011H140.46C141.037 175.011 141.505 175.479 141.505 176.055C141.505 176.631 141.037 177.099 140.46 177.099ZM111.71 177.099H97.3364C96.7602 177.099 96.2923 176.631 96.2923 176.055C96.2923 175.479 96.7602 175.011 97.3364 175.011H111.71C112.286 175.011 112.754 175.479 112.754 176.055C112.754 176.631 112.286 177.099 111.71 177.099ZM82.9613 177.099H68.5861C68.0099 177.099 67.542 176.631 67.542 176.055C67.542 175.479 68.0099 175.011 68.5861 175.011H82.9613C83.5375 175.011 84.0054 175.479 84.0054 176.055C84.0054 176.631 83.5375 177.099 82.9613 177.099Z" fill="#0069B8"/>
<path d="M54.2129 177.099H46.9025C46.3263 177.099 45.8584 176.632 45.8584 176.055V168.745C45.8584 168.169 46.3263 167.701 46.9025 167.701C47.4787 167.701 47.9467 168.169 47.9467 168.745V175.011H54.2129C54.7891 175.011 55.257 175.479 55.257 176.055C55.257 176.632 54.7891 177.099 54.2129 177.099Z" fill="#0069B8"/>
<path d="M46.9006 156.491C46.3244 156.491 45.8564 156.023 45.8564 155.447V142.151C45.8564 141.575 46.3244 141.107 46.9006 141.107C47.4768 141.107 47.9447 141.575 47.9447 142.151V155.447C47.9447 156.023 47.4768 156.491 46.9006 156.491ZM46.9006 129.899C46.3244 129.899 45.8564 129.431 45.8564 128.854V115.558C45.8564 114.982 46.3244 114.514 46.9006 114.514C47.4768 114.514 47.9447 114.982 47.9447 115.558V128.854C47.9447 129.431 47.4768 129.899 46.9006 129.899ZM46.9006 103.306C46.3244 103.306 45.8564 102.838 45.8564 102.262V88.9654C45.8564 88.3891 46.3244 87.9212 46.9006 87.9212C47.4768 87.9212 47.9447 88.3891 47.9447 88.9654V102.262C47.9447 102.838 47.4768 103.306 46.9006 103.306ZM46.9006 76.7146C46.3244 76.7146 45.8564 76.2467 45.8564 75.6704V62.3741C45.8564 61.7978 46.3244 61.3299 46.9006 61.3299C47.4768 61.3299 47.9447 61.7978 47.9447 62.3741V75.6704C47.9447 76.2467 47.4768 76.7146 46.9006 76.7146ZM46.9006 50.1218C46.3244 50.1218 45.8564 49.6539 45.8564 49.0777V35.7813C45.8564 35.2051 46.3244 34.7372 46.9006 34.7372C47.4768 34.7372 47.9447 35.2051 47.9447 35.7813V49.0777C47.9447 49.6539 47.4768 50.1218 46.9006 50.1218Z" fill="#0069B8"/>
<path d="M46.9006 23.5287C46.3244 23.5287 45.8564 23.0608 45.8564 22.4846V15.1743C45.8564 14.598 46.3244 14.1301 46.9006 14.1301H54.2109C54.7871 14.1301 55.255 14.598 55.255 15.1743C55.255 15.7505 54.7871 16.2184 54.2109 16.2184H47.9447V22.4846C47.9447 23.0608 47.4768 23.5287 46.9006 23.5287Z" fill="#0069B8"/>
<path d="M284.206 16.2172H269.831C269.255 16.2172 268.787 15.7493 268.787 15.173C268.787 14.5968 269.255 14.1289 269.831 14.1289H284.206C284.783 14.1289 285.25 14.5968 285.25 15.173C285.25 15.7493 284.783 16.2172 284.206 16.2172ZM255.457 16.2172H241.084C240.507 16.2172 240.04 15.7493 240.04 15.173C240.04 14.5968 240.507 14.1289 241.084 14.1289H255.457C256.034 14.1289 256.502 14.5968 256.502 15.173C256.502 15.7493 256.034 16.2172 255.457 16.2172ZM226.709 16.2172H212.333C211.757 16.2172 211.289 15.7493 211.289 15.173C211.289 14.5968 211.757 14.1289 212.333 14.1289H226.709C227.285 14.1289 227.753 14.5968 227.753 15.173C227.753 15.7493 227.285 16.2172 226.709 16.2172ZM197.958 16.2172H183.585C183.008 16.2172 182.54 15.7493 182.54 15.173C182.54 14.5968 183.008 14.1289 183.585 14.1289H197.958C198.534 14.1289 199.002 14.5968 199.002 15.173C199.002 15.7493 198.534 16.2172 197.958 16.2172ZM169.209 16.2172H154.834C154.258 16.2172 153.79 15.7493 153.79 15.173C153.79 14.5968 154.258 14.1289 154.834 14.1289H169.209C169.786 14.1289 170.253 14.5968 170.253 15.173C170.253 15.7493 169.786 16.2172 169.209 16.2172ZM140.46 16.2172H126.085C125.509 16.2172 125.041 15.7493 125.041 15.173C125.041 14.5968 125.509 14.1289 126.085 14.1289H140.46C141.037 14.1289 141.505 14.5968 141.505 15.173C141.505 15.7493 141.037 16.2172 140.46 16.2172ZM111.71 16.2172H97.335C96.7588 16.2172 96.2909 15.7493 96.2909 15.173C96.2909 14.5968 96.7588 14.1289 97.335 14.1289H111.71C112.286 14.1289 112.754 14.5968 112.754 15.173C112.754 15.7493 112.286 16.2172 111.71 16.2172ZM82.9613 16.2172H68.5861C68.0099 16.2172 67.542 15.7493 67.542 15.173C67.542 14.5968 68.0099 14.1289 68.5861 14.1289H82.9613C83.5375 14.1289 84.0054 14.5968 84.0054 15.173C84.0054 15.7493 83.5375 16.2172 82.9613 16.2172Z" fill="#0069B8"/>
<path d="M305.892 23.529C305.315 23.529 304.847 23.0611 304.847 22.4848V16.2186H298.581C298.005 16.2186 297.537 15.7507 297.537 15.1745C297.537 14.5983 298.005 14.1304 298.581 14.1304H305.892C306.468 14.1304 306.936 14.5983 306.936 15.1745V22.4848C306.936 23.0611 306.468 23.529 305.892 23.529Z" fill="#0069B8"/>
<path d="M305.892 156.491C305.316 156.491 304.848 156.023 304.848 155.447V142.151C304.848 141.575 305.316 141.107 305.892 141.107C306.468 141.107 306.936 141.575 306.936 142.151V155.447C306.936 156.023 306.468 156.491 305.892 156.491ZM305.892 129.899C305.316 129.899 304.848 129.431 304.848 128.854V115.558C304.848 114.982 305.316 114.514 305.892 114.514C306.468 114.514 306.936 114.982 306.936 115.558V128.854C306.936 129.431 306.468 129.899 305.892 129.899ZM305.892 103.306C305.316 103.306 304.848 102.838 304.848 102.262V88.9654C304.848 88.3891 305.316 87.9212 305.892 87.9212C306.468 87.9212 306.936 88.3891 306.936 88.9654V102.262C306.936 102.838 306.468 103.306 305.892 103.306ZM305.892 76.7146C305.316 76.7146 304.848 76.2467 304.848 75.6704V62.3741C304.848 61.7978 305.316 61.3299 305.892 61.3299C306.468 61.3299 306.936 61.7978 306.936 62.3741V75.6704C306.936 76.2467 306.468 76.7146 305.892 76.7146ZM305.892 50.1218C305.316 50.1218 304.848 49.6539 304.848 49.0777V35.7813C304.848 35.2051 305.316 34.7372 305.892 34.7372C306.468 34.7372 306.936 35.2051 306.936 35.7813V49.0777C306.936 49.6539 306.468 50.1218 305.892 50.1218Z" fill="#0069B8"/>
<path d="M184.9 79.7675C186.088 89.1704 186.84 102.641 187.987 115.19L164.346 115.185C165.494 102.221 166.631 89.3191 167.851 79.7675H154.226L176.376 35.6368H176.418L198.568 79.7675H184.9Z" fill="#0069B8"/>
<path d="M235.564 126.431H117.229V128.798H235.564V126.431Z" fill="#0069B8"/>
<path d="M133.368 140.313H136.401V148.449C136.401 149.74 136.438 150.578 136.514 150.959C136.643 151.574 136.953 152.068 137.441 152.439C137.929 152.812 138.596 152.998 139.444 152.998C140.291 152.998 140.954 152.822 141.39 152.471C141.828 152.119 142.091 151.687 142.18 151.174C142.268 150.661 142.313 149.811 142.313 148.622V140.311H145.346V148.202C145.346 150.006 145.264 151.28 145.099 152.025C144.936 152.77 144.633 153.398 144.192 153.911C143.752 154.423 143.162 154.832 142.424 155.135C141.686 155.439 140.723 155.592 139.535 155.592C138.101 155.592 137.012 155.426 136.271 155.095C135.53 154.764 134.944 154.334 134.513 153.804C134.083 153.274 133.8 152.719 133.663 152.139C133.465 151.278 133.365 150.007 133.365 148.326V140.313H133.368Z" fill="#0069B8"/>
<path d="M148.544 155.335V140.312H153.412C155.256 140.312 156.459 140.387 157.018 140.538C157.879 140.763 158.6 141.254 159.18 142.008C159.762 142.763 160.051 143.738 160.051 144.934C160.051 145.857 159.883 146.632 159.548 147.26C159.213 147.888 158.787 148.382 158.272 148.74C157.756 149.099 157.232 149.337 156.698 149.452C155.974 149.595 154.926 149.668 153.552 149.668H151.574V155.335H148.541H148.544ZM151.577 142.854V147.117H153.236C154.43 147.117 155.23 147.039 155.633 146.882C156.036 146.724 156.352 146.479 156.581 146.144C156.81 145.809 156.924 145.42 156.924 144.976C156.924 144.43 156.764 143.978 156.443 143.622C156.121 143.267 155.716 143.045 155.223 142.957C154.861 142.889 154.134 142.854 153.041 142.854H151.575H151.577Z" fill="#0069B8"/>
<path d="M162.624 155.335V140.435H165.656V152.803H173.198V155.335H162.622H162.624Z" fill="#0069B8"/>
<path d="M174.748 147.916C174.748 146.385 174.976 145.101 175.434 144.063C175.776 143.297 176.242 142.611 176.833 142.003C177.424 141.395 178.071 140.945 178.774 140.65C179.71 140.255 180.79 140.057 182.013 140.057C184.226 140.057 185.998 140.743 187.326 142.116C188.653 143.49 189.319 145.399 189.319 147.844C189.319 150.289 188.659 152.166 187.341 153.537C186.022 154.907 184.259 155.592 182.052 155.592C179.845 155.592 178.043 154.91 176.723 153.547C175.405 152.183 174.746 150.307 174.746 147.916H174.748ZM177.873 147.813C177.873 149.515 178.264 150.804 179.051 151.682C179.837 152.56 180.835 152.999 182.043 152.999C183.252 152.999 184.244 152.565 185.021 151.692C185.797 150.822 186.184 149.515 186.184 147.773C186.184 146.031 185.805 144.768 185.052 143.92C184.298 143.074 183.294 142.649 182.043 142.649C180.793 142.649 179.785 143.078 179.021 143.936C178.255 144.794 177.873 146.086 177.873 147.815V147.813Z" fill="#0069B8"/>
<path d="M205.232 155.335H201.932L200.621 151.922H194.616L193.376 155.335H190.158L196.008 140.312H199.216L205.231 155.335H205.232ZM199.648 149.392L197.578 143.817L195.549 149.392H199.648Z" fill="#0069B8"/>
<path d="M206.832 140.312H212.376C213.627 140.312 214.579 140.408 215.236 140.6C216.117 140.86 216.872 141.32 217.5 141.983C218.128 142.646 218.606 143.458 218.936 144.417C219.263 145.377 219.427 146.56 219.427 147.968C219.427 149.204 219.273 150.27 218.966 151.165C218.59 152.258 218.055 153.142 217.357 153.82C216.831 154.332 216.121 154.731 215.226 155.018C214.557 155.231 213.661 155.336 212.541 155.336H206.833V140.314L206.832 140.312ZM209.865 142.854V152.804H212.129C212.975 152.804 213.588 152.757 213.963 152.661C214.456 152.539 214.863 152.331 215.188 152.036C215.513 151.743 215.777 151.259 215.982 150.586C216.187 149.913 216.29 148.996 216.29 147.835C216.29 146.674 216.187 145.783 215.982 145.16C215.777 144.539 215.49 144.054 215.122 143.705C214.753 143.357 214.284 143.12 213.718 142.997C213.293 142.902 212.464 142.854 211.227 142.854H209.863H209.865Z" fill="#0069B8"/>
<path d="M336.823 207.52H245.502L240.248 137.523H342.077L336.823 207.52Z" fill="#A0D3FF"/>
<path d="M338.21 130.55H311.038L297.031 139.675H342.076V134.416C342.076 132.281 340.346 130.551 338.211 130.551L338.21 130.55Z" fill="#A0D3FF"/>
<path d="M334.293 141.039H248.029V211.456H334.293V141.039Z" fill="white"/>
<path d="M337.574 144.105H244.748V211.456H337.574V144.105Z" fill="white"/>
<path d="M340.048 211.716H242.273L236.411 148.102H345.912L340.048 211.716Z" fill="#A0D3FF"/>
<path d="M79.7877 91.6182C79.7877 91.6182 76.5254 109.989 71.7596 111.257C69.6021 111.831 66.8322 111.35 64.1865 110.454C59.7139 108.941 55.601 106.249 55.4594 105.514L50.9219 91.7381C53.5344 92.8631 68.415 101.348 69.631 102.159C71.5993 99.2029 75.4148 91.3323 75.5549 90.7676C75.5549 90.7676 75.3383 88.1003 76.5629 86.2228C78.3479 83.4847 76.8922 87.9905 77.1983 87.5804C77.5305 87.1283 79.5018 82.3366 80.8131 83.736C83.7245 86.8568 79.7877 91.6168 79.7877 91.6168V91.6182Z" fill="#FFCBC7"/>
<path d="M67.1196 100.209C66.7787 103.804 64.6934 108.665 64.4768 110.916C60.0028 109.403 54.6103 108.896 54.4687 108.161L50.9219 91.738C53.5344 92.863 61.9278 97.1276 67.1196 100.209Z" fill="#A0D3FF"/>
<path d="M49.7228 170.072C48.7827 173.573 48.2021 176.714 47.8945 179.634C47.1031 187.094 47.3255 198.584 48.6917 205.845L52.5173 205.47C52.5173 205.47 57.9213 185.844 60.476 175.807C61.1331 173.261 61.6414 170.986 61.9072 169.269C63.451 159.475 57.735 131.73 57.3682 129.933L57.3523 129.864L57.348 129.838L41.9547 127.688C33.7764 147.148 43.4783 152.043 49.7242 170.071L49.7228 170.072Z" fill="#FFCBC7"/>
<path d="M42.4641 154.083C44.6361 158.552 47.4132 163.415 49.7225 170.074C48.8704 173.244 47.9014 176.539 46.7793 180.382L60.093 182.242C60.7486 179.696 61.6397 170.988 61.9054 169.272C63.4492 159.478 57.7332 131.733 57.3664 129.936L57.3505 129.867L57.3462 129.841L41.9529 127.691C36.79 139.967 38.7483 146.443 42.4656 154.083H42.4641Z" fill="#15486D"/>
<path d="M33.6038 210.325L24.2255 199.454C24.2255 199.454 31.1126 188.698 36.6842 181.546C38.0071 179.835 39.2548 178.339 40.3221 177.229C47.953 169.326 51.9389 129.491 51.9389 129.491H39.3227C29.4316 138.584 31.9228 151.103 31.6311 163.471C31.53 167.757 30.1508 171.89 27.8359 175.501C27.3694 176.227 26.9304 176.964 26.5159 177.719C23.6305 182.986 21.9191 189.161 20.3392 199.306L18.3867 205.89L33.6053 210.327L33.6038 210.325Z" fill="#FFCBC7"/>
<path d="M25.8809 177.504L29.5259 179.173L36.9345 182.563C38.2573 180.851 39.2581 178.339 40.3239 177.23C47.9548 169.326 52.8823 129.334 52.8823 129.334L39.8603 129.483L39.3231 129.491C29.7628 138.279 31.7701 150.269 31.6517 162.229C31.6041 167.109 30.0256 171.873 27.0492 175.741C26.613 176.308 26.2145 176.89 25.8809 177.502V177.504Z" fill="#0069B8"/>
<path d="M32.9169 103.78C33.0238 111.734 34.9835 125.524 35.7272 130.485C35.8341 131.204 36.2312 131.824 36.793 132.212C37.0992 132.427 37.4631 132.576 37.8516 132.634C41.4143 133.162 44.9034 133.453 48.3015 133.444C51.3603 133.444 54.3453 133.213 57.2466 132.709C58.3789 132.511 59.2468 131.601 59.371 130.46C59.7768 126.707 58.5984 118.472 58.789 110.46C58.9132 105.393 57.3232 92.4198 47.8582 90.3792L42.314 90.3286C36.0969 91.9403 33.4931 96.6945 33.0628 100.017C32.9299 101.002 32.8895 102.291 32.914 103.78H32.9169Z" fill="#67B9F0"/>
<path d="M52.9654 204.375C58.8533 206.635 65.3867 206.403 65.7939 211.717L47.2682 211.07C47.0502 208.817 47.4242 206.586 48.3918 204.375H52.9654Z" fill="#15486D"/>
<path d="M24.2273 199.454C28.9396 203.645 35.9914 206.599 34.4981 211.716L17.3906 205.997C17.9813 203.814 18.7727 200.306 20.4566 198.577L24.2273 199.455V199.454Z" fill="#15486D"/>
<path d="M46.132 85.4878C44.3268 86.0453 43.5975 86.9479 41.2897 85.9037C37.7775 84.3166 34.8126 78.2367 39.4773 75.4885C39.7993 74.5266 40.1243 74.1512 41.3547 73.884C42.5837 73.6168 43.843 74.1526 45.5384 74.1237C47.2324 74.0948 49.6297 72.3503 51.1071 74.814C52.5845 77.2778 48.9221 79.1942 47.0866 80.4073C45.251 81.6204 45.846 83.7129 46.1349 85.4893L46.132 85.4878Z" fill="#0069B8"/>
<path d="M42.2373 90.343C44.2548 92.3604 46.1568 92.746 47.8594 90.3791L47.38 86.4885L47.1792 84.8494H42.7153L42.6301 85.8646L42.2373 90.343Z" fill="#FFCBC7"/>
<path d="M42.5679 86.5882C43.6712 87.9154 46.7111 88.2995 47.5343 87.7305L47.1805 84.848L42.6906 82.9634L42.5664 86.5868L42.5679 86.5882Z" fill="#F0B4B4"/>
<path d="M49.4683 77.0465C50.29 79.3615 51.0944 84.481 49.1304 86.3844C47.8869 87.5889 43.3725 87.1238 42.4511 83.8095C41.3622 83.021 40.5636 81.0988 41.5659 80.2265C42.2807 79.6056 43.1949 81.2476 44.4412 80.9761C44.9149 80.8735 43.4606 77.7108 44.938 77.1635C46.4153 76.6162 47.9779 77.8033 49.4683 77.0465Z" fill="#FFCBC7"/>
<path d="M123.9 94.4878L80.988 81.7604C79.7359 81.3893 78.4188 82.1027 78.0477 83.3562L69.6802 111.569C69.3091 112.821 70.0225 114.138 71.276 114.51L114.188 127.237C115.44 127.608 116.757 126.895 117.128 125.641L125.496 97.4281C125.867 96.176 125.153 94.8589 123.9 94.4878Z" fill="#A0D3FF"/>
<g style="mix-blend-mode:multiply">
<path d="M124.104 94.5599C124.11 94.8011 124.08 95.0466 124.008 95.2892L115.64 123.502C115.269 124.754 113.952 125.469 112.7 125.098L69.7881 112.371C69.7173 112.351 69.6494 112.325 69.583 112.299C69.6076 113.296 70.2661 114.209 71.2741 114.51L114.186 127.237C115.438 127.608 116.755 126.895 117.126 125.643L125.494 97.4295C125.845 96.2482 125.228 95.0091 124.104 94.5614V94.5599Z" fill="#E6E6E6"/>
</g>
<path d="M75.9372 107.517L88.2934 98.0519C88.9534 97.5464 89.9138 97.8584 90.1521 98.6541L94.2376 112.306C94.4932 113.158 95.5604 113.438 96.2002 112.82L98.7679 110.34C99.4322 109.699 100.543 110.028 100.749 110.928L101.43 113.883C101.653 114.856 102.905 115.135 103.521 114.348L110.406 105.55C111.088 104.679 112.485 105.131 112.528 106.236L113.015 118.846C113.046 119.658 112.269 120.262 111.491 120.031L76.3214 109.599C75.3913 109.324 75.1675 108.109 75.9372 107.518V107.517Z" fill="white"/>
<path d="M97.8336 96.5198C98.3766 94.6871 100.303 93.6416 102.136 94.186C103.968 94.729 105.014 96.6555 104.47 98.4882C103.927 100.321 102 101.366 100.167 100.822C98.3347 100.279 97.2891 98.3524 97.8336 96.5198Z" fill="white"/>
<path d="M91.2235 93.0104C91.1614 92.9917 91.0993 92.9801 91.0386 92.9743C91.0559 92.931 91.0718 92.8863 91.0863 92.84C91.3029 92.1093 90.887 91.3424 90.1562 91.1258C89.5338 90.941 88.8825 91.2168 88.5705 91.7555C88.4694 91.5851 88.3063 91.4493 88.0997 91.3887C87.8124 91.3035 87.5163 91.3843 87.3112 91.5735C87.1971 91.4782 87.0614 91.4031 86.9098 91.3583C86.3119 91.1807 85.6837 91.5215 85.506 92.1194C85.3284 92.7173 85.6692 93.3455 86.2671 93.5231C86.5213 93.5982 86.7798 93.5809 87.008 93.4885C87.2751 93.8899 87.808 94.2596 88.4767 94.4575C89.1034 94.6438 89.7114 94.638 90.1504 94.4792C90.2718 94.6568 90.4523 94.7954 90.6732 94.8604C91.1845 95.0121 91.7217 94.7203 91.8733 94.2091C92.025 93.6979 91.7332 93.1606 91.222 93.009L91.2235 93.0104Z" fill="white"/>
<path d="M114.271 99.8458C114.209 99.827 114.147 99.8154 114.086 99.8097C114.103 99.7663 114.119 99.7216 114.134 99.6754C114.35 98.9446 113.934 98.1778 113.204 97.9611C112.581 97.7763 111.93 98.0521 111.618 98.5908C111.517 98.4204 111.354 98.2846 111.147 98.224C110.86 98.1388 110.564 98.2197 110.359 98.4088C110.245 98.3135 110.109 98.2384 109.957 98.1937C109.359 98.016 108.731 98.3568 108.555 98.9547C108.377 99.5526 108.718 100.181 109.316 100.358C109.57 100.434 109.829 100.416 110.057 100.324C110.324 100.725 110.857 101.095 111.526 101.293C112.152 101.479 112.76 101.473 113.199 101.314C113.321 101.492 113.501 101.631 113.722 101.696C114.233 101.847 114.771 101.556 114.922 101.044C115.074 100.533 114.782 99.996 114.271 99.8443V99.8458Z" fill="white"/>
<path d="M36.5618 106.414C36.5618 106.414 41.5196 112.384 46.0196 115.668C47.0969 116.446 48.1396 117.07 49.0855 117.431C55.6434 119.921 70.6511 119.085 70.6511 119.085C75.4183 121.517 78.8034 120.065 79.8764 118.196C82.5221 113.584 74.7078 116.466 73.9539 114.544C73.9539 114.544 77.0011 113.616 75.9931 112.189C74.9923 110.753 69.3889 114.058 69.3889 114.058C62.2996 112.738 58.5 110.719 52.8894 109.602C52.4056 108.924 51.9233 108.246 51.425 107.578C47.8132 102.78 43.6251 98.4129 37.9279 95.5131C35.1681 99.1235 35.2505 102.766 36.5632 106.414H36.5618Z" fill="#FFCBC7"/>
<path d="M44.6151 115.827L52.4425 107.079C48.8306 102.282 41.9131 91.7669 37.0882 95.9636C30.666 101.55 40.1151 112.543 44.6151 115.827Z" fill="#A0D3FF"/>
<path d="M282.441 97.6302C281.687 87.8431 273.77 87.6641 269.085 80.1761C267.479 77.6098 268.212 73.8666 266.146 71.6512C260.989 66.1172 251.316 69.0041 252.837 76.4964C253.208 78.3218 255.92 79.9133 255.224 82.3394C253.952 85.5758 253.156 89.5805 256.239 92.1063L265.203 114.622C276.033 112.739 283.265 108.347 282.439 97.6302H282.441Z" fill="#0069B8"/>
<path d="M226.038 182.418C227.889 173.04 228.899 165.372 228.642 158.616C228.46 153.661 227.97 149.112 227.572 144.54L256.305 128.089L265.435 122.86H247.939C247.939 122.86 222.982 130.951 218.749 138.006C215.903 142.753 216.492 153.451 217.828 163.155C219.239 173.33 221.48 182.418 221.48 182.418H226.038Z" fill="#FCBEBB"/>
<path d="M226.108 182.21L227.581 187.028L226.66 194.516L225.177 194.588L223.825 188.033L221.432 192.386C220.788 193.557 219.82 194.516 218.493 194.688C214.995 195.141 208.159 195.26 207.876 192.964C207.584 190.605 214.211 190.504 216.146 187.911C218.021 185.399 220.274 182.114 220.274 182.114L226.109 182.212L226.108 182.21Z" fill="#15486D"/>
<path d="M217.829 163.155L223.78 164.134L228.644 158.614L250.123 134.254L256.305 128.087L261.543 122.858H247.939C247.939 122.858 223.056 127.635 218.824 134.69C215.977 139.437 216.491 153.45 217.829 163.153V163.155Z" fill="#15486D"/>
<path d="M220.876 182.697C226.106 178.216 229.579 172.533 232.294 166.068C234.053 161.877 235.423 157.378 236.569 152.705C236.569 152.705 263.193 150.456 270.199 140.263C274.972 133.317 271.145 122.858 271.145 122.858C266.597 123 260.63 122.003 256.861 123.224C242.66 127.813 227.414 133.864 223.87 143.69C221.779 149.491 220.335 155.908 218.891 163.02C217.696 168.897 216.619 175.725 215.042 182.597L220.878 182.696L220.876 182.697Z" fill="#FFCBC7"/>
<path d="M218.889 163.022L227.769 165.039L232.292 166.069C234.051 161.878 235.421 157.379 236.567 152.706C236.567 152.706 252.244 151.379 262.702 146.165C265.872 144.58 268.569 142.639 270.197 140.265C274.562 133.907 271.732 124.603 271.218 123.076C271.169 122.935 271.143 122.861 271.143 122.861H271.109C266.562 122.994 260.088 121.574 256.329 122.795C242.128 127.384 227.79 131.065 224.247 140.893C222.147 146.694 220.333 155.911 218.889 163.023V163.022Z" fill="#0069B8"/>
<g style="mix-blend-mode:multiply">
<path d="M262.703 146.165C265.873 144.58 268.571 142.639 270.198 140.265C274.564 133.907 271.733 124.603 271.219 123.076C271.17 122.935 271.144 122.861 271.144 122.861H271.111L266.663 124.712C269.832 132.748 268.023 139.803 262.705 146.167L262.703 146.165Z" fill="#E6E6E6"/>
</g>
<path d="M254.322 107.282C252.142 111.398 240.772 116.072 240.772 116.072L238.824 112.124C240.546 111.094 245.779 107.347 247.687 105.102C249.333 103.166 250.754 93.3672 254.895 89.9835C254.895 89.9835 256.403 103.352 254.322 107.282Z" fill="#A7DAFC"/>
<path d="M246.677 123.284C253.715 122.347 259.491 125.269 266.663 124.713C267.527 124.646 268.415 124.531 269.319 124.356C270.987 124.024 272.149 122.497 271.975 120.803L269.609 97.7299L267.527 90.6333L267.252 89.1704L263.871 87.8461L258.636 87.5587C252.519 90.2145 248.877 96.992 252.585 104.935C256.187 112.654 246.676 123.286 246.676 123.286L246.677 123.284Z" fill="#80AFFF"/>
<path d="M258.637 87.5572C258.637 89.9935 261.603 90.2809 263.872 87.8446L262.636 84.2891L262.306 82.4579L258.895 84.1634L258.644 87.1687L258.638 87.5572H258.637Z" fill="#FFCBC7"/>
<g style="mix-blend-mode:multiply">
<path d="M266.575 103.699C268.209 108.147 267.841 118.628 266.663 124.711C267.526 124.645 268.414 124.529 269.318 124.354C270.986 124.022 272.149 122.496 271.974 120.802L269.609 97.7284L267.526 90.6318C265.692 92.076 265.218 92.8818 265.218 92.8818C265.218 92.8818 264.566 98.2787 266.575 103.697V103.699Z" fill="#E6E6E6"/>
</g>
<path d="M244.512 120.79C246.928 123.598 250.027 120.864 250.027 120.864C250.027 120.864 262.021 119.272 265.628 118.682C269.984 117.991 275.197 116.93 277.05 115.675C278.941 114.383 274.731 100.49 272.747 96.9024C270.11 92.141 267.178 89.1531 267.178 89.1531L270.78 97.5018L270.862 111.204C268.543 111.796 266.207 112.59 263.862 113.595C261.785 114.468 253.903 115.915 251.806 117.09C247.488 115.551 242.104 117.99 244.512 120.79Z" fill="#FFCBC7"/>
<path d="M263.863 113.595L264.88 119.541C269.236 118.851 276.052 118.608 277.225 116.702C279.584 112.868 277.282 99.6463 274.133 94.7737C270.752 89.5416 267.178 89.1531 267.178 89.1531C260.367 95.2763 269.621 98.956 270.86 111.204C268.541 111.796 266.206 112.59 263.86 113.595H263.863Z" fill="#A7DAFC"/>
<g style="mix-blend-mode:multiply">
<path d="M258.643 87.1686C258.877 87.199 259.134 87.2221 259.408 87.2351C260.91 87.313 262.023 85.5714 262.634 84.2904L262.305 82.4592L258.894 84.1648L258.643 87.1701V87.1686Z" fill="#E6E6E6"/>
</g>
<path d="M254.995 74.889C254.995 74.889 258.633 79.0482 261.34 79.119C261.34 79.119 262.867 77.4539 263.525 78.4951C264.184 79.5349 262.59 81.3733 262.59 81.3733C262.406 84.3959 260.231 86.7947 257.978 86.2271C252.853 84.9389 254.996 74.889 254.996 74.889H254.995Z" fill="#FFCBC7"/>
<path d="M220.877 182.697L222.35 187.515L221.427 195.003L219.944 195.075L218.592 188.52L216.197 192.873C215.553 194.044 214.586 195.003 213.259 195.175C209.761 195.628 202.924 195.746 202.641 193.45C202.349 191.09 208.977 190.989 210.912 188.397C212.786 185.886 215.039 182.6 215.039 182.6L220.875 182.698L220.877 182.697Z" fill="#0069B8"/>
<path d="M223.37 130.814L249.17 125.371L238.888 106.294L213.088 111.737L223.37 130.814Z" fill="#A0D3FF"/>
<path d="M236.885 127.946L259.399 123.197L258.822 120.461L236.308 125.21L236.885 127.946Z" fill="#A0D3FF"/>
<path d="M229.073 117.177L230.975 116.776C231.639 116.635 232.286 117.033 232.419 117.664L232.8 119.469C232.933 120.099 232.503 120.724 231.838 120.864L229.936 121.265C229.272 121.406 228.625 121.008 228.492 120.377L228.111 118.572C227.978 117.942 228.408 117.317 229.073 117.177Z" fill="#0069B8"/>
<path d="M387 211.225H0V214.37H387V211.225Z" fill="#0069B8"/>
</svg>
