<svg width="338" height="338" viewBox="0 0 338 338" fill="none" xmlns="http://www.w3.org/2000/svg">
<path d="M174.289 0.144777C87.7788 -2.48213 12.8426 62.0707 1.5217 146.772C-10.8562 239.381 57.2731 322.709 141.104 336.054C245.375 352.654 346.511 256.621 337.431 152.439C330.588 73.9455 262.228 2.81512 174.289 0.144777Z" fill="#F4F7FA"/>
<path d="M95.7173 197.723L97.1315 204.97C93.9761 206.22 90.9642 207.72 88.1334 209.465L83.2995 203.914C81.9806 202.4 79.6807 202.258 78.1603 203.597L68.647 211.981C67.1242 213.322 66.9565 215.643 68.273 217.163L73.1491 222.791C71.0519 225.426 69.1792 228.238 67.5562 231.197L60.4948 228.795C58.5907 228.147 56.508 229.188 55.8431 231.117L51.6765 243.21C51.0092 245.148 52.0132 247.248 53.9221 247.899L61.0076 250.321C60.4815 253.63 60.2474 257.014 60.2981 260.44L52.8844 261.952C50.8946 262.357 49.5854 264.319 49.9606 266.336L52.3161 278.968C52.6937 280.993 54.6184 282.305 56.6142 281.898L64.0496 280.381C65.2515 283.597 66.7043 286.667 68.4045 289.556L62.6873 294.637C61.1452 296.008 60.9739 298.382 62.3048 299.941L70.6428 309.712C71.9786 311.277 74.3147 311.431 75.858 310.054L81.5752 304.957C84.1949 307.113 86.9979 309.029 89.9494 310.692L87.4891 318.003C86.823 319.983 87.8511 322.132 89.7878 322.803L101.907 327.003C103.848 327.675 105.958 326.611 106.619 324.627L109.04 317.372C112.364 317.901 115.765 318.122 119.206 318.047L120.672 325.558C121.074 327.614 123.031 328.948 125.045 328.538L137.636 325.97C139.648 325.56 140.95 323.561 140.544 321.506L139.068 314.059C142.294 312.792 145.369 311.26 148.257 309.475L153.16 315.136C154.522 316.707 156.872 316.862 158.408 315.481L168.004 306.852C169.536 305.474 169.672 303.087 168.309 301.521L163.421 295.908C165.554 293.194 167.444 290.294 169.075 287.246L176.035 289.624C177.98 290.289 180.077 289.231 180.718 287.263L184.718 274.977C185.357 273.016 184.3 270.891 182.359 270.231L175.466 267.886C175.959 264.499 176.144 261.039 176.034 257.542L183.145 256.091C185.141 255.685 186.421 253.719 186.003 251.703L183.398 239.121C182.982 237.113 181.032 235.816 179.042 236.221L171.953 237.667C170.682 234.43 169.158 231.349 167.385 228.46L172.769 223.66C174.283 222.31 174.416 219.978 173.067 218.452L164.647 208.925C163.302 207.405 160.988 207.262 159.476 208.607L154.057 213.424C151.402 211.311 148.573 209.433 145.596 207.819L147.897 200.921C148.538 199.002 147.505 196.927 145.592 196.285L133.641 192.278C131.733 191.639 129.663 192.672 129.019 194.585L126.692 201.498C123.403 201.012 120.041 200.821 116.641 200.925L115.217 193.741C114.825 191.764 112.907 190.487 110.935 190.89L98.594 193.408C96.6199 193.811 95.3336 195.739 95.7197 197.718L95.7173 197.723ZM81.6355 266.428C77.7513 246.109 90.8484 226.416 110.867 222.334C130.885 218.252 150.423 231.288 154.525 251.563C158.653 271.96 145.612 291.933 125.373 296.06C105.134 300.188 85.5427 286.87 81.6355 266.428Z" fill="#D8DEE8"/>
<path d="M159.835 165.29L160.251 167.421C159.324 167.789 158.438 168.229 157.605 168.743L156.184 167.111C155.796 166.666 155.12 166.623 154.673 167.018L151.875 169.483C151.427 169.878 151.378 170.561 151.765 171.007L153.199 172.663C152.582 173.437 152.03 174.264 151.554 175.135L149.477 174.429C148.917 174.239 148.304 174.545 148.109 175.112L146.883 178.668C146.686 179.238 146.982 179.856 147.543 180.047L149.627 180.759C149.472 181.732 149.404 182.727 149.418 183.735L147.238 184.179C146.652 184.298 146.267 184.875 146.378 185.468L147.071 189.183C147.182 189.778 147.748 190.164 148.334 190.045L150.521 189.598C150.874 190.544 151.302 191.447 151.801 192.296L150.12 193.791C149.667 194.194 149.616 194.893 150.008 195.352L152.46 198.225C152.853 198.684 153.54 198.73 153.994 198.326L155.675 196.827C156.444 197.461 157.27 198.024 158.137 198.514L157.413 200.664C157.218 201.247 157.52 201.878 158.089 202.076L161.654 203.312C162.224 203.51 162.845 203.197 163.039 202.613L163.751 200.48C164.728 200.635 165.728 200.701 166.741 200.679L167.172 202.887C167.29 203.492 167.866 203.884 168.458 203.763L172.161 203.008C172.754 202.887 173.136 202.299 173.017 201.695L172.582 199.505C173.532 199.132 174.436 198.682 175.285 198.157L176.727 199.822C177.128 200.284 177.819 200.33 178.271 199.924L181.093 197.386C181.544 196.981 181.584 196.278 181.182 195.818L179.745 194.168C180.373 193.37 180.929 192.517 181.408 191.621L183.454 192.32C184.026 192.516 184.643 192.205 184.831 191.627L186.008 188.014C186.196 187.437 185.885 186.812 185.314 186.618L183.287 185.929C183.431 184.933 183.486 183.915 183.454 182.887L185.546 182.461C186.132 182.341 186.508 181.763 186.387 181.17L185.62 177.47C185.498 176.88 184.924 176.497 184.339 176.617L182.254 177.042C181.88 176.09 181.432 175.183 180.911 174.334L182.494 172.922C182.939 172.525 182.979 171.84 182.582 171.391L180.106 168.589C179.71 168.141 179.03 168.1 178.585 168.495L176.991 169.911C176.211 169.29 175.378 168.737 174.503 168.263L175.18 166.235C175.369 165.67 175.064 165.059 174.502 164.871L170.987 163.692C170.426 163.504 169.817 163.808 169.627 164.37L168.943 166.404C167.975 166.26 166.987 166.205 165.987 166.235L165.568 164.122C165.452 163.54 164.889 163.165 164.308 163.283L160.679 164.023C160.098 164.141 159.719 164.708 159.833 165.29H159.835ZM155.694 185.495C154.551 179.52 158.403 173.728 164.29 172.527C170.177 171.327 175.922 175.16 177.129 181.124C178.343 187.122 174.508 192.996 168.556 194.21C162.603 195.424 156.843 191.507 155.693 185.495H155.694Z" fill="#D8DEE8"/>
<path d="M222.386 70.8021L29.4491 64.4623C22.979 64.25 17.7119 69.3529 17.7119 75.8629V263.909C17.7119 270.418 22.979 275.47 29.4491 275.194L222.386 266.955C227.967 266.717 232.473 261.652 232.473 255.642V82.0157C232.473 76.0053 227.966 70.9856 222.386 70.8021Z" fill="url(#paint0_linear_45_1336)"/>
<path d="M29.4482 271.445C25.0475 271.627 21.4697 268.188 21.4697 263.763V75.9691C21.4697 71.5443 25.0475 68.0703 29.4482 68.2091L222.386 74.2895C226.187 74.4089 229.261 77.8262 229.261 81.9228V255.764C229.261 259.861 226.187 263.308 222.386 263.465L29.4494 271.445H29.4482Z" fill="url(#paint1_linear_45_1336)"/>
<path d="M222.386 70.8021L29.4491 64.4623C22.979 64.25 17.7119 69.3529 17.7119 75.8629V84.318L232.474 89.8228V82.0169C232.474 76.0065 227.967 70.9868 222.387 70.8033L222.386 70.8021Z" fill="url(#paint2_linear_45_1336)"/>
<path d="M38.5803 75.3261C38.5803 77.4402 36.8777 79.1078 34.7745 79.0498C32.6688 78.9919 30.959 77.2254 30.959 75.1053C30.959 72.9852 32.6688 71.3175 34.7745 71.3827C36.8777 71.4467 38.5803 73.2132 38.5803 75.3273V75.3261Z" fill="white"/>
<path d="M51.8633 75.7121C51.8633 77.8165 50.1776 79.4757 48.0937 79.4178C46.0074 79.3598 44.3145 77.6029 44.3145 75.4925C44.3145 73.382 46.0074 71.7229 48.0937 71.7868C50.1764 71.8508 51.8633 73.6077 51.8633 75.7121Z" fill="white"/>
<path d="M65.0194 76.0947C65.0194 78.1895 63.3494 79.8402 61.286 79.7835C59.2202 79.7268 57.543 77.9771 57.543 75.8775C57.543 73.7779 59.2202 72.126 61.286 72.1887C63.3494 72.2515 65.0194 73.9999 65.0194 76.0947Z" fill="white"/>
<path d="M133.301 107.846L31.3926 106.014V112.005L133.301 113.618V107.846Z" fill="white"/>
<g style="mix-blend-mode:soft-light">
<path d="M52.9366 126.662L31.3916 126.433V120.254L52.9366 120.531V126.662Z" fill="white"/>
<path d="M168.034 127.888L66.6914 126.808V120.708L168.034 122.012V127.888Z" fill="white"/>
<path d="M87.6958 137.374L66.6914 137.23V131.129L87.6958 131.32V137.374Z" fill="white"/>
<path d="M199.977 138.143L101.106 137.465V131.442L199.977 132.338V138.143Z" fill="white"/>
<path d="M87.6958 147.715L66.6914 147.651V141.55L87.6958 141.661V147.715Z" fill="white"/>
<path d="M199.977 148.06L101.106 147.756V141.732L199.977 142.255V148.06Z" fill="white"/>
<path d="M52.9366 158.081L31.3916 158.097V151.917L52.9366 151.95V158.081Z" fill="white"/>
<path d="M168.034 157.999L66.6914 158.072V151.971L168.034 152.123V157.999Z" fill="white"/>
<path d="M87.6958 168.397L66.6914 168.492V162.391L87.6958 162.343V168.397Z" fill="white"/>
<path d="M199.977 167.893L101.106 168.337V162.313L199.977 162.087V167.893Z" fill="white"/>
<path d="M87.6958 178.739L66.6914 178.913V172.812L87.6958 172.684V178.739Z" fill="white"/>
<path d="M199.977 177.808L101.106 178.627V172.603L199.977 172.002V177.808Z" fill="white"/>
<path d="M87.6958 189.08L66.6914 189.334V183.233L87.6958 183.026V189.08Z" fill="white"/>
<path d="M199.977 187.724L101.106 188.919V182.894L199.977 181.919V187.724Z" fill="white"/>
<path d="M121.909 198.879L101.43 199.203V193.18L121.909 192.901V198.879Z" fill="white"/>
<path d="M215.319 197.397L134.988 198.671V192.722L215.319 191.625V197.397Z" fill="white"/>
<path d="M52.9366 210.445L31.3916 210.869V204.69L52.9366 204.314V210.445Z" fill="white"/>
<path d="M168.034 208.184L66.6914 210.175V204.074L168.034 202.308V208.184Z" fill="white"/>
<path d="M87.6958 220.104L66.6914 220.596V214.495L87.6958 214.05V220.104Z" fill="white"/>
<path d="M199.977 217.472L101.106 219.79V213.765L199.977 211.667V217.472Z" fill="white"/>
<path d="M87.6958 230.445L66.6914 231.017V224.916L87.6958 224.391V230.445Z" fill="white"/>
<path d="M199.977 227.388L101.106 230.08V224.055L199.977 221.583V227.388Z" fill="white"/>
<path d="M52.9366 241.865L31.3916 242.533V236.354L52.9366 235.734V241.865Z" fill="white"/>
<path d="M168.034 238.295L66.6914 241.438V235.338L168.034 232.419V238.295Z" fill="white"/>
<path d="M87.6958 251.128L66.6914 251.858V245.759L87.6958 245.073V251.128Z" fill="white"/>
<path d="M199.977 247.221L101.106 250.661V244.636L199.977 241.416V247.221Z" fill="white"/>
</g>
<g style="mix-blend-mode:multiply" opacity="0.3">
<path d="M147.39 143.092C124.855 110.301 85.8497 120.734 61.1747 84.505C56.7245 77.9709 53.7055 71.3222 51.6348 65.1912L29.4491 64.4623C22.979 64.25 17.7119 69.3529 17.7119 75.8629V263.909C17.7119 270.418 22.979 275.47 29.4491 275.194L215.321 267.258C211.063 261.117 173.977 238.37 164.396 203.446C155.635 171.507 160.986 162.877 147.391 143.093L147.39 143.092Z" fill="url(#paint3_linear_45_1336)"/>
</g>
<path d="M223.555 118.094C227.074 119.879 231.494 118.24 233.429 114.43C235.364 110.621 234.08 106.084 230.561 104.297C230.379 104.204 230.193 104.126 230.006 104.052C230.66 101.944 231.152 99.8187 231.483 97.6938C231.685 97.6938 231.887 97.6902 232.092 97.6709C236.107 97.3125 239.293 93.6237 239.209 89.4318C239.125 85.2386 235.803 82.1302 231.788 82.4874C231.578 82.5067 231.372 82.5393 231.167 82.5755C230.747 80.4976 230.173 78.468 229.449 76.5036C229.633 76.395 229.817 76.284 229.997 76.1585C233.431 73.7524 234.529 69.003 232.448 65.5507C230.368 62.0984 225.899 61.2514 222.463 63.6574C222.287 63.7805 222.122 63.9145 221.958 64.0496C220.601 62.5497 219.114 61.1609 217.504 59.8915C217.617 59.7056 217.728 59.5174 217.829 59.3207C219.763 55.5113 222.291 51.3495 218.744 49.6179C210.541 45.613 207.02 49.0411 205.086 52.8518C204.986 53.0497 204.899 53.25 204.817 53.4503C202.843 52.8988 200.844 52.5175 198.832 52.3076C198.844 52.0952 198.854 51.884 198.85 51.6693C198.766 47.4761 200.01 45.2076 195.981 45.1291C187.194 44.959 184.229 48.7721 184.313 52.9652C184.318 53.1848 184.336 53.3984 184.358 53.612C182.344 54.1864 180.366 54.92 178.442 55.8069C178.35 55.6199 178.255 55.434 178.146 55.253C176.066 51.8008 171.595 50.9537 168.161 53.3598C164.727 55.7659 163.629 60.5153 165.709 63.9676C165.815 64.1449 165.932 64.3103 166.051 64.4732C164.529 65.9948 163.105 67.6455 161.789 69.4181C161.619 69.3107 161.446 69.2069 161.264 69.114C157.745 67.3269 153.325 68.968 151.391 72.7774C149.457 76.5868 150.74 81.1239 154.259 82.911C154.441 83.0039 154.627 83.0811 154.814 83.1559C154.16 85.264 153.668 87.3889 153.337 89.5138C153.136 89.5138 152.933 89.5174 152.728 89.5355C148.713 89.8939 145.528 93.5827 145.611 97.7746C145.695 101.968 149.017 105.076 153.032 104.718C153.242 104.7 153.448 104.666 153.652 104.63C154.072 106.708 154.646 108.737 155.37 110.702C155.186 110.81 155.002 110.921 154.823 111.047C151.388 113.453 150.29 118.202 152.369 121.654C154.45 125.107 161.335 126.71 164.77 124.304C164.947 124.181 162.696 123.292 162.86 123.157C164.217 124.657 165.704 126.046 167.314 127.315C167.201 127.501 167.09 127.689 166.989 127.886C165.055 131.695 166.339 136.232 169.858 138.019C173.376 139.805 177.796 138.165 179.731 134.356C179.831 134.159 179.918 133.958 180 133.757C181.974 134.309 183.973 134.689 185.985 134.9C185.973 135.111 185.963 135.324 185.967 135.538C186.051 139.731 189.373 142.84 193.388 142.481C197.402 142.123 200.588 138.434 200.504 134.242C200.5 134.023 200.482 133.809 200.46 133.597C202.474 133.022 204.451 132.289 206.376 131.401C206.468 131.588 206.562 131.774 206.672 131.953C208.752 135.406 213.221 136.254 216.657 133.847C220.091 131.441 221.189 126.691 219.11 123.239C219.004 123.063 218.887 122.897 218.769 122.733C220.29 121.212 221.714 119.561 223.03 117.788C223.201 117.896 223.373 117.999 223.555 118.092V118.094ZM179.693 118.65C166.918 112.164 162.254 95.6919 169.278 81.8587C176.301 68.0256 192.351 62.0695 205.127 68.5565C217.902 75.0423 222.566 91.5145 215.542 105.348C208.519 119.181 192.469 125.137 179.693 118.65Z" fill="url(#paint4_linear_45_1336)"/>
<path d="M232.092 97.6708C236.107 97.3125 239.292 93.6237 239.209 89.4318C239.125 85.2386 235.803 82.1302 231.788 82.4874C231.578 82.5067 231.372 82.5393 231.167 82.5755C230.748 80.4976 230.172 78.468 229.448 76.5036C229.633 76.3962 229.816 76.284 229.996 76.1585C233.43 73.7524 237.68 67.9387 235.256 64.7181C230.657 58.6064 225.898 61.2514 222.463 63.6574C222.287 63.7805 222.121 63.9145 221.957 64.0496C220.601 62.5497 219.113 61.1609 217.504 59.8914C217.617 59.7056 217.728 59.5174 217.828 59.3207C218.882 57.2476 218.974 54.961 218.278 53.0171C214.961 58.8561 211.689 64.7193 208.474 70.6139C218.666 78.0819 221.91 92.7995 215.54 105.346C210.142 115.98 199.411 121.949 188.933 121.201C188.466 122.413 188.007 123.632 187.507 124.832C186.148 128.09 184.606 131.28 183.061 134.467C184.032 134.65 185.008 134.794 185.987 134.896C185.975 135.109 185.964 135.32 185.969 135.535C186.053 139.728 188.598 143.29 195.874 142.904C199.898 142.69 200.591 138.432 200.506 134.239C200.502 134.019 200.484 133.806 200.462 133.593C202.476 133.019 204.453 132.285 206.378 131.397C206.47 131.584 206.564 131.77 206.674 131.95C208.754 135.402 215.97 136.868 219.404 134.462C222.838 132.056 221.191 126.687 219.112 123.235C219.006 123.058 218.889 122.893 218.771 122.73C220.292 121.209 221.716 119.557 223.032 117.785C223.203 117.892 223.375 117.996 223.557 118.089C227.076 119.876 231.496 118.235 233.431 114.425C235.366 110.616 234.082 106.079 230.563 104.292C230.381 104.199 230.195 104.122 230.008 104.047C230.662 101.939 231.154 99.8139 231.485 97.6889C231.687 97.6889 231.889 97.6853 232.094 97.666L232.092 97.6708Z" fill="url(#paint5_linear_45_1336)"/>
<path d="M227.341 118.523C230.86 120.309 235.28 118.669 237.214 114.86C239.148 111.05 237.864 106.513 234.346 104.726C234.163 104.633 233.978 104.556 233.791 104.481C234.445 102.373 234.937 100.248 235.268 98.1234C235.469 98.1234 235.672 98.1198 235.877 98.1005C239.891 97.7421 243.077 94.0534 242.994 89.8614C242.909 85.6683 239.587 82.5599 235.573 82.9171C235.363 82.9364 235.157 82.969 234.953 83.0052C234.533 80.9273 233.958 78.8977 233.234 76.9332C233.419 76.8246 233.602 76.7136 233.782 76.5881C237.216 74.1821 238.314 69.4326 236.234 65.9804C234.154 62.5281 229.683 61.681 226.249 64.0871C226.073 64.2102 225.907 64.3441 225.743 64.4793C224.387 62.9794 222.899 61.5893 221.29 60.3211C221.403 60.1353 221.514 59.947 221.614 59.7504C223.548 55.9409 222.265 51.4039 218.746 49.6168C215.227 47.831 210.807 49.4708 208.872 53.2802C208.772 53.4781 208.685 53.6784 208.601 53.8787C206.627 53.3273 204.628 52.946 202.616 52.736C202.629 52.5237 202.639 52.3113 202.635 52.0965C202.55 47.9033 199.228 44.795 195.214 45.1534C191.199 45.5117 188.013 49.2005 188.097 53.3925C188.101 53.6121 188.12 53.8257 188.141 54.0392C186.127 54.6136 184.15 55.3473 182.225 56.2341C182.133 56.0471 182.038 55.8613 181.929 55.6803C179.849 52.228 175.378 51.381 171.944 53.787C168.51 56.1931 167.412 60.9425 169.492 64.3948C169.599 64.5722 169.716 64.7375 169.834 64.9004C168.312 66.422 166.888 68.0727 165.572 69.8453C165.402 69.7391 165.229 69.6341 165.047 69.5412C161.528 67.7542 157.108 69.3952 155.174 73.2047C153.24 77.0141 154.524 81.5511 158.042 83.3382C158.225 83.4311 158.41 83.5083 158.597 83.5832C157.943 85.6912 157.451 87.8161 157.12 89.9411C156.919 89.9411 156.716 89.9447 156.511 89.9628C152.497 90.3212 149.311 94.0099 149.394 98.2019C149.479 102.395 152.801 105.503 156.815 105.145C157.025 105.127 157.231 105.093 157.435 105.057C157.855 107.135 158.43 109.164 159.154 111.129C158.969 111.237 158.786 111.348 158.606 111.474C155.172 113.88 154.074 118.629 156.154 122.082C158.234 125.534 162.705 126.381 166.139 123.975C166.315 123.852 166.481 123.719 166.645 123.583C168.001 125.083 169.489 126.473 171.098 127.741C170.985 127.927 170.874 128.115 170.774 128.312C168.84 132.121 170.123 136.658 173.642 138.445C177.161 140.231 181.581 138.591 183.516 134.782C183.616 134.585 183.703 134.384 183.785 134.183C185.759 134.735 187.759 135.115 189.77 135.326C189.758 135.537 189.747 135.75 189.752 135.966C189.837 140.159 193.159 143.267 197.173 142.909C201.188 142.55 204.373 138.862 204.29 134.67C204.285 134.45 204.267 134.236 204.245 134.024C206.259 133.45 208.237 132.716 210.162 131.828C210.253 132.015 210.349 132.201 210.457 132.381C212.538 135.833 217.007 136.681 220.442 134.274C223.877 131.868 224.975 127.118 222.896 123.666C222.789 123.49 222.672 123.325 222.554 123.16C224.075 121.639 225.5 119.988 226.816 118.216C226.986 118.323 227.159 118.427 227.341 118.52V118.523ZM183.478 119.08C170.703 112.594 166.039 96.1216 173.063 82.2884C180.086 68.4552 196.137 62.5004 208.912 68.9862C221.687 75.472 226.35 91.9441 219.326 105.777C212.304 119.61 196.252 125.565 183.478 119.08Z" fill="url(#paint6_linear_45_1336)"/>
<path d="M131.68 200.16C136.036 202.372 141.507 200.341 143.903 195.624C146.297 190.907 144.707 185.291 140.351 183.081C140.126 182.966 139.895 182.87 139.665 182.778C140.475 180.168 141.084 177.539 141.493 174.907C141.743 174.907 141.992 174.902 142.247 174.879C147.216 174.436 151.161 169.87 151.057 164.679C150.953 159.489 146.84 155.64 141.871 156.084C141.611 156.107 141.355 156.148 141.102 156.194C140.583 153.621 139.871 151.109 138.975 148.678C139.203 148.544 139.431 148.406 139.653 148.251C143.904 145.273 145.264 139.394 142.689 135.12C140.114 130.847 134.58 129.797 130.329 132.775C130.112 132.928 129.907 133.092 129.704 133.26C128.024 131.404 126.183 129.684 124.191 128.114C124.331 127.884 124.468 127.652 124.592 127.407C126.988 122.69 130.117 117.539 125.727 115.396C115.571 110.439 111.214 114.682 108.82 119.398C108.696 119.642 108.59 119.89 108.486 120.139C106.042 119.457 103.566 118.985 101.077 118.725C101.093 118.463 101.105 118.2 101.099 117.934C100.995 112.744 102.535 109.935 97.5463 109.839C86.6694 109.628 82.9987 114.348 83.1025 119.538C83.1073 119.81 83.1303 120.075 83.158 120.338C80.6651 121.049 78.2167 121.957 75.8348 123.055C75.7214 122.824 75.6043 122.594 75.4692 122.37C72.8941 118.097 67.3604 117.047 63.1093 120.026C58.8582 123.005 57.4983 128.884 60.0734 133.156C60.2049 133.376 60.3497 133.58 60.4969 133.783C58.6145 135.665 56.8504 137.71 55.2214 139.904C55.0102 139.771 54.7966 139.642 54.571 139.528C50.2149 137.316 44.7439 139.347 42.3487 144.063C39.9547 148.779 41.5438 154.396 45.8999 156.607C46.1255 156.721 46.356 156.818 46.5865 156.91C45.7768 159.52 45.1675 162.149 44.7584 164.781C44.5086 164.781 44.2576 164.785 44.0042 164.808C39.0352 165.251 35.0906 169.817 35.1944 175.008C35.2982 180.198 39.4117 184.046 44.3807 183.603C44.6401 183.58 44.896 183.539 45.1494 183.495C45.6682 186.067 46.3789 188.58 47.2767 191.011C47.0486 191.145 46.8206 191.283 46.5986 191.438C42.3475 194.416 40.9876 200.295 43.5626 204.569C46.1376 208.842 54.6615 210.828 58.9138 207.849C59.131 207.696 56.346 206.595 56.5487 206.429C58.2284 208.284 60.0697 210.005 62.0619 211.575C61.922 211.804 61.7844 212.037 61.6601 212.282C59.2661 216.998 60.8553 222.615 65.2113 224.825C69.5674 227.037 75.0384 225.006 77.4336 220.29C77.5579 220.046 77.6641 219.797 77.7679 219.549C80.2113 220.23 82.6874 220.702 85.1768 220.963C85.1611 221.225 85.149 221.488 85.155 221.753C85.2588 226.943 89.3723 230.791 94.3414 230.348C99.3104 229.905 103.255 225.338 103.151 220.148C103.146 219.877 103.123 219.611 103.096 219.348C105.589 218.638 108.037 217.729 110.419 216.631C110.532 216.863 110.649 217.093 110.785 217.316C113.36 221.589 118.893 222.639 123.144 219.661C127.395 216.682 128.755 210.804 126.18 206.53C126.049 206.312 125.904 206.106 125.757 205.905C127.639 204.022 129.403 201.977 131.032 199.783C131.244 199.916 131.457 200.045 131.683 200.16H131.68ZM77.3829 200.849C61.5684 192.82 55.7969 172.43 64.4909 155.306C73.185 138.182 93.0527 130.809 108.867 138.839C124.682 146.868 130.453 167.258 121.759 184.382C113.065 201.505 93.1975 208.878 77.3829 200.848V200.849Z" fill="url(#paint7_linear_45_1336)"/>
<path d="M142.247 174.879C147.216 174.436 151.16 169.869 151.056 164.679C150.953 159.489 146.839 155.64 141.87 156.084C141.611 156.107 141.355 156.148 141.102 156.193C140.583 153.62 139.871 151.108 138.974 148.677C139.202 148.543 139.43 148.405 139.652 148.248C143.903 145.27 149.163 138.072 146.165 134.086C140.472 126.52 134.581 129.795 130.328 132.773C130.111 132.926 129.906 133.09 129.703 133.258C128.024 131.402 126.182 129.681 124.19 128.111C124.33 127.882 124.468 127.649 124.592 127.404C125.895 124.838 126.01 122.008 125.149 119.602C121.043 126.83 116.991 134.088 113.013 141.385C125.628 150.629 129.645 168.848 121.76 184.381C115.077 197.543 101.793 204.934 88.8229 204.007C88.2437 205.508 87.6765 207.016 87.0563 208.502C85.3754 212.534 83.4653 216.484 81.5527 220.428C82.7558 220.655 83.9636 220.834 85.1751 220.96C85.1594 221.222 85.1474 221.485 85.1522 221.751C85.256 226.941 88.4078 231.351 97.4131 230.873C102.395 230.609 103.251 225.337 103.147 220.147C103.142 219.876 103.119 219.61 103.093 219.347C105.586 218.636 108.034 217.728 110.416 216.63C110.53 216.861 110.647 217.092 110.782 217.315C113.357 221.589 122.288 223.404 126.54 220.426C130.792 217.447 128.751 210.803 126.178 206.529C126.046 206.31 125.901 206.105 125.754 205.903C127.636 204.02 129.401 201.975 131.03 199.782C131.241 199.915 131.454 200.044 131.68 200.158C136.036 202.369 141.507 200.339 143.902 195.622C146.296 190.906 144.707 185.289 140.351 183.079C140.125 182.964 139.895 182.867 139.664 182.776C140.474 180.166 141.083 177.535 141.492 174.905C141.742 174.905 141.992 174.9 142.247 174.877V174.879Z" fill="url(#paint8_linear_45_1336)"/>
<path d="M136.365 200.694C140.721 202.905 146.192 200.875 148.587 196.158C150.981 191.441 149.392 185.825 145.036 183.614C144.81 183.5 144.58 183.403 144.349 183.312C145.159 180.702 145.768 178.072 146.177 175.44C146.427 175.44 146.677 175.436 146.933 175.413C151.902 174.97 155.846 170.404 155.743 165.213C155.639 160.023 151.525 156.174 146.556 156.618C146.297 156.641 146.041 156.682 145.788 156.728C145.269 154.155 144.557 151.643 143.66 149.211C143.888 149.077 144.117 148.94 144.339 148.784C148.59 145.806 149.95 139.927 147.374 135.653C144.799 131.38 139.266 130.331 135.015 133.309C134.797 133.462 134.591 133.626 134.39 133.794C132.71 131.938 130.869 130.217 128.876 128.647C129.016 128.418 129.154 128.185 129.278 127.94C131.672 123.223 130.083 117.608 125.727 115.397C121.371 113.185 115.899 115.216 113.505 119.933C113.38 120.177 113.274 120.425 113.17 120.674C110.727 119.992 108.251 119.52 105.762 119.259C105.777 118.998 105.789 118.735 105.784 118.468C105.681 113.278 101.567 109.43 96.5981 109.873C91.6291 110.316 87.6845 114.882 87.7883 120.073C87.7943 120.344 87.816 120.61 87.8438 120.873C85.3508 121.583 82.9037 122.492 80.5206 123.59C80.4071 123.358 80.2901 123.129 80.1549 122.905C77.5799 118.632 72.0462 117.582 67.7951 120.56C63.544 123.539 62.1841 129.417 64.7591 133.691C64.8907 133.91 65.0355 134.115 65.1827 134.317C63.3003 136.2 61.5361 138.245 59.9071 140.438C59.696 140.306 59.4824 140.176 59.2567 140.062C54.9007 137.851 49.4297 139.881 47.0345 144.598C44.6404 149.314 46.2296 154.931 50.5857 157.141C50.8113 157.256 51.0418 157.353 51.2723 157.444C50.4626 160.054 49.852 162.684 49.4442 165.315C49.1944 165.315 48.9434 165.32 48.6888 165.343C43.7198 165.786 39.7752 170.353 39.879 175.543C39.9827 180.733 44.0962 184.581 49.0653 184.138C49.3247 184.115 49.5805 184.074 49.8339 184.029C50.3528 186.601 51.0635 189.114 51.9613 191.546C51.732 191.68 51.5051 191.817 51.2831 191.973C47.0321 194.951 45.6721 200.83 48.2472 205.104C50.8222 209.378 56.3559 210.426 60.607 207.448C60.8254 207.295 61.0305 207.131 61.2321 206.963C62.9117 208.819 64.7531 210.54 66.7453 212.11C66.6053 212.339 66.4678 212.572 66.3435 212.817C63.9495 217.532 65.5386 223.149 69.8947 225.36C74.2507 227.572 79.723 225.541 82.117 220.824C82.2413 220.58 82.3475 220.332 82.4512 220.083C84.8947 220.765 87.3708 221.237 89.8601 221.498C89.8444 221.759 89.8324 222.022 89.8372 222.289C89.941 227.479 94.0545 231.327 99.0235 230.884C103.993 230.441 107.937 225.875 107.833 220.684C107.827 220.413 107.806 220.147 107.778 219.884C110.271 219.174 112.719 218.265 115.101 217.167C115.215 217.399 115.332 217.629 115.467 217.852C118.042 222.126 123.575 223.175 127.827 220.197C132.078 217.218 133.438 211.34 130.863 207.066C130.731 206.847 130.586 206.642 130.439 206.441C132.321 204.558 134.086 202.513 135.715 200.319C135.926 200.452 136.139 200.581 136.365 200.696V200.694ZM82.0687 201.381C66.2542 193.352 60.4827 172.962 69.1767 155.838C77.8707 138.714 97.7384 131.342 113.553 139.372C129.367 147.401 135.139 167.791 126.445 184.915C117.751 202.039 97.8832 209.412 82.0687 201.381Z" fill="url(#paint9_linear_45_1336)"/>
<path d="M306.165 126.07L204.634 124.999C199.833 124.949 195.926 129.018 195.926 134.087V294.365C195.926 299.435 199.833 303.275 204.634 302.945L306.165 295.951C310.523 295.651 314.042 291.514 314.042 286.712V134.851C314.042 130.047 310.523 126.116 306.165 126.07Z" fill="url(#paint10_linear_45_1336)"/>
<g style="mix-blend-mode:soft-light" opacity="0.74">
<path d="M198.714 291.929V136.359C198.714 131.667 202.327 127.897 206.766 127.938L304.218 128.838C308.264 128.875 311.533 132.518 311.533 136.974V284.73C311.533 289.186 308.264 293.02 304.218 293.294L206.766 299.88C202.325 300.18 198.714 296.621 198.714 291.928V291.929Z" fill="white"/>
</g>
<path d="M306.167 126.07L204.636 124.999C199.835 124.949 195.928 129.018 195.928 134.087V140.672L314.044 141.089V134.851C314.044 130.047 310.524 126.116 306.167 126.07Z" fill="url(#paint11_linear_45_1336)"/>
<path d="M306.2 133.439C306.2 135.073 304.958 136.389 303.423 136.381C301.887 136.372 300.641 135.038 300.641 133.4C300.641 131.763 301.887 130.445 303.423 130.458C304.957 130.47 306.2 131.805 306.2 133.439Z" fill="white"/>
<path d="M304.848 256.92L206.078 261.918V168.317L304.848 167.449V256.92Z" fill="url(#paint12_linear_45_1336)"/>
<path d="M304.848 267.415L206.078 272.896V268.228L304.848 262.952V267.415Z" fill="white"/>
<path d="M304.848 278.361L206.078 284.349V279.68L304.848 273.899V278.361Z" fill="white"/>
<path d="M281.938 157.043L206.079 157.339V162.008L281.938 161.554V157.043Z" fill="white"/>
<path d="M296.434 156.987V161.467L304.849 161.416V156.954L296.434 156.987Z" fill="white"/>
<g opacity="0.15">
<path d="M279.487 221.867C263.161 200.374 242.68 199.758 231.275 176.759C223.018 160.11 224.189 141.153 227.854 125.243L204.635 124.998C199.834 124.947 195.927 129.016 195.927 134.086V294.364C195.927 299.433 199.834 303.274 204.635 302.943L295.921 296.656C298.731 256.065 288.963 234.342 279.487 221.867Z" fill="white"/>
</g>
<g style="mix-blend-mode:soft-light">
<path d="M222.574 177.062L212.139 177.202L212.154 172.56L222.591 172.451L222.574 177.062Z" fill="white"/>
<path d="M278.659 176.31L229.244 176.973L229.262 172.383L278.68 171.869L278.659 176.31Z" fill="white"/>
<path d="M239.42 184.622L229.215 184.811L229.233 180.222L239.438 180.063L239.42 184.622Z" fill="white"/>
<path d="M294.29 183.603L245.944 184.501L245.964 179.962L294.312 179.211L294.29 183.603Z" fill="white"/>
<path d="M239.387 192.406L229.184 192.647L229.202 188.061L239.405 187.85L239.387 192.406Z" fill="white"/>
<path d="M294.253 191.105L245.913 192.251L245.931 187.714L294.275 186.714L294.253 191.105Z" fill="white"/>
<path d="M222.484 200.675L212.053 200.976L212.07 196.338L222.502 196.068L222.484 200.675Z" fill="white"/>
<path d="M278.554 199.057L229.154 200.482L229.172 195.897L278.574 194.619L278.554 199.057Z" fill="white"/>
<path d="M239.326 207.968L229.125 208.316L229.143 203.731L239.344 203.414L239.326 207.968Z" fill="white"/>
<path d="M294.179 206.103L245.849 207.746L245.867 203.212L294.201 201.714L294.179 206.103Z" fill="white"/>
<path d="M239.294 215.748L229.094 216.147L229.112 211.563L239.312 211.194L239.294 215.748Z" fill="white"/>
<path d="M294.143 213.6L245.816 215.492L245.836 210.958L294.165 209.211L294.143 213.6Z" fill="white"/>
<path d="M239.264 223.523L229.065 223.976L229.082 219.393L239.282 218.972L239.264 223.523Z" fill="white"/>
<path d="M294.105 221.094L245.784 223.235L245.802 218.702L294.127 216.707L294.105 221.094Z" fill="white"/>
<path d="M255.883 230.475L245.91 230.969L245.928 226.438L255.903 225.974L255.883 230.475Z" fill="white"/>
<path d="M301.605 228.214L262.262 230.16L262.281 225.677L301.628 223.85L301.605 228.214Z" fill="white"/>
<path d="M222.337 239.992L211.91 240.56L211.927 235.928L222.354 235.391L222.337 239.992Z" fill="white"/>
<path d="M278.377 236.932L229.004 239.628L229.021 235.047L278.399 232.5L278.377 236.932Z" fill="white"/>
<path d="M239.168 246.841L228.973 247.45L228.99 242.871L239.186 242.293L239.168 246.841Z" fill="white"/>
<path d="M293.995 243.567L245.688 246.452L245.707 241.923L294.017 239.182L293.995 243.567Z" fill="white"/>
<path d="M239.137 254.611L228.943 255.272L228.96 250.693L239.155 250.063L239.137 254.611Z" fill="white"/>
<path d="M293.959 251.053L245.657 254.187L245.675 249.66L293.98 246.671L293.959 251.053Z" fill="white"/>
</g>
<path d="M15.1423 319.578L14.1564 317.899C12.5842 315.221 13.5603 311.818 16.3357 310.305L125.172 250.979L131.185 262.243L22.9795 321.661C20.2199 323.177 16.7109 322.246 15.1435 319.577L15.1423 319.578Z" fill="url(#paint13_linear_45_1336)"/>
<path d="M207.266 284.156C176.22 301.801 136.677 290.299 119.072 257.494C101.044 223.899 113.275 181.794 146.236 164.478C178.604 147.474 217.758 161.438 233.871 194.686C249.618 227.176 237.775 266.817 207.266 284.157V284.156ZM202.566 274.938C228.344 260.375 238.317 226.926 224.948 199.566C211.319 171.672 178.41 160.112 151.318 174.44C123.812 188.988 113.565 224.174 128.542 252.312C143.223 279.895 176.407 289.717 202.566 274.938Z" fill="url(#paint14_linear_45_1336)"/>
<g style="mix-blend-mode:multiply" opacity="0.3">
<path d="M125.172 250.98L111.295 258.544C111.253 263.476 109.836 266.589 108.188 268.648C101.987 276.391 90.6055 271.689 78.1709 281.832C71.9312 286.921 73.7388 288.969 67.7103 292.867C57.7433 299.309 51.5821 294.503 42.7831 300.311C33.8827 306.186 34.6538 314.755 29.0911 315.589C26.7115 315.946 23.3293 314.859 18.6124 309.066L16.3366 310.307C13.5613 311.82 12.5851 315.222 14.1574 317.9L15.1433 319.58C16.7107 322.249 20.2197 323.179 22.9793 321.664L131.184 262.245L125.172 250.981V250.98Z" fill="#D8DEE8"/>
</g>
<path d="M210.135 286.7C179.089 304.345 139.546 292.843 121.941 260.037C103.914 226.442 116.144 184.337 149.106 167.022C181.473 150.017 220.627 163.982 236.741 197.229C252.488 229.72 240.644 269.361 210.135 286.701V286.7ZM205.435 277.483C231.213 262.92 241.186 229.471 227.817 202.111C214.187 174.217 181.278 162.657 154.187 176.985C126.681 191.532 116.434 226.719 131.411 254.857C146.093 282.44 179.276 292.262 205.435 277.483Z" fill="url(#paint15_linear_45_1336)"/>
<path d="M208.477 283.448C179.155 300.078 141.863 289.162 125.297 258.203C108.356 226.541 119.884 186.892 150.909 170.553C181.406 154.494 218.353 167.6 233.592 198.953C248.503 229.633 237.32 267.09 208.477 283.448ZM205.435 277.483C231.213 262.92 241.186 229.471 227.818 202.111C214.187 174.217 181.278 162.657 154.187 176.985C126.681 191.533 116.434 226.719 131.411 254.857C146.093 282.44 179.276 292.262 205.435 277.483Z" fill="url(#paint16_linear_45_1336)"/>
<path d="M174.289 0.144777C87.7788 -2.48213 12.8426 62.0707 1.5217 146.772C-10.8562 239.381 57.2731 322.709 141.104 336.054C245.375 352.654 346.511 256.621 337.431 152.439C330.588 73.9455 262.228 2.81512 174.289 0.144777Z" fill="#F4F7FA"/>
<path d="M95.7173 197.723L97.1315 204.97C93.9761 206.22 90.9642 207.72 88.1334 209.465L83.2995 203.914C81.9806 202.4 79.6807 202.258 78.1603 203.597L68.647 211.981C67.1242 213.322 66.9565 215.643 68.273 217.163L73.1491 222.791C71.0519 225.426 69.1792 228.238 67.5562 231.197L60.4948 228.795C58.5907 228.147 56.508 229.188 55.8431 231.117L51.6765 243.21C51.0092 245.148 52.0132 247.248 53.9221 247.899L61.0076 250.321C60.4815 253.63 60.2474 257.014 60.2981 260.44L52.8844 261.952C50.8946 262.357 49.5854 264.319 49.9606 266.336L52.3161 278.968C52.6937 280.993 54.6184 282.305 56.6142 281.898L64.0496 280.381C65.2515 283.597 66.7043 286.667 68.4045 289.556L62.6873 294.637C61.1452 296.008 60.9739 298.382 62.3048 299.941L70.6428 309.712C71.9786 311.277 74.3147 311.431 75.858 310.054L81.5752 304.957C84.1949 307.113 86.9979 309.029 89.9494 310.692L87.4891 318.003C86.823 319.983 87.8511 322.132 89.7878 322.803L101.907 327.003C103.848 327.675 105.958 326.611 106.619 324.627L109.04 317.372C112.364 317.901 115.765 318.122 119.206 318.047L120.672 325.558C121.074 327.614 123.031 328.948 125.045 328.538L137.636 325.97C139.648 325.56 140.95 323.561 140.544 321.506L139.068 314.059C142.294 312.792 145.369 311.26 148.257 309.475L153.16 315.136C154.522 316.707 156.872 316.862 158.408 315.481L168.004 306.852C169.536 305.474 169.672 303.087 168.309 301.521L163.421 295.908C165.554 293.194 167.444 290.294 169.075 287.246L176.035 289.624C177.98 290.289 180.077 289.231 180.718 287.263L184.718 274.977C185.357 273.016 184.3 270.891 182.359 270.231L175.466 267.886C175.959 264.499 176.144 261.039 176.034 257.542L183.145 256.091C185.141 255.685 186.421 253.719 186.003 251.703L183.398 239.121C182.982 237.113 181.032 235.816 179.042 236.221L171.953 237.667C170.682 234.43 169.158 231.349 167.385 228.46L172.769 223.66C174.283 222.31 174.416 219.978 173.067 218.452L164.647 208.925C163.302 207.405 160.988 207.262 159.476 208.607L154.057 213.424C151.402 211.311 148.573 209.433 145.596 207.819L147.897 200.921C148.538 199.002 147.505 196.927 145.592 196.285L133.641 192.278C131.733 191.639 129.663 192.672 129.019 194.585L126.692 201.498C123.403 201.012 120.041 200.821 116.641 200.925L115.217 193.741C114.825 191.764 112.907 190.487 110.935 190.89L98.594 193.408C96.6199 193.811 95.3336 195.739 95.7197 197.718L95.7173 197.723ZM81.6355 266.428C77.7513 246.109 90.8484 226.416 110.867 222.334C130.885 218.252 150.423 231.288 154.525 251.563C158.653 271.96 145.612 291.933 125.373 296.06C105.134 300.188 85.5427 286.87 81.6355 266.428Z" fill="#D8DEE8"/>
<path d="M159.835 165.29L160.251 167.421C159.324 167.789 158.438 168.229 157.605 168.743L156.184 167.111C155.796 166.666 155.12 166.623 154.673 167.018L151.875 169.483C151.427 169.878 151.378 170.561 151.765 171.007L153.199 172.663C152.582 173.437 152.03 174.264 151.554 175.135L149.477 174.429C148.917 174.239 148.304 174.545 148.109 175.112L146.883 178.668C146.686 179.238 146.982 179.856 147.543 180.047L149.627 180.759C149.472 181.732 149.404 182.727 149.418 183.735L147.238 184.179C146.652 184.298 146.267 184.875 146.378 185.468L147.071 189.183C147.182 189.778 147.748 190.164 148.334 190.045L150.521 189.598C150.874 190.544 151.302 191.447 151.801 192.296L150.12 193.791C149.667 194.194 149.616 194.893 150.008 195.352L152.46 198.225C152.853 198.684 153.54 198.73 153.994 198.326L155.675 196.827C156.444 197.461 157.27 198.024 158.137 198.514L157.413 200.664C157.218 201.247 157.52 201.878 158.089 202.076L161.654 203.312C162.224 203.51 162.845 203.197 163.039 202.613L163.751 200.48C164.728 200.635 165.728 200.701 166.741 200.679L167.172 202.887C167.29 203.492 167.866 203.884 168.458 203.763L172.161 203.008C172.754 202.887 173.136 202.299 173.017 201.695L172.582 199.505C173.532 199.132 174.436 198.682 175.285 198.157L176.727 199.822C177.128 200.284 177.819 200.33 178.271 199.924L181.093 197.386C181.544 196.981 181.584 196.278 181.182 195.818L179.745 194.168C180.373 193.37 180.929 192.517 181.408 191.621L183.454 192.32C184.026 192.516 184.643 192.205 184.831 191.627L186.008 188.014C186.196 187.437 185.885 186.812 185.314 186.618L183.287 185.929C183.431 184.933 183.486 183.915 183.454 182.887L185.546 182.461C186.132 182.341 186.508 181.763 186.387 181.17L185.62 177.47C185.498 176.88 184.924 176.497 184.339 176.617L182.254 177.042C181.88 176.09 181.432 175.183 180.911 174.334L182.494 172.922C182.939 172.525 182.979 171.84 182.582 171.391L180.106 168.589C179.71 168.141 179.03 168.1 178.585 168.495L176.991 169.911C176.211 169.29 175.378 168.737 174.503 168.263L175.18 166.235C175.369 165.67 175.064 165.059 174.502 164.871L170.987 163.692C170.426 163.504 169.817 163.808 169.627 164.37L168.943 166.404C167.975 166.26 166.987 166.205 165.987 166.235L165.568 164.122C165.452 163.54 164.889 163.165 164.308 163.283L160.679 164.023C160.098 164.141 159.719 164.708 159.833 165.29H159.835ZM155.694 185.495C154.551 179.52 158.403 173.728 164.29 172.527C170.177 171.327 175.922 175.16 177.129 181.124C178.343 187.122 174.508 192.996 168.556 194.21C162.603 195.424 156.843 191.507 155.693 185.495H155.694Z" fill="#D8DEE8"/>
<path d="M222.386 70.8021L29.4491 64.4623C22.979 64.25 17.7119 69.3529 17.7119 75.8629V263.909C17.7119 270.418 22.979 275.47 29.4491 275.194L222.386 266.955C227.967 266.717 232.473 261.652 232.473 255.642V82.0157C232.473 76.0053 227.966 70.9856 222.386 70.8021Z" fill="#0069B8"/>
<path d="M29.4482 271.445C25.0475 271.627 21.4697 268.188 21.4697 263.763V75.9691C21.4697 71.5443 25.0475 68.0703 29.4482 68.2091L222.386 74.2895C226.187 74.4089 229.261 77.8262 229.261 81.9228V255.764C229.261 259.861 226.187 263.308 222.386 263.465L29.4494 271.445H29.4482Z" fill="url(#paint17_linear_45_1336)"/>
<path d="M222.386 70.8021L29.4491 64.4623C22.979 64.25 17.7119 69.3529 17.7119 75.8629V84.318L232.474 89.8228V82.0169C232.474 76.0065 227.967 70.9868 222.387 70.8033L222.386 70.8021Z" fill="#0069B8"/>
<path d="M38.5803 75.3261C38.5803 77.4402 36.8777 79.1078 34.7745 79.0498C32.6688 78.9919 30.959 77.2254 30.959 75.1053C30.959 72.9852 32.6688 71.3175 34.7745 71.3827C36.8777 71.4467 38.5803 73.2132 38.5803 75.3273V75.3261Z" fill="white"/>
<path d="M51.8633 75.7121C51.8633 77.8165 50.1776 79.4757 48.0937 79.4178C46.0074 79.3598 44.3145 77.6029 44.3145 75.4925C44.3145 73.382 46.0074 71.7229 48.0937 71.7868C50.1764 71.8508 51.8633 73.6077 51.8633 75.7121Z" fill="white"/>
<path d="M65.0194 76.0947C65.0194 78.1895 63.3494 79.8402 61.286 79.7835C59.2202 79.7268 57.543 77.9771 57.543 75.8775C57.543 73.7779 59.2202 72.126 61.286 72.1887C63.3494 72.2515 65.0194 73.9999 65.0194 76.0947Z" fill="white"/>
<path d="M133.301 107.846L31.3926 106.014V112.005L133.301 113.618V107.846Z" fill="white"/>
<g style="mix-blend-mode:soft-light">
<path d="M52.9366 126.662L31.3916 126.433V120.254L52.9366 120.531V126.662Z" fill="white"/>
<path d="M168.034 127.888L66.6914 126.808V120.708L168.034 122.012V127.888Z" fill="white"/>
<path d="M87.6958 137.374L66.6914 137.23V131.129L87.6958 131.32V137.374Z" fill="white"/>
<path d="M199.977 138.143L101.106 137.465V131.442L199.977 132.338V138.143Z" fill="white"/>
<path d="M87.6958 147.715L66.6914 147.651V141.55L87.6958 141.661V147.715Z" fill="white"/>
<path d="M199.977 148.06L101.106 147.756V141.732L199.977 142.255V148.06Z" fill="white"/>
<path d="M52.9366 158.081L31.3916 158.097V151.917L52.9366 151.95V158.081Z" fill="white"/>
<path d="M168.034 157.999L66.6914 158.072V151.971L168.034 152.123V157.999Z" fill="white"/>
<path d="M87.6958 168.397L66.6914 168.492V162.391L87.6958 162.343V168.397Z" fill="white"/>
<path d="M199.977 167.893L101.106 168.337V162.313L199.977 162.087V167.893Z" fill="white"/>
<path d="M87.6958 178.739L66.6914 178.913V172.812L87.6958 172.684V178.739Z" fill="white"/>
<path d="M199.977 177.808L101.106 178.627V172.603L199.977 172.002V177.808Z" fill="white"/>
<path d="M87.6958 189.08L66.6914 189.334V183.233L87.6958 183.026V189.08Z" fill="white"/>
<path d="M199.977 187.724L101.106 188.919V182.894L199.977 181.919V187.724Z" fill="white"/>
<path d="M121.909 198.879L101.43 199.203V193.18L121.909 192.901V198.879Z" fill="white"/>
<path d="M215.319 197.397L134.988 198.671V192.722L215.319 191.625V197.397Z" fill="white"/>
<path d="M52.9366 210.445L31.3916 210.869V204.69L52.9366 204.314V210.445Z" fill="white"/>
<path d="M168.034 208.184L66.6914 210.175V204.074L168.034 202.308V208.184Z" fill="white"/>
<path d="M87.6958 220.104L66.6914 220.596V214.495L87.6958 214.05V220.104Z" fill="white"/>
<path d="M199.977 217.472L101.106 219.79V213.765L199.977 211.667V217.472Z" fill="white"/>
<path d="M87.6958 230.445L66.6914 231.017V224.916L87.6958 224.391V230.445Z" fill="white"/>
<path d="M199.977 227.388L101.106 230.08V224.055L199.977 221.583V227.388Z" fill="white"/>
<path d="M52.9366 241.865L31.3916 242.533V236.354L52.9366 235.734V241.865Z" fill="white"/>
<path d="M168.034 238.295L66.6914 241.438V235.338L168.034 232.419V238.295Z" fill="white"/>
<path d="M87.6958 251.128L66.6914 251.858V245.759L87.6958 245.073V251.128Z" fill="white"/>
<path d="M199.977 247.221L101.106 250.661V244.636L199.977 241.416V247.221Z" fill="white"/>
</g>
<g style="mix-blend-mode:multiply" opacity="0.3">
<path d="M147.39 143.092C124.855 110.301 85.8497 120.734 61.1747 84.505C56.7245 77.9709 53.7055 71.3222 51.6348 65.1912L29.4491 64.4623C22.979 64.25 17.7119 69.3529 17.7119 75.8629V263.909C17.7119 270.418 22.979 275.47 29.4491 275.194L215.321 267.258C211.063 261.117 173.977 238.37 164.396 203.446C155.635 171.507 160.986 162.877 147.391 143.093L147.39 143.092Z" fill="url(#paint18_linear_45_1336)"/>
</g>
<path d="M223.555 118.094C227.074 119.879 231.494 118.24 233.429 114.43C235.364 110.621 234.08 106.084 230.561 104.297C230.379 104.204 230.193 104.126 230.006 104.052C230.66 101.944 231.152 99.8187 231.483 97.6938C231.685 97.6938 231.887 97.6902 232.092 97.6709C236.107 97.3125 239.293 93.6237 239.209 89.4318C239.125 85.2386 235.803 82.1302 231.788 82.4874C231.578 82.5067 231.372 82.5393 231.167 82.5755C230.747 80.4976 230.173 78.468 229.449 76.5036C229.633 76.395 229.817 76.284 229.997 76.1585C233.431 73.7524 234.529 69.003 232.448 65.5507C230.368 62.0984 225.899 61.2514 222.463 63.6574C222.287 63.7805 222.122 63.9145 221.958 64.0496C220.601 62.5497 219.114 61.1609 217.504 59.8915C217.617 59.7056 217.728 59.5174 217.829 59.3207C219.763 55.5113 222.291 51.3495 218.744 49.6179C210.541 45.613 207.02 49.0411 205.086 52.8518C204.986 53.0497 204.899 53.25 204.817 53.4503C202.843 52.8988 200.844 52.5175 198.832 52.3076C198.844 52.0952 198.854 51.884 198.85 51.6693C198.766 47.4761 200.01 45.2076 195.981 45.1291C187.194 44.959 184.229 48.7721 184.313 52.9652C184.318 53.1848 184.336 53.3984 184.358 53.612C182.344 54.1864 180.366 54.92 178.442 55.8069C178.35 55.6199 178.255 55.434 178.146 55.253C176.066 51.8008 171.595 50.9537 168.161 53.3598C164.727 55.7659 163.629 60.5153 165.709 63.9676C165.815 64.1449 165.932 64.3103 166.051 64.4732C164.529 65.9948 163.105 67.6455 161.789 69.4181C161.619 69.3107 161.446 69.2069 161.264 69.114C157.745 67.3269 153.325 68.968 151.391 72.7774C149.457 76.5868 150.74 81.1239 154.259 82.911C154.441 83.0039 154.627 83.0811 154.814 83.1559C154.16 85.264 153.668 87.3889 153.337 89.5138C153.136 89.5138 152.933 89.5174 152.728 89.5355C148.713 89.8939 145.528 93.5827 145.611 97.7746C145.695 101.968 149.017 105.076 153.032 104.718C153.242 104.7 153.448 104.666 153.652 104.63C154.072 106.708 154.646 108.737 155.37 110.702C155.186 110.81 155.002 110.921 154.823 111.047C151.388 113.453 150.29 118.202 152.369 121.654C154.45 125.107 161.335 126.71 164.77 124.304C164.947 124.181 162.696 123.292 162.86 123.157C164.217 124.657 165.704 126.046 167.314 127.315C167.201 127.501 167.09 127.689 166.989 127.886C165.055 131.695 166.339 136.232 169.858 138.019C173.376 139.805 177.796 138.165 179.731 134.356C179.831 134.159 179.918 133.958 180 133.757C181.974 134.309 183.973 134.689 185.985 134.9C185.973 135.111 185.963 135.324 185.967 135.538C186.051 139.731 189.373 142.84 193.388 142.481C197.402 142.123 200.588 138.434 200.504 134.242C200.5 134.023 200.482 133.809 200.46 133.597C202.474 133.022 204.451 132.289 206.376 131.401C206.468 131.588 206.562 131.774 206.672 131.953C208.752 135.406 213.221 136.254 216.657 133.847C220.091 131.441 221.189 126.691 219.11 123.239C219.004 123.063 218.887 122.897 218.769 122.733C220.29 121.212 221.714 119.561 223.03 117.788C223.201 117.896 223.373 117.999 223.555 118.092V118.094ZM179.693 118.65C166.918 112.164 162.254 95.6919 169.278 81.8587C176.301 68.0256 192.351 62.0695 205.127 68.5565C217.902 75.0423 222.566 91.5145 215.542 105.348C208.519 119.181 192.469 125.137 179.693 118.65Z" fill="url(#paint19_linear_45_1336)"/>
<path d="M232.092 97.6708C236.107 97.3125 239.292 93.6237 239.209 89.4318C239.125 85.2386 235.803 82.1302 231.788 82.4874C231.578 82.5067 231.372 82.5393 231.167 82.5755C230.748 80.4976 230.172 78.468 229.448 76.5036C229.633 76.3962 229.816 76.284 229.996 76.1585C233.43 73.7524 237.68 67.9387 235.256 64.7181C230.657 58.6064 225.898 61.2514 222.463 63.6574C222.287 63.7805 222.121 63.9145 221.957 64.0496C220.601 62.5497 219.113 61.1609 217.504 59.8914C217.617 59.7056 217.728 59.5174 217.828 59.3207C218.882 57.2476 218.974 54.961 218.278 53.0171C214.961 58.8561 211.689 64.7193 208.474 70.6139C218.666 78.0819 221.91 92.7995 215.54 105.346C210.142 115.98 199.411 121.949 188.933 121.201C188.466 122.413 188.007 123.632 187.507 124.832C186.148 128.09 184.606 131.28 183.061 134.467C184.032 134.65 185.008 134.794 185.987 134.896C185.975 135.109 185.964 135.32 185.969 135.535C186.053 139.728 188.598 143.29 195.874 142.904C199.898 142.69 200.591 138.432 200.506 134.239C200.502 134.019 200.484 133.806 200.462 133.593C202.476 133.019 204.453 132.285 206.378 131.397C206.47 131.584 206.564 131.77 206.674 131.95C208.754 135.402 215.97 136.868 219.404 134.462C222.838 132.056 221.191 126.687 219.112 123.235C219.006 123.058 218.889 122.893 218.771 122.73C220.292 121.209 221.716 119.557 223.032 117.785C223.203 117.892 223.375 117.996 223.557 118.089C227.076 119.876 231.496 118.235 233.431 114.425C235.366 110.616 234.082 106.079 230.563 104.292C230.381 104.199 230.195 104.122 230.008 104.047C230.662 101.939 231.154 99.8139 231.485 97.6889C231.687 97.6889 231.889 97.6853 232.094 97.666L232.092 97.6708Z" fill="url(#paint20_linear_45_1336)"/>
<path d="M227.341 118.523C230.86 120.309 235.28 118.669 237.214 114.86C239.148 111.05 237.864 106.513 234.346 104.726C234.163 104.633 233.978 104.556 233.791 104.481C234.445 102.373 234.937 100.248 235.268 98.1234C235.469 98.1234 235.672 98.1198 235.877 98.1005C239.891 97.7421 243.077 94.0534 242.994 89.8614C242.909 85.6683 239.587 82.5599 235.573 82.9171C235.363 82.9364 235.157 82.969 234.953 83.0052C234.533 80.9273 233.958 78.8977 233.234 76.9332C233.419 76.8246 233.602 76.7136 233.782 76.5881C237.216 74.1821 238.314 69.4326 236.234 65.9804C234.154 62.5281 229.683 61.681 226.249 64.0871C226.073 64.2102 225.907 64.3441 225.743 64.4793C224.387 62.9794 222.899 61.5893 221.29 60.3211C221.403 60.1353 221.514 59.947 221.614 59.7504C223.548 55.9409 222.265 51.4039 218.746 49.6168C215.227 47.831 210.807 49.4708 208.872 53.2802C208.772 53.4781 208.685 53.6784 208.601 53.8787C206.627 53.3273 204.628 52.946 202.616 52.736C202.629 52.5237 202.639 52.3113 202.635 52.0965C202.55 47.9033 199.228 44.795 195.214 45.1534C191.199 45.5117 188.013 49.2005 188.097 53.3925C188.101 53.6121 188.12 53.8257 188.141 54.0392C186.127 54.6136 184.15 55.3473 182.225 56.2341C182.133 56.0471 182.038 55.8613 181.929 55.6803C179.849 52.228 175.378 51.381 171.944 53.787C168.51 56.1931 167.412 60.9425 169.492 64.3948C169.599 64.5722 169.716 64.7375 169.834 64.9004C168.312 66.422 166.888 68.0727 165.572 69.8453C165.402 69.7391 165.229 69.6341 165.047 69.5412C161.528 67.7542 157.108 69.3952 155.174 73.2047C153.24 77.0141 154.524 81.5511 158.042 83.3382C158.225 83.4311 158.41 83.5083 158.597 83.5832C157.943 85.6912 157.451 87.8161 157.12 89.9411C156.919 89.9411 156.716 89.9447 156.511 89.9628C152.497 90.3212 149.311 94.0099 149.394 98.2019C149.479 102.395 152.801 105.503 156.815 105.145C157.025 105.127 157.231 105.093 157.435 105.057C157.855 107.135 158.43 109.164 159.154 111.129C158.969 111.237 158.786 111.348 158.606 111.474C155.172 113.88 154.074 118.629 156.154 122.082C158.234 125.534 162.705 126.381 166.139 123.975C166.315 123.852 166.481 123.719 166.645 123.583C168.001 125.083 169.489 126.473 171.098 127.741C170.985 127.927 170.874 128.115 170.774 128.312C168.84 132.121 170.123 136.658 173.642 138.445C177.161 140.231 181.581 138.591 183.516 134.782C183.616 134.585 183.703 134.384 183.785 134.183C185.759 134.735 187.759 135.115 189.77 135.326C189.758 135.537 189.747 135.75 189.752 135.966C189.837 140.159 193.159 143.267 197.173 142.909C201.188 142.55 204.373 138.862 204.29 134.67C204.285 134.45 204.267 134.236 204.245 134.024C206.259 133.45 208.237 132.716 210.162 131.828C210.253 132.015 210.349 132.201 210.457 132.381C212.538 135.833 217.007 136.681 220.442 134.274C223.877 131.868 224.975 127.118 222.896 123.666C222.789 123.49 222.672 123.325 222.554 123.16C224.075 121.639 225.5 119.988 226.816 118.216C226.986 118.323 227.159 118.427 227.341 118.52V118.523ZM183.478 119.08C170.703 112.594 166.039 96.1216 173.063 82.2884C180.086 68.4552 196.137 62.5004 208.912 68.9862C221.687 75.472 226.35 91.9441 219.326 105.777C212.304 119.61 196.252 125.565 183.478 119.08Z" fill="url(#paint21_linear_45_1336)"/>
<path d="M131.68 200.16C136.036 202.372 141.507 200.341 143.903 195.624C146.297 190.907 144.707 185.291 140.351 183.081C140.126 182.966 139.895 182.87 139.665 182.778C140.475 180.168 141.084 177.539 141.493 174.907C141.743 174.907 141.992 174.902 142.247 174.879C147.216 174.436 151.161 169.87 151.057 164.679C150.953 159.489 146.84 155.64 141.871 156.084C141.611 156.107 141.355 156.148 141.102 156.194C140.583 153.621 139.871 151.109 138.975 148.678C139.203 148.544 139.431 148.406 139.653 148.251C143.904 145.273 145.264 139.394 142.689 135.12C140.114 130.847 134.58 129.797 130.329 132.775C130.112 132.928 129.907 133.092 129.704 133.26C128.024 131.404 126.183 129.684 124.191 128.114C124.331 127.884 124.468 127.652 124.592 127.407C126.988 122.69 130.117 117.539 125.727 115.396C115.571 110.439 111.214 114.682 108.82 119.398C108.696 119.642 108.59 119.89 108.486 120.139C106.042 119.457 103.566 118.985 101.077 118.725C101.093 118.463 101.105 118.2 101.099 117.934C100.995 112.744 102.535 109.935 97.5463 109.839C86.6694 109.628 82.9987 114.348 83.1025 119.538C83.1073 119.81 83.1303 120.075 83.158 120.338C80.6651 121.049 78.2167 121.957 75.8348 123.055C75.7214 122.824 75.6043 122.594 75.4692 122.37C72.8941 118.097 67.3604 117.047 63.1093 120.026C58.8582 123.005 57.4983 128.884 60.0734 133.156C60.2049 133.376 60.3497 133.58 60.4969 133.783C58.6145 135.665 56.8504 137.71 55.2214 139.904C55.0102 139.771 54.7966 139.642 54.571 139.528C50.2149 137.316 44.7439 139.347 42.3487 144.063C39.9547 148.779 41.5438 154.396 45.8999 156.607C46.1255 156.721 46.356 156.818 46.5865 156.91C45.7768 159.52 45.1675 162.149 44.7584 164.781C44.5086 164.781 44.2576 164.785 44.0042 164.808C39.0352 165.251 35.0906 169.817 35.1944 175.008C35.2982 180.198 39.4117 184.046 44.3807 183.603C44.6401 183.58 44.896 183.539 45.1494 183.495C45.6682 186.067 46.3789 188.58 47.2767 191.011C47.0486 191.145 46.8206 191.283 46.5986 191.438C42.3475 194.416 40.9876 200.295 43.5626 204.569C46.1376 208.842 54.6615 210.828 58.9138 207.849C59.131 207.696 56.346 206.595 56.5487 206.429C58.2284 208.284 60.0697 210.005 62.0619 211.575C61.922 211.804 61.7844 212.037 61.6601 212.282C59.2661 216.998 60.8553 222.615 65.2113 224.825C69.5674 227.037 75.0384 225.006 77.4336 220.29C77.5579 220.046 77.6641 219.797 77.7679 219.549C80.2113 220.23 82.6874 220.702 85.1768 220.963C85.1611 221.225 85.149 221.488 85.155 221.753C85.2588 226.943 89.3723 230.791 94.3414 230.348C99.3104 229.905 103.255 225.338 103.151 220.148C103.146 219.877 103.123 219.611 103.096 219.348C105.589 218.638 108.037 217.729 110.419 216.631C110.532 216.863 110.649 217.093 110.785 217.316C113.36 221.589 118.893 222.639 123.144 219.661C127.395 216.682 128.755 210.804 126.18 206.53C126.049 206.312 125.904 206.106 125.757 205.905C127.639 204.022 129.403 201.977 131.032 199.783C131.244 199.916 131.457 200.045 131.683 200.16H131.68ZM77.3829 200.849C61.5684 192.82 55.7969 172.43 64.4909 155.306C73.185 138.182 93.0527 130.809 108.867 138.839C124.682 146.868 130.453 167.258 121.759 184.382C113.065 201.505 93.1975 208.878 77.3829 200.848V200.849Z" fill="url(#paint22_linear_45_1336)"/>
<path d="M142.247 174.879C147.216 174.436 151.16 169.869 151.056 164.679C150.953 159.489 146.839 155.64 141.87 156.084C141.611 156.107 141.355 156.148 141.102 156.193C140.583 153.62 139.871 151.108 138.974 148.677C139.202 148.543 139.43 148.405 139.652 148.248C143.903 145.27 149.163 138.072 146.165 134.086C140.472 126.52 134.581 129.795 130.328 132.773C130.111 132.926 129.906 133.09 129.703 133.258C128.024 131.402 126.182 129.681 124.19 128.111C124.33 127.882 124.468 127.649 124.592 127.404C125.895 124.838 126.01 122.008 125.149 119.602C121.043 126.83 116.991 134.088 113.013 141.385C125.628 150.629 129.645 168.848 121.76 184.381C115.077 197.543 101.793 204.934 88.8229 204.007C88.2437 205.508 87.6765 207.016 87.0563 208.502C85.3754 212.534 83.4653 216.484 81.5527 220.428C82.7558 220.655 83.9636 220.834 85.1751 220.96C85.1594 221.222 85.1474 221.485 85.1522 221.751C85.256 226.941 88.4078 231.351 97.4131 230.873C102.395 230.609 103.251 225.337 103.147 220.147C103.142 219.876 103.119 219.61 103.093 219.347C105.586 218.636 108.034 217.728 110.416 216.63C110.53 216.861 110.647 217.092 110.782 217.315C113.357 221.589 122.288 223.404 126.54 220.426C130.792 217.447 128.751 210.803 126.178 206.529C126.046 206.31 125.901 206.105 125.754 205.903C127.636 204.02 129.401 201.975 131.03 199.782C131.241 199.915 131.454 200.044 131.68 200.158C136.036 202.369 141.507 200.339 143.902 195.622C146.296 190.906 144.707 185.289 140.351 183.079C140.125 182.964 139.895 182.867 139.664 182.776C140.474 180.166 141.083 177.535 141.492 174.905C141.742 174.905 141.992 174.9 142.247 174.877V174.879Z" fill="url(#paint23_linear_45_1336)"/>
<path d="M136.365 200.694C140.721 202.905 146.192 200.875 148.587 196.158C150.981 191.441 149.392 185.825 145.036 183.614C144.81 183.5 144.58 183.403 144.349 183.312C145.159 180.702 145.768 178.072 146.177 175.44C146.427 175.44 146.677 175.436 146.933 175.413C151.902 174.97 155.846 170.404 155.743 165.213C155.639 160.023 151.525 156.174 146.556 156.618C146.297 156.641 146.041 156.682 145.788 156.728C145.269 154.155 144.557 151.643 143.66 149.211C143.888 149.077 144.117 148.94 144.339 148.784C148.59 145.806 149.95 139.927 147.374 135.653C144.799 131.38 139.266 130.331 135.015 133.309C134.797 133.462 134.591 133.626 134.39 133.794C132.71 131.938 130.869 130.217 128.876 128.647C129.016 128.418 129.154 128.185 129.278 127.94C131.672 123.223 130.083 117.608 125.727 115.397C121.371 113.185 115.899 115.216 113.505 119.933C113.38 120.177 113.274 120.425 113.17 120.674C110.727 119.992 108.251 119.52 105.762 119.259C105.777 118.998 105.789 118.735 105.784 118.468C105.681 113.278 101.567 109.43 96.5981 109.873C91.6291 110.316 87.6845 114.882 87.7883 120.073C87.7943 120.344 87.816 120.61 87.8438 120.873C85.3508 121.583 82.9037 122.492 80.5206 123.59C80.4071 123.358 80.2901 123.129 80.1549 122.905C77.5799 118.632 72.0462 117.582 67.7951 120.56C63.544 123.539 62.1841 129.417 64.7591 133.691C64.8907 133.91 65.0355 134.115 65.1827 134.317C63.3003 136.2 61.5361 138.245 59.9071 140.438C59.696 140.306 59.4824 140.176 59.2567 140.062C54.9007 137.851 49.4297 139.881 47.0345 144.598C44.6404 149.314 46.2296 154.931 50.5857 157.141C50.8113 157.256 51.0418 157.353 51.2723 157.444C50.4626 160.054 49.852 162.684 49.4442 165.315C49.1944 165.315 48.9434 165.32 48.6888 165.343C43.7198 165.786 39.7752 170.353 39.879 175.543C39.9827 180.733 44.0962 184.581 49.0653 184.138C49.3247 184.115 49.5805 184.074 49.8339 184.029C50.3528 186.601 51.0635 189.114 51.9613 191.546C51.732 191.68 51.5051 191.817 51.2831 191.973C47.0321 194.951 45.6721 200.83 48.2472 205.104C50.8222 209.378 56.3559 210.426 60.607 207.448C60.8254 207.295 61.0305 207.131 61.2321 206.963C62.9117 208.819 64.7531 210.54 66.7453 212.11C66.6053 212.339 66.4678 212.572 66.3435 212.817C63.9495 217.532 65.5386 223.149 69.8947 225.36C74.2507 227.572 79.723 225.541 82.117 220.824C82.2413 220.58 82.3475 220.332 82.4512 220.083C84.8947 220.765 87.3708 221.237 89.8601 221.498C89.8444 221.759 89.8324 222.022 89.8372 222.289C89.941 227.479 94.0545 231.327 99.0235 230.884C103.993 230.441 107.937 225.875 107.833 220.684C107.827 220.413 107.806 220.147 107.778 219.884C110.271 219.174 112.719 218.265 115.101 217.167C115.215 217.399 115.332 217.629 115.467 217.852C118.042 222.126 123.575 223.175 127.827 220.197C132.078 217.218 133.438 211.34 130.863 207.066C130.731 206.847 130.586 206.642 130.439 206.441C132.321 204.558 134.086 202.513 135.715 200.319C135.926 200.452 136.139 200.581 136.365 200.696V200.694ZM82.0687 201.381C66.2542 193.352 60.4827 172.962 69.1767 155.838C77.8707 138.714 97.7384 131.342 113.553 139.372C129.367 147.401 135.139 167.791 126.445 184.915C117.751 202.039 97.8832 209.412 82.0687 201.381Z" fill="url(#paint24_linear_45_1336)"/>
<path d="M306.165 126.07L204.634 124.999C199.833 124.949 195.926 129.018 195.926 134.087V294.365C195.926 299.435 199.833 303.275 204.634 302.945L306.165 295.951C310.523 295.651 314.042 291.514 314.042 286.712V134.851C314.042 130.047 310.523 126.116 306.165 126.07Z" fill="url(#paint25_linear_45_1336)"/>
<g style="mix-blend-mode:soft-light" opacity="0.74">
<path d="M198.714 291.929V136.359C198.714 131.667 202.327 127.897 206.766 127.938L304.218 128.838C308.264 128.875 311.533 132.518 311.533 136.974V284.73C311.533 289.186 308.264 293.02 304.218 293.294L206.766 299.88C202.325 300.18 198.714 296.621 198.714 291.928V291.929Z" fill="white"/>
</g>
<path d="M306.167 126.07L204.636 124.999C199.835 124.949 195.928 129.018 195.928 134.087V140.672L314.044 141.089V134.851C314.044 130.047 310.524 126.116 306.167 126.07Z" fill="url(#paint26_linear_45_1336)"/>
<path d="M306.2 133.439C306.2 135.073 304.958 136.389 303.423 136.381C301.887 136.372 300.641 135.038 300.641 133.4C300.641 131.763 301.887 130.445 303.423 130.458C304.957 130.47 306.2 131.805 306.2 133.439Z" fill="white"/>
<path d="M304.848 256.92L206.078 261.918V168.317L304.848 167.449V256.92Z" fill="url(#paint27_linear_45_1336)"/>
<path d="M304.848 267.415L206.078 272.896V268.228L304.848 262.952V267.415Z" fill="white"/>
<path d="M304.848 278.361L206.078 284.349V279.68L304.848 273.899V278.361Z" fill="white"/>
<path d="M281.938 157.043L206.079 157.339V162.008L281.938 161.554V157.043Z" fill="white"/>
<path d="M296.434 156.987V161.467L304.849 161.416V156.954L296.434 156.987Z" fill="white"/>
<g opacity="0.15">
<path d="M279.487 221.867C263.161 200.374 242.68 199.758 231.275 176.759C223.018 160.11 224.189 141.153 227.854 125.243L204.635 124.998C199.834 124.947 195.927 129.016 195.927 134.086V294.364C195.927 299.433 199.834 303.274 204.635 302.943L295.921 296.656C298.731 256.065 288.963 234.342 279.487 221.867Z" fill="white"/>
</g>
<g style="mix-blend-mode:soft-light">
<path d="M222.574 177.062L212.139 177.202L212.154 172.56L222.591 172.451L222.574 177.062Z" fill="white"/>
<path d="M278.659 176.31L229.244 176.973L229.262 172.383L278.68 171.869L278.659 176.31Z" fill="white"/>
<path d="M239.42 184.622L229.215 184.811L229.233 180.222L239.438 180.063L239.42 184.622Z" fill="white"/>
<path d="M294.29 183.603L245.944 184.501L245.964 179.962L294.312 179.211L294.29 183.603Z" fill="white"/>
<path d="M239.387 192.406L229.184 192.647L229.202 188.061L239.405 187.85L239.387 192.406Z" fill="white"/>
<path d="M294.253 191.105L245.913 192.251L245.931 187.714L294.275 186.714L294.253 191.105Z" fill="white"/>
<path d="M222.484 200.675L212.053 200.976L212.07 196.338L222.502 196.068L222.484 200.675Z" fill="white"/>
<path d="M278.554 199.057L229.154 200.482L229.172 195.897L278.574 194.619L278.554 199.057Z" fill="white"/>
<path d="M239.326 207.968L229.125 208.316L229.143 203.731L239.344 203.414L239.326 207.968Z" fill="white"/>
<path d="M294.179 206.103L245.849 207.746L245.867 203.212L294.201 201.714L294.179 206.103Z" fill="white"/>
<path d="M239.294 215.748L229.094 216.147L229.112 211.563L239.312 211.194L239.294 215.748Z" fill="white"/>
<path d="M294.143 213.6L245.816 215.492L245.836 210.958L294.165 209.211L294.143 213.6Z" fill="white"/>
<path d="M239.264 223.523L229.065 223.976L229.082 219.393L239.282 218.972L239.264 223.523Z" fill="white"/>
<path d="M294.105 221.094L245.784 223.235L245.802 218.702L294.127 216.707L294.105 221.094Z" fill="white"/>
<path d="M255.883 230.475L245.91 230.969L245.928 226.438L255.903 225.974L255.883 230.475Z" fill="white"/>
<path d="M301.605 228.214L262.262 230.16L262.281 225.677L301.628 223.85L301.605 228.214Z" fill="white"/>
<path d="M222.337 239.992L211.91 240.56L211.927 235.928L222.354 235.391L222.337 239.992Z" fill="white"/>
<path d="M278.377 236.932L229.004 239.628L229.021 235.047L278.399 232.5L278.377 236.932Z" fill="white"/>
<path d="M239.168 246.841L228.973 247.45L228.99 242.871L239.186 242.293L239.168 246.841Z" fill="white"/>
<path d="M293.995 243.567L245.688 246.452L245.707 241.923L294.017 239.182L293.995 243.567Z" fill="white"/>
<path d="M239.137 254.611L228.943 255.272L228.96 250.693L239.155 250.063L239.137 254.611Z" fill="white"/>
<path d="M293.959 251.053L245.657 254.187L245.675 249.66L293.98 246.671L293.959 251.053Z" fill="white"/>
</g>
<path d="M15.1423 319.578L14.1564 317.899C12.5842 315.221 13.5603 311.818 16.3357 310.305L125.172 250.979L131.185 262.243L22.9795 321.661C20.2199 323.177 16.7109 322.246 15.1435 319.577L15.1423 319.578Z" fill="url(#paint28_linear_45_1336)"/>
<path d="M207.266 284.156C176.22 301.801 136.677 290.299 119.072 257.494C101.044 223.899 113.275 181.794 146.236 164.478C178.604 147.474 217.758 161.438 233.871 194.686C249.618 227.176 237.775 266.817 207.266 284.157V284.156ZM202.566 274.938C228.344 260.375 238.317 226.926 224.948 199.566C211.319 171.672 178.41 160.112 151.318 174.44C123.812 188.988 113.565 224.174 128.542 252.312C143.223 279.895 176.407 289.717 202.566 274.938Z" fill="url(#paint29_linear_45_1336)"/>
<g style="mix-blend-mode:multiply" opacity="0.3">
<path d="M125.172 250.98L111.295 258.544C111.253 263.476 109.836 266.589 108.188 268.648C101.987 276.391 90.6055 271.689 78.1709 281.832C71.9312 286.921 73.7388 288.969 67.7103 292.867C57.7433 299.309 51.5821 294.503 42.7831 300.311C33.8827 306.186 34.6538 314.755 29.0911 315.589C26.7115 315.946 23.3293 314.859 18.6124 309.066L16.3366 310.307C13.5613 311.82 12.5851 315.222 14.1574 317.9L15.1433 319.58C16.7107 322.249 20.2197 323.179 22.9793 321.664L131.184 262.245L125.172 250.981V250.98Z" fill="#D8DEE8"/>
</g>
<path d="M210.135 286.7C179.089 304.345 139.546 292.843 121.941 260.037C103.914 226.442 116.144 184.337 149.106 167.022C181.473 150.017 220.627 163.982 236.741 197.229C252.488 229.72 240.644 269.361 210.135 286.701V286.7ZM205.435 277.483C231.213 262.92 241.186 229.471 227.817 202.111C214.187 174.217 181.278 162.657 154.187 176.985C126.681 191.532 116.434 226.719 131.411 254.857C146.093 282.44 179.276 292.262 205.435 277.483Z" fill="url(#paint30_linear_45_1336)"/>
<path d="M208.477 283.448C179.155 300.078 141.863 289.162 125.297 258.203C108.356 226.541 119.884 186.892 150.909 170.553C181.406 154.494 218.353 167.6 233.592 198.953C248.503 229.633 237.32 267.09 208.477 283.448ZM205.435 277.483C231.213 262.92 241.186 229.471 227.818 202.111C214.187 174.217 181.278 162.657 154.187 176.985C126.681 191.533 116.434 226.719 131.411 254.857C146.093 282.44 179.276 292.262 205.435 277.483Z" fill="url(#paint31_linear_45_1336)"/>
<defs>
<linearGradient id="paint0_linear_45_1336" x1="197.097" y1="21.7706" x2="-12.001" y2="439.964" gradientUnits="userSpaceOnUse">
<stop stop-color="#AB316D"/>
<stop offset="1" stop-color="#792D3D"/>
</linearGradient>
<linearGradient id="paint1_linear_45_1336" x1="83.2231" y1="116.202" x2="382.042" y2="517.62" gradientUnits="userSpaceOnUse">
<stop stop-color="#FFC444"/>
<stop offset="1" stop-color="#F36F56"/>
</linearGradient>
<linearGradient id="paint2_linear_45_1336" x1="106.661" y1="8.70968" x2="142.992" y2="154.037" gradientUnits="userSpaceOnUse">
<stop stop-color="#AB316D"/>
<stop offset="1" stop-color="#792D3D"/>
</linearGradient>
<linearGradient id="paint3_linear_45_1336" x1="191.359" y1="138.308" x2="-179.442" y2="283.695" gradientUnits="userSpaceOnUse">
<stop stop-color="#FFC444"/>
<stop offset="1" stop-color="#F36F56"/>
</linearGradient>
<linearGradient id="paint4_linear_45_1336" x1="392.497" y1="285.029" x2="198.842" y2="98.4274" gradientUnits="userSpaceOnUse">
<stop stop-color="#AA80F9"/>
<stop offset="1" stop-color="#6165D7"/>
</linearGradient>
<linearGradient id="paint5_linear_45_1336" x1="396.567" y1="280.805" x2="202.913" y2="94.2029" gradientUnits="userSpaceOnUse">
<stop stop-color="#AA80F9"/>
<stop offset="1" stop-color="#6165D7"/>
</linearGradient>
<linearGradient id="paint6_linear_45_1336" x1="215.268" y1="112.758" x2="31.5527" y2="-67.5911" gradientUnits="userSpaceOnUse">
<stop stop-color="#AA80F9"/>
<stop offset="1" stop-color="#6165D7"/>
</linearGradient>
<linearGradient id="paint7_linear_45_1336" x1="306.763" y1="374.003" x2="113.109" y2="187.401" gradientUnits="userSpaceOnUse">
<stop stop-color="#AA80F9"/>
<stop offset="1" stop-color="#6165D7"/>
</linearGradient>
<linearGradient id="paint8_linear_45_1336" x1="311.803" y1="368.772" x2="118.148" y2="182.171" gradientUnits="userSpaceOnUse">
<stop stop-color="#AA80F9"/>
<stop offset="1" stop-color="#6165D7"/>
</linearGradient>
<linearGradient id="paint9_linear_45_1336" x1="128.82" y1="200.819" x2="-54.8959" y2="20.47" gradientUnits="userSpaceOnUse">
<stop stop-color="#AA80F9"/>
<stop offset="1" stop-color="#6165D7"/>
</linearGradient>
<linearGradient id="paint10_linear_45_1336" x1="195.927" y1="213.981" x2="314.044" y2="213.981" gradientUnits="userSpaceOnUse">
<stop stop-color="#E38DDD"/>
<stop offset="1" stop-color="#9571F6"/>
</linearGradient>
<linearGradient id="paint11_linear_45_1336" x1="255.711" y1="130.772" x2="243.973" y2="236.853" gradientUnits="userSpaceOnUse">
<stop stop-color="#40447E"/>
<stop offset="1" stop-color="#3C3B6B"/>
</linearGradient>
<linearGradient id="paint12_linear_45_1336" x1="206.078" y1="214.683" x2="304.848" y2="214.683" gradientUnits="userSpaceOnUse">
<stop stop-color="#80B4DB"/>
<stop offset="1" stop-color="#0069B8"/>
</linearGradient>
<linearGradient id="paint13_linear_45_1336" x1="133.624" y1="274.157" x2="10.0746" y2="299.63" gradientUnits="userSpaceOnUse">
<stop stop-color="#444B8C"/>
<stop offset="1" stop-color="#26264F"/>
</linearGradient>
<linearGradient id="paint14_linear_45_1336" x1="239.531" y1="211.666" x2="112.051" y2="237.95" gradientUnits="userSpaceOnUse">
<stop stop-color="#444B8C"/>
<stop offset="1" stop-color="#26264F"/>
</linearGradient>
<linearGradient id="paint15_linear_45_1336" x1="207.82" y1="292.906" x2="167.899" y2="202.983" gradientUnits="userSpaceOnUse">
<stop stop-color="#444B8C"/>
<stop offset="1" stop-color="#26264F"/>
</linearGradient>
<linearGradient id="paint16_linear_45_1336" x1="129.893" y1="306.161" x2="199.714" y2="193.91" gradientUnits="userSpaceOnUse">
<stop stop-color="#444B8C"/>
<stop offset="1" stop-color="#26264F"/>
</linearGradient>
<linearGradient id="paint17_linear_45_1336" x1="83.2231" y1="116.202" x2="382.042" y2="517.62" gradientUnits="userSpaceOnUse">
<stop stop-color="#B2D2EA"/>
<stop offset="1" stop-color="#0069B8"/>
</linearGradient>
<linearGradient id="paint18_linear_45_1336" x1="191.359" y1="138.308" x2="-179.442" y2="283.695" gradientUnits="userSpaceOnUse">
<stop stop-color="#80B4DB"/>
<stop offset="1" stop-color="#0069B8"/>
</linearGradient>
<linearGradient id="paint19_linear_45_1336" x1="392.497" y1="285.029" x2="198.842" y2="98.4274" gradientUnits="userSpaceOnUse">
<stop stop-color="#80B4DB"/>
<stop offset="1" stop-color="#0069B8"/>
</linearGradient>
<linearGradient id="paint20_linear_45_1336" x1="396.567" y1="280.805" x2="202.913" y2="94.2029" gradientUnits="userSpaceOnUse">
<stop stop-color="#80B4DB"/>
<stop offset="1" stop-color="#0069B8"/>
</linearGradient>
<linearGradient id="paint21_linear_45_1336" x1="215.268" y1="112.758" x2="31.5527" y2="-67.5911" gradientUnits="userSpaceOnUse">
<stop stop-color="#80B4DB"/>
<stop offset="1" stop-color="#0069B8"/>
</linearGradient>
<linearGradient id="paint22_linear_45_1336" x1="306.763" y1="374.003" x2="113.109" y2="187.401" gradientUnits="userSpaceOnUse">
<stop stop-color="#80B4DB"/>
<stop offset="1" stop-color="#0069B8"/>
</linearGradient>
<linearGradient id="paint23_linear_45_1336" x1="311.803" y1="368.772" x2="118.148" y2="182.171" gradientUnits="userSpaceOnUse">
<stop stop-color="#80B4DB"/>
<stop offset="1" stop-color="#0069B8"/>
</linearGradient>
<linearGradient id="paint24_linear_45_1336" x1="128.82" y1="200.819" x2="-54.8959" y2="20.47" gradientUnits="userSpaceOnUse">
<stop stop-color="#80B4DB"/>
<stop offset="1" stop-color="#0069B8"/>
</linearGradient>
<linearGradient id="paint25_linear_45_1336" x1="195.927" y1="213.981" x2="314.044" y2="213.981" gradientUnits="userSpaceOnUse">
<stop stop-color="#B2D2EA"/>
<stop offset="1" stop-color="#80B4DB"/>
</linearGradient>
<linearGradient id="paint26_linear_45_1336" x1="255.711" y1="130.772" x2="243.973" y2="236.853" gradientUnits="userSpaceOnUse">
<stop stop-color="#40447E"/>
<stop offset="1" stop-color="#3C3B6B"/>
</linearGradient>
<linearGradient id="paint27_linear_45_1336" x1="206.078" y1="214.683" x2="304.848" y2="214.683" gradientUnits="userSpaceOnUse">
<stop stop-color="#80B4DB"/>
<stop offset="1" stop-color="#0069B8"/>
</linearGradient>
<linearGradient id="paint28_linear_45_1336" x1="133.624" y1="274.157" x2="10.0746" y2="299.63" gradientUnits="userSpaceOnUse">
<stop stop-color="#444B8C"/>
<stop offset="1" stop-color="#26264F"/>
</linearGradient>
<linearGradient id="paint29_linear_45_1336" x1="239.531" y1="211.666" x2="112.051" y2="237.95" gradientUnits="userSpaceOnUse">
<stop stop-color="#444B8C"/>
<stop offset="1" stop-color="#26264F"/>
</linearGradient>
<linearGradient id="paint30_linear_45_1336" x1="207.82" y1="292.906" x2="167.899" y2="202.983" gradientUnits="userSpaceOnUse">
<stop stop-color="#444B8C"/>
<stop offset="1" stop-color="#26264F"/>
</linearGradient>
<linearGradient id="paint31_linear_45_1336" x1="129.893" y1="306.161" x2="199.714" y2="193.91" gradientUnits="userSpaceOnUse">
<stop stop-color="#444B8C"/>
<stop offset="1" stop-color="#26264F"/>
</linearGradient>
</defs>
</svg>
