<svg width="430" height="333" viewBox="0 0 430 333" fill="none" xmlns="http://www.w3.org/2000/svg">
<path d="M206.974 252.804H35.0866C32.2827 252.804 30.0039 250.525 30.0039 247.721V6.10898C30.0039 3.30502 32.2827 1.02625 35.0866 1.02625H206.974C209.778 1.02625 212.057 3.30502 212.057 6.10898V247.721C212.057 250.525 209.778 252.804 206.974 252.804ZM35.0866 1.25768C32.4073 1.25768 30.2264 3.43854 30.2264 6.11788V247.73C30.2264 250.41 32.4073 252.59 35.0866 252.59H206.974C209.653 252.59 211.834 250.41 211.834 247.73V6.10898C211.834 3.42964 209.653 1.24878 206.974 1.24878H35.0866V1.25768Z" fill="#EBEBEB"/>
<path d="M399.512 252.804H227.625C224.821 252.804 222.542 250.525 222.542 247.721V6.10898C222.542 3.30502 224.821 1.02625 227.625 1.02625H399.512C402.316 1.02625 404.595 3.30502 404.595 6.10898V247.721C404.595 250.525 402.316 252.804 399.512 252.804ZM227.625 1.25768C224.945 1.25768 222.765 3.43854 222.765 6.11788V247.73C222.765 250.41 224.945 252.59 227.625 252.59H399.512C402.191 252.59 404.372 250.41 404.372 247.73V6.10898C404.372 3.42964 402.191 1.24878 399.512 1.24878H227.625V1.25768Z" fill="#EBEBEB"/>
<path d="M396.477 306.836H366.995V307.058H396.477V306.836Z" fill="#EBEBEB"/>
<path d="M290.834 309.248H283.099V309.471H290.834V309.248Z" fill="#EBEBEB"/>
<path d="M366.104 298.566H349.022V298.789H366.104V298.566Z" fill="#EBEBEB"/>
<path d="M81.1427 300.062H42.6973V300.284H81.1427V300.062Z" fill="#EBEBEB"/>
<path d="M94.7088 300.062H89.0742V300.284H94.7088V300.062Z" fill="#EBEBEB"/>
<path d="M196.416 303.818H113.027V304.041H196.416V303.818Z" fill="#EBEBEB"/>
<path d="M441.073 292.505H-4V292.727H441.073V292.505Z" fill="#EBEBEB"/>
<path d="M133.919 36.819H29.2197V191.526H133.919V36.819Z" fill="#E0E0E0"/>
<path d="M137.773 36.819H33.0742V191.526H137.773V36.819Z" fill="#F0F0F0"/>
<path d="M132.476 118.606H38.165V182.465H132.476V118.606Z" fill="#EBEBEB"/>
<path d="M132.476 43.1034H38.165V118.606H132.476V43.1034Z" fill="white"/>
<path d="M132.477 43.1122H129.156V182.473H132.477V43.1122Z" fill="#E0E0E0"/>
<path d="M37.8721 118.614V121.979H129.513V118.614H37.8721Z" fill="#E0E0E0"/>
<path d="M132.476 112.953H36.3848V118.606H132.476V112.953Z" fill="#F0F0F0"/>
<path d="M386.035 220.518H258.423C248.753 220.518 240.914 228.358 240.914 238.028V276.01C240.914 285.68 248.753 293.519 258.423 293.519H386.035C395.705 293.519 403.544 285.68 403.544 276.01V238.028C403.544 228.358 395.705 220.518 386.035 220.518Z" fill="#E0E0E0"/>
<path d="M377.462 221.061H249.851C240.181 221.061 232.342 228.901 232.342 238.571V276.553C232.342 286.223 240.181 294.062 249.851 294.062H377.462C387.132 294.062 394.971 286.223 394.971 276.553V238.571C394.971 228.901 387.132 221.061 377.462 221.061Z" fill="#F5F5F5"/>
<path d="M252.985 227.942H375.291C382.038 227.942 387.521 233.426 387.521 240.173V255.181H240.754V240.173C240.754 233.426 246.237 227.942 252.985 227.942Z" fill="#E0E0E0"/>
<path d="M240.754 258.857H387.521V273.865C387.521 280.612 382.038 286.096 375.291 286.096H252.985C246.237 286.096 240.754 280.612 240.754 273.865V258.857Z" fill="#E0E0E0"/>
<path d="M348.043 233.212H321.17V255.35H348.043V233.212Z" fill="#E6E6E6"/>
<path d="M321.17 233.212H314.289V255.35H321.17V233.212Z" fill="#F5F5F5"/>
<path d="M319.995 249.395C319.995 250.641 318.98 251.656 317.734 251.656C316.487 251.656 315.473 250.641 315.473 249.395C315.473 248.149 316.487 247.134 317.734 247.134C318.98 247.134 319.995 248.149 319.995 249.395Z" fill="#E0E0E0"/>
<path d="M355.094 229.794H334.905V255.35H355.094V229.794Z" fill="#E6E6E6"/>
<path d="M334.914 229.794H329.074V255.35H334.914V229.794Z" fill="#F5F5F5"/>
<path d="M331.994 235.517C333.1 235.517 333.997 234.621 333.997 233.515C333.997 232.408 333.1 231.512 331.994 231.512C330.888 231.512 329.991 232.408 329.991 233.515C329.991 234.621 330.888 235.517 331.994 235.517Z" fill="#E0E0E0"/>
<path d="M331.994 235.517C333.1 235.517 333.997 234.621 333.997 233.515C333.997 232.408 333.1 231.512 331.994 231.512C330.888 231.512 329.991 232.408 329.991 233.515C329.991 234.621 330.888 235.517 331.994 235.517Z" fill="#E0E0E0"/>
<path d="M357.871 233.212H340.852V255.35H357.871V233.212Z" fill="#EBEBEB"/>
<path d="M340.851 233.212H336.961V255.35H340.851V233.212Z" fill="#F5F5F5"/>
<path d="M377.106 236.959H354.781V255.359H377.106V236.959Z" fill="#E6E6E6"/>
<path d="M354.781 236.959H349.066V255.359H354.781V236.959Z" fill="#F5F5F5"/>
<path d="M382.955 234.12H366.185V255.35H382.955V234.12Z" fill="#E6E6E6"/>
<path d="M366.202 234.12H361.351V255.35H366.202V234.12Z" fill="#F5F5F5"/>
<path d="M387.423 236.959H371.134V255.359H387.423V236.959Z" fill="#E6E6E6"/>
<path d="M371.125 236.959H367.894V255.359H371.125V236.959Z" fill="#F0F0F0"/>
<path d="M283.811 263.112H263.008V285.25H283.811V263.112Z" fill="#E6E6E6"/>
<path d="M263.017 263.112H257.685V285.25H263.017V263.112Z" fill="#F5F5F5"/>
<path d="M289.258 259.703H273.636V285.259H289.258V259.703Z" fill="#E6E6E6"/>
<path d="M273.645 259.703H269.132V285.259H273.645V259.703Z" fill="#F5F5F5"/>
<path d="M354.773 263.112H333.971V285.25H354.773V263.112Z" fill="#E6E6E6"/>
<path d="M333.979 263.112H328.647V285.25H333.979V263.112Z" fill="#F5F5F5"/>
<path d="M360.221 259.703H344.599V285.259H360.221V259.703Z" fill="#E6E6E6"/>
<path d="M344.616 259.703H340.094V285.259H344.616V259.703Z" fill="#F5F5F5"/>
<path d="M291.421 263.112H278.247V285.25H291.421V263.112Z" fill="#EBEBEB"/>
<path d="M278.247 263.112H275.238V285.25H278.247V263.112Z" fill="#F5F5F5"/>
<path d="M306.304 266.859H289.026V285.259H306.304V266.859Z" fill="#E6E6E6"/>
<path d="M289.027 266.859H284.603V285.259H289.027V266.859Z" fill="#F5F5F5"/>
<path d="M310.835 264.02H297.856V285.25H310.835V264.02Z" fill="#E6E6E6"/>
<path d="M297.866 264.02H294.109V285.25H297.866V264.02Z" fill="#F5F5F5"/>
<path d="M314.298 266.859H301.685V285.259H314.298V266.859Z" fill="#E6E6E6"/>
<path d="M301.675 266.859H299.174V285.259H301.675V266.859Z" fill="#F0F0F0"/>
<path d="M299.049 199.297C298.604 198.425 297.598 197.918 296.672 198.114C295.746 198.309 294.999 199.182 294.901 200.161C294.251 199.671 293.325 199.653 292.649 200.099C291.972 200.553 291.598 201.452 291.741 202.279C291.011 201.692 289.809 201.932 289.337 202.769C288.866 203.606 289.231 204.843 290.076 205.244C289.506 205.288 289.017 205.858 289.026 206.463C289.044 207.068 289.56 207.611 290.13 207.62C289.551 207.629 289.017 208.145 288.946 208.751C288.874 209.356 289.275 209.988 289.836 210.148C289.248 210.406 289.097 211.377 289.578 211.822C290.058 212.267 290.949 211.982 291.118 211.332C291.207 211.519 291.483 211.564 291.625 211.412C291.759 211.261 291.714 210.967 291.527 210.878C291.794 211.252 292.471 211.083 292.542 210.62C292.346 211.688 293.619 212.694 294.527 212.187C294.26 212.632 294.634 213.255 295.114 213.397C295.595 213.54 296.102 213.344 296.548 213.121C297.002 212.899 297.455 212.641 297.954 212.65C298.39 212.65 298.8 212.863 299.209 212.997C300.535 213.424 302.066 213.015 303.046 211.982C303.731 212.908 305.369 212.658 305.778 211.564C305.885 212.089 306.348 212.507 306.855 212.534C307.363 212.561 307.87 212.205 308.03 211.697C308.039 211.929 308.048 212.16 308.066 212.4C309.018 212.623 309.962 211.394 309.553 210.451C310.238 210.46 310.879 209.872 310.968 209.16C311.057 208.448 310.576 207.7 309.918 207.531C311.039 207.22 311.894 206.054 311.911 204.825C311.92 203.597 311.093 202.413 309.971 202.075C309.535 201.941 309.018 201.941 308.662 202.253C308.315 202.564 308.262 203.241 308.662 203.49C309.001 202.386 308.502 201.069 307.532 200.517C306.571 199.965 305.253 200.25 304.568 201.149C304.897 200.677 304.906 199.983 304.586 199.511C304.256 199.039 303.633 198.826 303.108 199.013C302.974 198.256 302.227 197.686 301.506 197.793C300.785 197.9 300.224 198.683 300.304 199.44C300.224 198.799 299.227 198.612 298.942 199.182C298.541 199.066 299.058 199.28 299.058 199.28L299.049 199.297Z" fill="#EBEBEB"/>
<path d="M299.316 206.401C299.022 206.196 298.648 206.089 298.301 206.16C297.954 206.232 297.634 206.499 297.562 206.855C297.491 207.202 297.705 207.611 298.061 207.691C298.488 207.798 298.907 207.442 299.343 207.505C299.494 207.522 299.637 207.602 299.788 207.638C300.411 207.807 301.025 207.398 301.541 207.015C301.719 206.881 301.906 206.739 302.031 206.552C302.156 206.365 302.2 206.107 302.084 205.911C301.924 205.635 301.55 205.6 301.239 205.635C300.616 205.706 300.001 205.956 299.512 206.356C299.53 206.258 299.547 206.16 299.556 206.063L299.325 206.41L299.316 206.401Z" fill="#FAFAFA"/>
<path d="M308.333 205.867C308.164 205.751 307.995 205.626 307.79 205.582C307.595 205.537 307.354 205.582 307.23 205.742C307.06 205.965 307.167 206.312 307.39 206.49C307.612 206.668 307.906 206.712 308.182 206.757C308.467 206.801 308.832 206.81 308.974 206.561C309.081 206.374 308.992 206.134 308.841 205.991C308.689 205.849 308.476 205.778 308.28 205.715L308.342 205.876L308.333 205.867Z" fill="#FAFAFA"/>
<path d="M294.082 201.175C293.503 201.416 293.067 201.95 292.933 202.555C292.889 202.742 292.898 202.974 293.058 203.063C293.174 203.134 293.316 203.107 293.45 203.071C294.001 202.938 294.553 202.813 295.105 202.68C294.838 202.778 294.571 202.885 294.358 203.071C294.144 203.258 294.001 203.552 294.073 203.828C294.153 204.149 294.509 204.344 294.838 204.344C295.168 204.344 295.479 204.175 295.746 203.979C296.031 203.775 296.316 203.49 296.316 203.134C296.316 202.778 295.88 202.448 295.604 202.68C296.236 202.511 296.832 202.235 297.375 201.87C297.571 201.736 297.767 201.594 297.891 201.389C298.016 201.184 298.061 200.926 297.945 200.713C297.384 199.689 296.663 201.193 296.316 201.327C295.657 201.585 294.918 200.819 294.082 201.167V201.175Z" fill="#FAFAFA"/>
<path d="M291.518 205.555C291.456 205.76 291.5 206 291.661 206.125C291.821 206.258 292.115 206.214 292.186 206.018C291.821 206.134 291.42 206.267 291.198 206.579C290.966 206.89 291.029 207.433 291.394 207.549C291.625 207.62 291.865 207.513 292.079 207.398C292.675 207.068 293.245 206.695 293.788 206.276C293.628 206.65 294.02 207.086 294.429 207.122C294.838 207.157 295.221 206.935 295.577 206.721C296.013 206.463 296.503 206.054 296.387 205.564C296.289 205.137 295.737 204.95 295.319 205.074C294.901 205.199 294.58 205.537 294.287 205.867C294.518 205.528 294.189 205.03 293.788 204.977C293.396 204.923 293.005 205.163 292.755 205.457C293.218 205.208 293.316 204.549 292.702 204.469C292.302 204.416 291.625 205.235 291.527 205.564L291.518 205.555Z" fill="#FAFAFA"/>
<path d="M304.122 204.077C303.775 203.944 303.339 204.175 303.25 204.531C303.161 204.887 303.428 205.297 303.793 205.359C303.526 205.386 303.268 205.519 303.09 205.724C302.992 205.84 302.92 205.991 302.938 206.134C302.974 206.356 303.205 206.499 303.428 206.508C303.65 206.508 303.864 206.419 304.069 206.33C303.846 206.347 303.615 206.374 303.437 206.516C303.259 206.65 303.188 206.944 303.339 207.095C303.472 207.229 303.686 207.202 303.864 207.157C304.265 207.042 304.638 206.837 304.95 206.552C305.181 206.801 305.52 206.988 305.858 206.935C306.196 206.881 306.481 206.516 306.374 206.196C306.303 205.965 306.054 205.822 305.813 205.787C305.573 205.76 305.333 205.822 305.092 205.902C305.333 205.733 305.582 205.546 305.671 205.27C305.76 204.994 305.573 204.62 305.279 204.638C304.95 204.665 304.79 205.11 304.532 205.27C304.211 204.976 304.808 204.353 304.113 204.086L304.122 204.077Z" fill="#FAFAFA"/>
<path d="M298.239 202.716C297.865 202.965 297.74 203.463 297.767 203.908C297.794 204.407 298.016 204.932 298.47 205.128C299.067 205.386 299.814 204.896 299.921 204.247C300.028 203.597 299.61 202.947 299.031 202.653C299.031 202.653 298.604 202.457 298.239 202.707V202.716Z" fill="#FAFAFA"/>
<path d="M302.405 202.19C302.458 202.235 302.512 202.279 302.556 202.324C302.307 202.003 301.773 201.959 301.47 202.235C301.168 202.511 301.168 203.045 301.47 203.33C301.773 203.615 302.307 203.57 302.556 203.25C302.983 203.445 303.553 203.374 303.856 203.009C304.158 202.644 304.087 202.003 303.678 201.772C303.268 201.54 302.636 201.888 302.681 202.359C302.618 202.297 302.565 202.226 302.503 202.164L302.405 202.19Z" fill="#FAFAFA"/>
<path d="M307.006 202.929C306.713 203.223 306.401 203.525 306.294 203.926C306.187 204.327 306.365 204.834 306.766 204.941C307.166 205.039 307.54 204.709 307.772 204.371C307.977 204.06 308.137 203.677 308.012 203.321C307.887 202.965 307.389 202.76 307.131 203.027L306.997 202.92L307.006 202.929Z" fill="#FAFAFA"/>
<path d="M300.375 200.517C300.224 200.179 299.752 200.063 299.44 200.259C299.129 200.454 299.013 200.891 299.147 201.229C299.28 201.567 299.636 201.799 300.001 201.843C300.455 201.896 300.989 201.532 300.882 201.086C301.078 201.345 301.425 201.443 301.746 201.416C302.066 201.38 302.369 201.238 302.645 201.078C303.028 200.855 303.428 200.526 303.393 200.09C303.357 199.742 303.028 199.475 302.68 199.44C302.333 199.404 301.995 199.573 301.728 199.796C301.523 199.974 301.345 200.196 301.123 200.348C300.9 200.508 300.589 200.588 300.348 200.454L300.384 200.517H300.375Z" fill="#FAFAFA"/>
<path d="M306.037 220.759H294.634L293.521 209.267H307.15L306.037 220.759Z" fill="#F0F0F0"/>
<path d="M308.03 209.863H292.524L292.248 208.332H308.315L308.03 209.863Z" fill="#FAFAFA"/>
<path d="M294.197 255.332H281.112L285.216 242.122L285.812 240.191H288.776L294.197 255.332Z" fill="#EBEBEB"/>
<path d="M285.813 240.191L285.216 242.122L281.113 255.332L269.016 255.154L265.126 242.122L264.529 240.191H285.813Z" fill="#E0E0E0"/>
<path d="M285.812 240.191L285.216 242.122L281.113 255.332L256.269 254.958L261.565 240.191H285.812Z" fill="#FAFAFA"/>
<path d="M285.813 240.191L285.216 242.122H260.88L261.565 240.191H285.813Z" fill="#EBEBEB"/>
<path d="M264.618 248.398H259.161L261.066 243.021L266.282 243.084L264.618 248.398ZM259.793 247.953H264.288L265.677 243.52L261.378 243.475L259.793 247.953Z" fill="#EBEBEB"/>
<path d="M270.724 248.398H265.268L267.173 243.021L272.389 243.084L270.724 248.398ZM265.891 247.953H270.386L271.775 243.52L267.475 243.475L265.891 247.953Z" fill="#EBEBEB"/>
<path d="M276.822 248.398H271.365L273.27 243.021L278.486 243.084L276.822 248.398ZM271.997 247.953H276.492L277.881 243.52L273.582 243.475L271.997 247.953Z" fill="#EBEBEB"/>
<path d="M282.927 248.398H277.471L279.376 243.021L284.592 243.084L282.927 248.398ZM278.103 247.953H282.598L283.987 243.52L279.687 243.475L278.103 247.953Z" fill="#EBEBEB"/>
<path d="M262.713 254.095H257.257L259.162 248.718L264.378 248.781L262.713 254.095ZM257.889 253.65H262.384L263.773 249.217L259.473 249.172L257.889 253.65Z" fill="#EBEBEB"/>
<path d="M268.82 254.095H263.363L265.268 248.718L270.484 248.781L268.82 254.095ZM263.995 253.65H268.491L269.879 249.217L265.58 249.172L263.995 253.65Z" fill="#EBEBEB"/>
<path d="M274.918 254.095H269.461L271.366 248.718L276.582 248.781L274.918 254.095ZM270.093 253.65H274.588L275.977 249.217L271.677 249.172L270.093 253.65Z" fill="#EBEBEB"/>
<path d="M281.024 254.095H275.567L277.472 248.718L282.689 248.781L281.024 254.095ZM276.199 253.65H280.695L282.083 249.217L277.784 249.172L276.199 253.65Z" fill="#EBEBEB"/>
<path d="M363.816 213.629C363.816 216.433 364.253 218.249 365 219.415C365.561 220.287 366.558 220.786 367.6 220.786H371.659C372.7 220.786 373.697 220.296 374.258 219.415C374.997 218.249 375.442 216.433 375.442 213.629C375.442 209.561 373.67 206.303 373.092 203.704C372.887 202.769 373.581 199.894 373.581 199.894H365.695C365.695 199.894 366.389 202.76 366.184 203.704C365.606 206.303 363.834 209.561 363.834 213.629H363.816Z" fill="#F0F0F0"/>
<path d="M372.254 180.257C372.254 180.257 370.928 180.587 370.154 181.619C369.379 182.652 370.714 185.082 370.714 185.082C370.714 185.082 371.979 186.372 373.545 185.99L375.112 185.607C375.112 185.607 373.447 180.845 372.254 180.578V180.266V180.257Z" fill="#EBEBEB"/>
<path d="M378.45 181.397C378.245 183.462 376.492 185.794 374.649 185.607C372.806 185.42 371.551 182.794 371.765 180.72C371.97 178.655 373.474 178.735 375.325 178.913C377.168 179.1 378.663 179.322 378.45 181.388V181.397Z" fill="#EBEBEB"/>
<path d="M373.242 179.785C373.242 179.785 374.426 181.156 377.408 181.049C377.408 181.049 372.326 183.204 373.242 179.785Z" fill="#EBEBEB"/>
<path d="M374.542 179.616C374.542 179.616 376.198 179.643 376.091 180.31C376.091 180.31 377.462 180.489 377.382 179.892C377.301 179.287 374.542 179.616 374.542 179.616Z" fill="#EBEBEB"/>
<path d="M373.242 179.785C373.242 179.785 374.426 181.156 377.408 181.049C377.408 181.049 372.326 183.204 373.242 179.785Z" fill="#E0E0E0"/>
<path d="M374.542 179.616C374.542 179.616 376.198 179.643 376.091 180.31C376.091 180.31 377.462 180.489 377.382 179.892C377.301 179.287 374.542 179.616 374.542 179.616Z" fill="#E0E0E0"/>
<path d="M371.48 185.669C371.881 186.72 372.967 187.423 374.089 187.494C375.21 187.574 376.323 187.076 377.124 186.292C377.925 185.509 378.433 184.459 378.708 183.373C378.78 183.088 378.94 182.385 378.584 182.207C378.254 182.037 377.952 182.482 377.756 182.678C377.177 183.239 376.572 183.746 375.887 184.174C375.219 184.592 374.507 184.93 373.768 185.18C373.563 185.251 371.552 185.856 371.48 185.669Z" fill="#EBEBEB"/>
<path d="M380.043 183.079C380.23 183.969 379.919 184.948 379.242 185.562C378.797 185.963 378.236 186.203 377.676 186.417C377.284 186.559 376.794 186.675 376.501 186.39C376.18 186.079 376.314 185.545 376.483 185.126C376.741 184.485 377.017 183.853 377.302 183.221C377.542 182.705 377.791 181.824 378.201 181.423C378.584 181.049 378.957 181.388 379.34 181.779C379.687 182.135 379.946 182.589 380.043 183.079Z" fill="#EBEBEB"/>
<path d="M372.157 184.628C371.463 184.467 370.884 183.862 370.759 183.159C370.661 182.643 370.902 181.414 371.552 181.379C371.623 182.518 371.676 183.56 372.157 184.628Z" fill="#E0E0E0"/>
<path d="M377.168 184.993C377.862 184.93 378.521 184.494 378.85 183.871C379.028 183.524 379.242 181.637 378.539 182.322C378.307 182.545 378.192 183.364 378.031 183.675C377.8 184.147 377.506 184.592 377.168 184.993Z" fill="#E0E0E0"/>
<path d="M374.417 185.66C374.844 186.194 375.663 186.372 376.278 186.061C376.144 186.408 374.951 186.497 374.577 186.533C373.607 186.631 373.207 186.132 372.388 185.598C372.388 185.598 373.75 186.079 374.417 185.66Z" fill="#E0E0E0"/>
<path d="M368.535 218.551L370.814 195.559L373.832 187.405L374.348 187.592L371.348 195.719L368.971 219.174L368.535 218.551Z" fill="#E6E6E6"/>
<path d="M371.33 195.514L370.831 195.763C370.502 195.114 370.252 194.304 369.959 193.36C369.505 191.9 368.997 190.253 368.045 188.696L368.517 188.402C369.514 190.022 370.03 191.704 370.493 193.191C370.778 194.108 371.027 194.9 371.33 195.505V195.514Z" fill="#E6E6E6"/>
<path d="M372.558 192.497C373.332 192.443 374.08 192.096 374.623 191.544C375.246 190.921 375.575 190.067 375.896 189.248C374.881 189.354 373.946 188.696 372.931 188.624C372.121 188.562 371.294 188.909 370.768 189.524C370.083 190.316 369.682 191.286 370.056 191.785C370.368 192.194 371.516 192.577 372.549 192.506L372.558 192.497Z" fill="#F0F0F0"/>
<path d="M364.413 190.013C365.161 189.39 366.763 189.141 367.662 189.488C368.57 189.835 369.247 190.636 369.434 191.464C369.069 192.016 368.348 192.221 367.689 192.149C367.039 192.078 366.443 191.767 365.855 191.455C365.277 191.152 364.671 190.841 364.021 190.761L364.404 190.004L364.413 190.013Z" fill="#F0F0F0"/>
<path d="M369.434 190.449C368.116 190.601 366.932 190.859 365.731 189.354C364.93 188.348 365.188 186.826 365.241 185.625C366.389 185.874 368.98 187.138 369.558 187.449C370.137 187.761 370.627 188.259 370.716 188.856C370.813 189.452 370.404 190.111 369.754 190.227C369.736 190.191 369.425 190.449 369.425 190.449H369.434Z" fill="#F0F0F0"/>
<path d="M365.658 208.332C365.133 209.828 364.626 211.457 364.795 213.05C364.83 213.353 364.919 213.7 365.142 213.753C365.347 213.807 365.543 213.557 365.623 213.282C365.694 213.006 365.676 212.712 365.676 212.427C365.676 209.961 367.011 207.887 367.269 205.475C367.341 204.79 367.163 202.635 366.762 204.22C366.406 205.635 366.148 206.953 365.658 208.341V208.332Z" fill="#FAFAFA"/>
<path d="M179.166 257.308C179.166 257.308 181.756 228.637 170.362 214.652C158.968 200.668 179.255 213.397 182.851 227.346C182.851 227.346 183.528 201.558 172.151 184.841C160.784 168.125 180.163 180.64 183.536 198.861C183.536 198.861 184.177 175.851 178.498 163.647C172.819 151.443 181.293 158.707 185.032 166.335C188.779 173.964 186.91 194.197 186.91 194.197C186.91 194.197 190.889 156.722 198.446 158.751C206.004 160.781 190.302 186.916 189.046 199.68C189.046 199.68 195.918 181.877 202.764 184.583C209.609 187.289 193.23 191.028 188.174 216.94L186.696 228.984C186.696 228.984 192.91 211.484 198.589 216.086C204.268 220.679 184.747 232.162 182.531 257.807L179.157 257.308H179.166Z" fill="#EBEBEB"/>
<path d="M180.395 258.795C180.395 258.795 177.965 223.34 192.403 206.445C206.832 189.559 181.463 204.612 176.656 221.702C176.656 221.702 176.514 189.862 190.996 169.602C205.47 149.342 181.222 164.154 176.567 186.542C176.567 186.542 176.389 158.128 183.724 143.254C191.059 128.379 180.412 137.067 175.588 146.36C170.763 155.654 172.517 180.676 172.517 180.676C172.517 180.676 168.609 134.308 159.227 136.569C149.854 138.83 168.52 171.587 169.731 187.369C169.731 187.369 161.728 165.187 153.21 168.303C144.691 171.418 164.799 176.554 170.345 208.697L171.849 223.607C171.849 223.607 164.657 201.817 157.527 207.309C150.397 212.801 174.173 227.586 176.22 259.302L180.395 258.795Z" fill="#F0F0F0"/>
<path d="M202.818 276.473C202.818 286.202 192.27 294.098 179.256 294.098C166.242 294.098 155.685 286.202 155.685 276.473C155.685 272.085 157.821 268.088 161.364 265.008L158.578 253.214H199.925L197.139 265.008C200.681 268.088 202.818 272.085 202.818 276.473Z" fill="#EBEBEB"/>
<path d="M215.323 28.9146C202.38 43.2905 195.971 62.8737 197.066 82.1898C198.161 101.506 205.282 120.003 213.952 137.299C221.545 152.449 230.616 169.629 224.403 185.393C220.931 194.206 213.018 200.731 204.268 204.362C195.517 207.994 185.922 209.045 176.459 209.516C160.33 210.326 143.96 209.588 128.267 213.371C112.574 217.154 97.1206 226.5 91.0498 241.464C83.9019 259.098 92.0201 280.194 106.334 292.718C120.656 305.243 139.865 310.619 158.71 313.281C185.112 317.001 212.163 316.067 238.244 310.539C259.19 306.097 279.796 298.54 296.887 285.642C313.969 272.743 327.303 254.086 330.962 232.99C334.62 211.893 327.526 188.562 310.809 175.192C303.857 169.629 295.472 165.828 289.374 159.339C283.277 152.85 280.179 142.043 285.84 135.171C289.579 130.632 295.881 129.243 301.721 128.54C330.446 125.113 362.268 131.032 386.293 114.912C400.046 105.681 408.948 89.943 410.906 73.4931C412.864 57.0432 409.313 39.2403 398.951 26.3154C370.716 -8.881 249.923 -9.513 215.332 28.9057L215.323 28.9146Z" fill="#0069B8"/>
<g opacity="0.9">
<path d="M215.323 28.9146C202.38 43.2905 195.971 62.8737 197.066 82.1898C198.161 101.506 205.282 120.003 213.952 137.299C221.545 152.449 230.616 169.629 224.403 185.393C220.931 194.206 213.018 200.731 204.268 204.362C195.517 207.994 185.922 209.045 176.459 209.516C160.33 210.326 143.96 209.588 128.267 213.371C112.574 217.154 97.1206 226.5 91.0498 241.464C83.9019 259.098 92.0201 280.194 106.334 292.718C120.656 305.243 139.865 310.619 158.71 313.281C185.112 317.001 212.163 316.067 238.244 310.539C259.19 306.097 279.796 298.54 296.887 285.642C313.969 272.743 327.303 254.086 330.962 232.99C334.62 211.893 327.526 188.562 310.809 175.192C303.857 169.629 295.472 165.828 289.374 159.339C283.277 152.85 280.179 142.043 285.84 135.171C289.579 130.632 295.881 129.243 301.721 128.54C330.446 125.113 362.268 131.032 386.293 114.912C400.046 105.681 408.948 89.943 410.906 73.4931C412.864 57.0432 409.313 39.2403 398.951 26.3154C370.716 -8.881 249.923 -9.513 215.332 28.9057L215.323 28.9146Z" fill="white"/>
</g>
<path d="M218.537 332.223C313.856 332.223 391.127 327.712 391.127 322.147C391.127 316.581 313.856 312.07 218.537 312.07C123.218 312.07 45.9463 316.581 45.9463 322.147C45.9463 327.712 123.218 332.223 218.537 332.223Z" fill="#F5F5F5"/>
<path d="M204.355 180.889L206.581 168.044L210.951 169.317L204.355 180.889Z" fill="#0069B8"/>
<path d="M205.824 184.993L218.34 181.379L216.604 177.168L205.824 184.993Z" fill="#0069B8"/>
<path d="M208.05 180.168L215.18 166.682L219.978 170.021L208.05 180.168Z" fill="#0069B8"/>
<path d="M90.2574 200.392H84.6228C84.3736 200.392 84.1777 200.197 84.1777 199.947C84.1777 199.698 84.3736 199.502 84.6228 199.502H90.2574C90.5067 199.502 90.7025 199.698 90.7025 199.947C90.7025 200.197 90.5067 200.392 90.2574 200.392Z" fill="#0069B8"/>
<path d="M80.8748 200.392H52.6394C52.3902 200.392 52.1943 200.197 52.1943 199.947C52.1943 199.698 52.3902 199.502 52.6394 199.502H80.8748C81.1241 199.502 81.3199 199.698 81.3199 199.947C81.3199 200.197 81.1241 200.392 80.8748 200.392Z" fill="#0069B8"/>
<path d="M181.017 251.896C180.91 251.896 180.803 251.861 180.714 251.78C180.536 251.611 180.519 251.335 180.688 251.148L183.323 248.282C183.492 248.104 183.768 248.095 183.955 248.255C184.133 248.425 184.15 248.701 183.981 248.887L181.346 251.754C181.257 251.852 181.142 251.896 181.017 251.896Z" fill="#0069B8"/>
<path d="M156.885 274.711C156.725 274.711 156.564 274.622 156.484 274.47C156.378 274.248 156.458 273.981 156.68 273.874C164.932 269.699 177.999 254.086 178.133 253.926C178.293 253.739 178.569 253.712 178.756 253.872C178.943 254.033 178.969 254.308 178.809 254.495C178.266 255.145 165.484 270.402 157.072 274.666C157.01 274.702 156.938 274.711 156.867 274.711H156.885Z" fill="#0069B8"/>
<path d="M220.94 269.833L227.296 264.572L211.291 249.386L204.464 255.217L220.94 269.833Z" fill="#CB7A63"/>
<path d="M232.441 262.551C232.014 262.284 231.141 262.409 230.242 262.658C229.815 262.783 229.37 262.925 228.978 263.068C228.667 263.183 228.382 263.299 228.142 263.397C227.785 263.548 227.527 263.664 227.438 263.708C227.358 263.726 227.305 263.806 227.296 263.895C227.296 263.922 227.296 263.958 227.323 263.984C227.349 264.029 227.394 264.065 227.447 264.073C228.346 264.314 229.272 264.465 230.207 264.536C230.661 264.599 231.132 264.563 231.569 264.438C231.595 264.438 231.613 264.43 231.631 264.421C231.88 264.341 232.129 264.234 232.352 264.1C232.646 263.86 232.806 263.495 232.77 263.112C232.77 262.881 232.646 262.667 232.441 262.542V262.551ZM232.352 263.13C232.396 263.388 232.281 263.646 232.067 263.798C231.898 263.94 231.658 264.029 231.346 264.091C231.043 264.154 230.678 264.171 230.26 264.145C229.771 264.127 229.201 264.047 228.569 263.931C228.435 263.904 228.293 263.878 228.15 263.851C228.907 263.486 229.699 263.21 230.518 263.023C230.954 262.925 231.391 262.854 231.836 262.809C231.969 262.809 232.094 262.836 232.209 262.898C232.29 262.952 232.343 263.032 232.334 263.13H232.352Z" fill="#0069B8"/>
<path d="M229.53 259.204C229.121 259.267 228.747 259.516 228.515 259.854C228.444 259.961 228.382 260.068 228.337 260.192C227.803 261.341 228.079 263.076 228.141 263.397C228.141 263.424 228.141 263.433 228.15 263.441C228.159 263.513 228.213 263.575 228.284 263.593C228.319 263.611 228.364 263.619 228.408 263.602C228.435 263.602 228.462 263.584 228.488 263.557C228.64 263.433 228.8 263.263 228.978 263.059C229.236 262.756 229.503 262.391 229.735 261.99C230.287 261.091 230.678 260.077 230.438 259.551C230.34 259.329 230.109 259.098 229.53 259.187V259.204ZM230.064 259.73C230.215 260.077 229.922 260.869 229.468 261.652C229.174 262.151 228.836 262.631 228.497 262.987C228.426 262.427 228.355 261.358 228.631 260.566C228.684 260.388 228.764 260.219 228.862 260.086C229.014 259.872 229.227 259.703 229.477 259.632L229.601 259.614C229.975 259.543 230.046 259.685 230.064 259.73Z" fill="#0069B8"/>
<path d="M226.468 264.198L218.492 268.222C218.181 268.373 218.021 268.729 218.118 269.058L220.468 276.518C220.727 277.248 221.528 277.63 222.267 277.372C222.311 277.354 222.364 277.337 222.409 277.31C236.073 272.512 240.256 269.112 241.69 268.337C245.758 266.121 243.47 263.237 241.957 263.593C235.147 265.222 232.859 264.803 229.913 264.038C228.355 263.789 226.967 263.94 226.486 264.18L226.468 264.198Z" fill="#263238"/>
<path opacity="0.2" d="M211.291 249.395L219.401 256.579L212.564 262.409L204.464 255.225L211.291 249.395Z" fill="black"/>
<path d="M208.772 262.355L218.964 252.956L216.721 249.012L204.936 259.133L208.772 262.355Z" fill="#0069B8"/>
<path opacity="0.5" d="M208.772 262.355L218.964 252.956L216.721 249.012L204.936 259.133L208.772 262.355Z" fill="white"/>
<path d="M215.119 250.392L213.757 251.567L211.719 253.32L210.499 254.353L206.948 257.406L206.262 257.985C206.262 257.985 191.744 249.804 183.661 242.817C178.125 238.028 177.626 236.247 177.048 236.693C169.241 242.63 146.133 263.157 133.039 273.838C132.612 273.883 132.193 273.927 131.757 273.954C124.76 274.47 119.259 273.696 114.987 272.067C114.942 266.388 119.802 253.125 120.203 251.843C120.203 251.843 139.528 232.633 170.834 216.397C171.146 216.237 171.466 216.112 171.778 215.979C172.187 215.801 172.588 215.632 173.006 215.48C174.644 214.857 176.246 214.474 177.804 214.394C179.202 214.323 180.564 214.572 181.872 215.035C182.611 215.293 183.341 215.614 184.044 215.988C184.667 216.299 185.273 216.664 185.86 217.038C186.83 217.652 187.765 218.338 188.646 219.014C190.64 220.554 205.764 240.039 213.9 249.03C214.327 249.502 214.728 249.947 215.11 250.347L215.119 250.392Z" fill="#0069B8"/>
<g opacity="0.1">
<path d="M215.119 250.392L213.757 251.567L211.719 253.32L210.499 254.353L206.948 257.406L206.262 257.985C206.262 257.985 191.744 249.804 183.661 242.817C178.125 238.028 177.626 236.247 177.048 236.693C169.241 242.63 146.133 263.157 133.039 273.838C132.612 273.883 132.193 273.927 131.757 273.954C124.76 274.47 119.259 273.696 114.987 272.067C114.942 266.388 119.802 253.125 120.203 251.843C120.203 251.843 139.528 232.633 170.834 216.397C171.146 216.237 171.466 216.112 171.778 215.979C172.187 215.801 172.588 215.632 173.006 215.48C174.644 214.857 176.246 214.474 177.804 214.394C179.202 214.323 180.564 214.572 181.872 215.035C182.611 215.293 183.341 215.614 184.044 215.988C184.667 216.299 185.273 216.664 185.86 217.038C186.83 217.652 187.765 218.338 188.646 219.014C190.64 220.554 205.764 240.039 213.9 249.03C214.327 249.502 214.728 249.947 215.11 250.347L215.119 250.392Z" fill="black"/>
</g>
<path d="M111.996 168.392C113.215 173.937 114.497 182.029 110.696 185.83C115.414 194.144 121.084 201.879 127.591 208.884C135.932 194.384 128.027 185.42 128.027 185.42C121.779 184.085 121.877 181.566 122.856 177.222L111.996 168.383V168.392Z" fill="#CB7A63"/>
<path d="M106.833 186.533C107.296 185.028 108.248 183.729 109.539 182.83C110.785 181.868 123.746 181.726 127.111 182.83C129.078 183.453 130.751 184.77 131.82 186.542L106.824 186.524L106.833 186.533Z" fill="#0069B8"/>
<path d="M166.625 208.608L169.981 207.077L170.15 212.543C170.15 212.543 168.583 213.94 166.865 214.475C165.218 214.982 163.652 213.469 164.061 211.795C164.399 210.407 165.343 209.232 166.634 208.608H166.625Z" fill="#CB7A63"/>
<path d="M174.262 208.626L174.084 210.629C174.039 211.252 173.585 211.768 172.98 211.902L170.113 212.543L169.944 207.077L172.855 207.122C173.63 207.113 174.253 207.727 174.262 208.502C174.262 208.546 174.262 208.582 174.262 208.626Z" fill="#CB7A63"/>
<path d="M124.067 224.159C129.105 226.643 135.282 228.067 141.344 227.043C148.483 225.842 160.919 218.676 166.331 214.563L164.506 211.849C161.809 212.427 139.769 223.625 125.526 213.495C122.874 211.608 112.459 203.837 108.774 203.997C102.801 204.264 103.317 210.522 105.881 213.121C108.881 216.166 119.936 222.121 124.058 224.15L124.067 224.159Z" fill="#CB7A63"/>
<g opacity="0.2">
<path d="M174.084 210.629C174.03 211.243 173.585 211.768 172.98 211.902L170.131 212.543C170.131 212.543 168.565 213.949 166.856 214.483C166.678 214.537 166.5 214.572 166.331 214.572C160.918 218.694 148.492 225.842 141.353 227.052C135.291 228.067 129.114 226.652 124.075 224.159C119.954 222.13 108.889 216.175 105.89 213.13C103.326 210.522 102.81 204.273 108.783 203.997C112.459 203.837 122.883 211.608 125.535 213.495C139.119 223.153 159.788 213.415 164.016 211.991C164.025 211.929 164.034 211.857 164.052 211.795C164.221 211.101 164.532 210.46 164.978 209.908C165.405 209.365 165.974 208.911 166.615 208.599L169.936 207.086H169.971L172.855 207.113C173.621 207.113 174.253 207.727 174.253 208.502C174.253 208.537 174.253 208.573 174.253 208.617L174.084 210.62V210.629Z" fill="black"/>
<path d="M169.971 207.077L169.944 207.086V207.077H169.971Z" fill="black"/>
</g>
<path d="M142.733 195.479C150.29 212.133 132.763 216.887 140.792 244.197L102.694 245.113C102.952 230.479 108.15 233.622 101.296 206.107C100.718 203.775 99.7474 197.09 102.231 191.001C103.201 188.634 104.919 186.622 107.171 185.402C109.984 183.88 122.375 185.073 128.027 185.447C134.152 184.583 141.611 193.387 142.733 195.479Z" fill="#0069B8"/>
<path opacity="0.5" d="M142.733 195.479C150.29 212.133 132.763 216.887 140.792 244.197L102.694 245.113C102.952 230.479 108.15 233.622 101.296 206.107C100.718 203.775 99.7474 197.09 102.231 191.001C103.201 188.634 104.919 186.622 107.171 185.402C109.984 183.88 122.375 185.073 128.027 185.447C134.152 184.583 141.611 193.387 142.733 195.479Z" fill="white"/>
<path d="M135.451 162.436C135.344 163.166 135.638 163.763 136.092 163.825C136.546 163.887 137.008 163.38 137.106 162.677C137.213 161.974 136.919 161.35 136.465 161.288C136.011 161.226 135.549 161.742 135.451 162.436Z" fill="#263238"/>
<path d="M136.261 161.306L138.005 161.066C138.005 161.066 136.955 162.258 136.261 161.306Z" fill="#263238"/>
<path d="M135.567 163.398C135.567 163.398 136.314 166.585 137.418 168.214C136.368 168.943 134.854 168.32 134.854 168.32L135.567 163.398Z" fill="#A02724"/>
<path d="M137.971 157.541C138.104 157.487 138.202 157.363 138.229 157.22C138.264 156.989 138.104 156.784 137.882 156.749C136.564 156.517 135.211 156.944 134.268 157.888C134.099 158.048 134.09 158.306 134.241 158.475C134.401 158.645 134.659 158.653 134.828 158.502C134.846 158.484 134.864 158.467 134.882 158.44C135.647 157.71 136.716 157.389 137.757 157.576C137.828 157.585 137.908 157.576 137.971 157.55V157.541Z" fill="#263238"/>
<path d="M112.396 156.677C111.675 165.356 111.186 169.006 114.889 174.053C120.461 181.646 131.285 180.649 134.57 172.353C137.543 164.893 138.228 151.96 130.306 147.313C124.662 143.966 117.381 145.826 114.025 151.461C113.082 153.046 112.521 154.835 112.396 156.668V156.677Z" fill="#CB7A63"/>
<path d="M134.765 171.828C134.107 171.276 133.608 170.546 133.323 169.709C133.297 169.62 133.35 169.522 133.448 169.487C133.537 169.46 133.635 169.513 133.662 169.611C133.92 170.332 134.347 170.964 134.899 171.472L134.765 171.837V171.828Z" fill="#263238"/>
<path d="M106.21 145.39C102.898 149.877 101.394 151.043 105.489 162.979C107.135 167.777 111.916 174.133 114.239 174.712C118.405 175.762 122.455 172.833 125.588 169.887C128.33 167.306 130.956 164.519 132.62 161.146C134.285 157.772 134.899 153.731 133.528 150.233C132.033 146.432 126.754 143.04 122.802 142.203C118.155 141.224 108.96 141.661 106.21 145.39Z" fill="#263238"/>
<path d="M132.166 161.885C132.166 161.885 133.207 163.674 131.89 165.009L131.916 162.623L132.166 161.876V161.885Z" fill="#263238"/>
<path d="M132.148 161.885C132.148 161.885 132.531 164.626 130.234 165.65L131.472 162.686L132.157 161.876L132.148 161.885Z" fill="#263238"/>
<path d="M116.864 173.697C116.864 173.697 114.336 174.836 114.701 177.329L116.544 174.703L116.864 173.697Z" fill="#263238"/>
<path d="M116.962 173.75C116.962 173.75 115.039 175.744 116.303 177.925L117.042 174.801L116.962 173.741V173.75Z" fill="#263238"/>
<path d="M135.629 158.306C136.528 157.381 137.445 156.437 138.104 155.324C138.762 154.212 139.172 152.894 138.976 151.621C138.718 149.966 137.472 148.604 136.021 147.767C134.57 146.939 132.905 146.565 131.267 146.2C130.466 146.022 129.567 145.853 128.864 146.28C128.178 146.69 127.885 147.553 127.929 148.346C127.965 149.138 128.285 149.886 128.57 150.624C129.701 153.517 130.413 156.49 130.956 159.535C131.232 161.075 131.018 162.089 132.54 161.502C133.564 161.101 134.855 159.107 135.629 158.306Z" fill="#263238"/>
<path d="M123.648 162.588C123.559 164.6 124.262 166.558 125.615 168.044C127.422 170.003 129.718 168.721 130.377 166.282C130.982 164.092 130.751 160.434 128.374 159.383C125.998 158.333 123.763 160.14 123.639 162.588H123.648Z" fill="#CB7A63"/>
<path d="M224.608 273.838L231.48 267.136L218.172 250.41L209.867 255.314L224.608 273.838Z" fill="#CB7A63"/>
<path d="M238.495 265.07C237.729 264.803 236.162 265.658 234.978 266.415C234.676 266.61 234.409 266.788 234.177 266.949H234.159C234.159 266.949 234.079 267.02 234.044 267.047C233.777 267.234 233.581 267.376 233.51 267.429C233.421 267.474 233.385 267.572 233.403 267.652C233.421 267.732 233.51 267.803 233.599 267.812C234.418 267.848 235.237 267.812 236.056 267.732C236.242 267.714 236.42 267.696 236.599 267.67C237.195 267.625 237.765 267.429 238.254 267.1C238.432 266.984 238.601 266.86 238.744 266.717C239.002 266.406 239.091 265.978 238.966 265.587C238.904 265.346 238.726 265.151 238.495 265.062V265.07ZM238.548 265.711C238.637 265.97 238.592 266.263 238.406 266.477C238.174 266.762 237.711 266.993 237.052 267.153C236.545 267.278 235.931 267.367 235.21 267.403C234.925 267.412 234.622 267.429 234.311 267.42C234.409 267.34 234.507 267.269 234.613 267.198C234.685 267.145 234.756 267.1 234.827 267.047C235.78 266.379 236.83 265.854 237.943 265.489C238.076 265.453 238.219 265.453 238.361 265.489C238.459 265.524 238.521 265.605 238.548 265.703V265.711Z" fill="#0069B8"/>
<path d="M234.685 262.231C234.266 262.391 233.937 262.729 233.777 263.139C233.216 264.51 234.044 266.619 234.186 266.949C234.186 266.949 234.186 266.952 234.186 266.958V266.984C234.222 267.056 234.284 267.109 234.364 267.118C234.409 267.118 234.453 267.118 234.498 267.1C234.524 267.1 234.56 267.064 234.569 267.047C234.578 267.029 234.587 267.029 234.596 267.02C234.72 266.86 234.854 266.655 234.969 266.415C235.628 265.177 236.242 263.112 235.699 262.4C235.539 262.186 235.245 261.999 234.667 262.231H234.685ZM234.462 266.441C234.222 265.738 233.794 264.243 234.186 263.317C234.293 263.059 234.48 262.836 234.729 262.703L234.854 262.64C235.236 262.489 235.334 262.623 235.37 262.667C235.762 263.192 235.165 265.302 234.471 266.441H234.462Z" fill="#0069B8"/>
<path opacity="0.2" d="M217.478 249.386L223.745 257.406L215.271 262.124L208.906 254.318L217.478 249.386Z" fill="black"/>
<path d="M102.347 242.211L101.466 245.665C101.332 245.941 101.661 246.199 102.098 246.19L141.335 245.265C141.682 245.247 141.958 245.078 141.976 244.864L140.997 241.241C141.024 241.01 140.712 240.814 140.338 240.823L102.979 241.918C102.73 241.9 102.489 242.016 102.356 242.22L102.347 242.211Z" fill="#263238"/>
<path d="M137.258 245.674L136.226 245.781C136.021 245.781 135.852 245.719 135.852 245.594L135.834 241.134C135.834 241.01 136.003 240.885 136.208 240.858L137.24 240.743C137.445 240.743 137.614 240.805 137.614 240.939L137.632 245.398C137.632 245.532 137.463 245.656 137.258 245.683V245.674Z" fill="#0069B8"/>
<path d="M123.212 245.852L122.18 245.959C121.975 245.959 121.815 245.897 121.806 245.772V241.312C121.806 241.188 121.957 241.063 122.162 241.036L123.185 240.921C123.39 240.921 123.559 240.983 123.559 241.117L123.577 245.576C123.577 245.728 123.408 245.834 123.203 245.861L123.212 245.852Z" fill="#0069B8"/>
<path d="M123.212 245.852L122.18 245.959C121.975 245.959 121.815 245.897 121.806 245.772V241.312C121.806 241.188 121.957 241.063 122.162 241.036L123.185 240.921C123.39 240.921 123.559 240.983 123.559 241.117L123.577 245.576C123.577 245.728 123.408 245.834 123.203 245.861L123.212 245.852Z" fill="#0069B8"/>
<path d="M222.739 252.973L221.003 253.952L218.021 255.644L215.341 257.148L212.591 258.706L211.541 259.311C211.541 259.311 211.3 259.142 210.882 258.83C210.722 258.715 210.535 258.581 210.321 258.421C209.671 257.931 208.754 257.246 207.695 256.4C202.158 252.021 192.305 243.422 189.376 235.598C187.48 237.859 185.21 240.689 182.611 243.823C171.422 257.326 154.028 276.384 133.11 278.868C132.683 278.93 132.264 278.966 131.828 279.001C124.84 279.606 119.33 278.903 115.04 277.328C104.189 273.358 101.162 263.815 101.91 255.706V255.679C101.981 251.887 102.72 245.122 102.72 245.122L142.305 245.167C147.886 238.393 159.075 227.782 170.523 221.088C170.79 220.919 171.066 220.759 171.342 220.616C171.68 220.412 172.027 220.234 172.365 220.047C176.086 218.008 179.807 216.433 183.332 215.578C184.115 215.391 184.89 215.231 185.655 215.115C186.456 214.991 187.248 214.92 188.023 214.884C193.444 214.644 198.153 216.655 201.348 222.076L222.178 252.128L222.774 252.991L222.739 252.973Z" fill="#0069B8"/>
<path d="M201.377 211.84L157.635 213.647L158.917 185.812L202.658 184.005L201.377 211.84Z" fill="#0069B8"/>
<path d="M200.869 214.038L157.759 215.819C156.54 215.872 155.587 214.911 155.649 213.691L156.922 186.034C156.976 184.806 158.017 183.773 159.237 183.72L202.346 181.94C203.566 181.886 204.518 182.839 204.456 184.067L203.183 211.724C203.13 212.952 202.088 213.985 200.869 214.038Z" fill="#263238"/>
<path d="M201.377 211.84L157.635 213.647L158.917 185.812L202.658 184.005L201.377 211.84Z" fill="#0069B8"/>
<path opacity="0.9" d="M201.377 211.84L157.635 213.647L158.917 185.812L202.658 184.005L201.377 211.84Z" fill="white"/>
<path opacity="0.1" d="M174.441 183.097L167.213 215.409L170.088 215.293L177.218 182.981L174.441 183.097Z" fill="white"/>
<path opacity="0.1" d="M178.873 182.919L171.646 215.231L177.351 214.991L184.481 182.687L178.873 182.919Z" fill="white"/>
<path d="M187.178 214.386L201.741 213.976C201.99 215.667 201.269 216.299 200.343 216.326L195.688 216.442L192.581 216.513L187.748 216.647L157.759 217.519L157.519 215.409L187.187 214.386H187.178Z" fill="#0069B8"/>
<path d="M187.178 214.386L201.741 213.976C201.99 215.667 201.269 216.299 200.343 216.326L195.688 216.442L192.581 216.513L187.748 216.647L150.629 217.786C150.201 217.795 149.81 217.563 149.623 217.172C149.293 216.477 149.783 215.658 150.557 215.632L187.187 214.377L187.178 214.386Z" fill="#0069B8"/>
<path opacity="0.2" d="M187.178 214.386L201.741 213.976C201.99 215.667 201.269 216.299 200.343 216.326L195.688 216.442L192.581 216.513L187.748 216.647L150.629 217.786C150.201 217.795 149.81 217.563 149.623 217.172C149.293 216.477 149.783 215.658 150.557 215.632L187.187 214.377L187.178 214.386Z" fill="black"/>
<path opacity="0.2" d="M201.741 213.976L201.83 214.564C201.964 215.472 201.269 216.299 200.344 216.326L195.688 216.442L187.045 216.753L187.187 214.386L201.75 213.976H201.741Z" fill="black"/>
<path opacity="0.2" d="M126.309 196.298C126.309 196.298 124.253 200.49 130.19 211.564L132.674 216.077C133.493 217.563 138.94 214.528 140.56 211.742C140.56 211.742 130.146 205.493 126.309 196.298Z" fill="black"/>
<path d="M176.665 209.205L180.804 207.985L180.136 214.385C180.136 214.385 174.359 218.249 172.356 214.555L173.158 212.489C173.763 210.923 175.054 209.712 176.647 209.205H176.665Z" fill="#CB7A63"/>
<path d="M185.557 210.504L185.041 212.81C184.889 213.522 184.284 214.047 183.554 214.109L180.109 214.376L180.777 207.976L184.16 208.51C185.059 208.626 185.699 209.454 185.575 210.353C185.575 210.398 185.557 210.451 185.548 210.495L185.557 210.504Z" fill="#CB7A63"/>
<path d="M142.199 220.029C145.083 223.946 149.142 227.212 153.922 228.147C159.547 229.251 170.372 221.293 175.445 216.139C175.187 213.967 175.339 212.792 173.167 212.489C173.167 212.489 167.586 216.584 157.046 219.041C153.646 219.833 151.376 216.353 148.403 211.288C146.925 208.76 142.136 198.407 140.329 196.102C137.436 192.399 129.185 195.052 132.46 203.962C133.84 207.709 139.831 216.824 142.199 220.029Z" fill="#CB7A63"/>
<path d="M139.119 190.04C144.976 195.416 147.825 204.923 147.825 204.923L134.152 213.255C134.152 213.255 124.156 199.226 125.936 194.339C127.342 190.547 129.951 188.055 133.378 187.841C135.505 187.708 137.552 188.598 139.119 190.031V190.04Z" fill="#0069B8"/>
<path d="M107.768 246.395L106.735 246.422C106.531 246.395 106.37 246.324 106.379 246.19L106.753 241.749C106.771 241.615 106.94 241.508 107.145 241.499L108.177 241.473C108.382 241.499 108.542 241.579 108.533 241.704L108.16 246.155C108.142 246.288 107.973 246.422 107.768 246.395Z" fill="#0069B8"/>
<path d="M209.841 261.198L223.157 254.54L222.018 249.804L206.832 256.739L209.841 261.198Z" fill="#0069B8"/>
<path opacity="0.5" d="M209.841 261.198L223.157 254.54L222.018 249.804L206.832 256.739L209.841 261.198Z" fill="white"/>
<path d="M230.946 266.406L221.759 269.192C221.395 269.29 221.163 269.637 221.208 270.011L222.311 278.342C222.454 279.161 223.228 279.722 224.047 279.58C224.101 279.571 224.154 279.562 224.207 279.544C239.554 276.989 244.618 274.177 246.265 273.616C250.974 272.022 249.096 268.542 247.422 268.649C239.91 269.112 237.568 268.248 234.587 266.895C232.984 266.343 231.489 266.254 230.937 266.414L230.946 266.406Z" fill="#263238"/>
<path d="M107.42 156.57C104.661 157.007 101.928 154.888 101.065 152.235C100.201 149.583 100.913 146.619 102.329 144.206C103.37 142.426 110.198 138.207 112.735 142.96C117.773 152.414 107.42 156.57 107.42 156.57Z" fill="#263238"/>
<path d="M200.984 193.547L174.057 194.695L174.181 192.025L201.108 190.877L200.984 193.547Z" fill="#0069B8"/>
<g opacity="0.7">
<path d="M200.984 193.547L174.057 194.695L174.181 192.025L201.108 190.877L200.984 193.547Z" fill="white"/>
</g>
<path d="M200.823 197.259L173.896 198.398L174.012 195.728L200.939 194.589L200.823 197.259Z" fill="#0069B8"/>
<g opacity="0.7">
<path d="M200.823 197.259L173.896 198.398L174.012 195.728L200.939 194.589L200.823 197.259Z" fill="white"/>
</g>
<path d="M200.654 200.962L173.728 202.11L173.852 199.44L200.779 198.292L200.654 200.962Z" fill="#0069B8"/>
<g opacity="0.7">
<path d="M200.654 200.962L173.728 202.11L173.852 199.44L200.779 198.292L200.654 200.962Z" fill="white"/>
</g>
<path d="M200.485 204.674L173.558 205.813L173.682 203.143L200.609 202.004L200.485 204.674Z" fill="#0069B8"/>
<g opacity="0.7">
<path d="M200.485 204.674L173.558 205.813L173.682 203.143L200.609 202.004L200.485 204.674Z" fill="white"/>
</g>
<path d="M200.324 208.377L173.397 209.525L173.513 206.855L200.44 205.707L200.324 208.377Z" fill="#0069B8"/>
<g opacity="0.7">
<path d="M200.324 208.377L173.397 209.525L173.513 206.855L200.44 205.707L200.324 208.377Z" fill="white"/>
</g>
<path d="M163.169 196.195L161.008 196.288L161.046 197.177L163.207 197.084L163.169 196.195Z" fill="#0069B8"/>
<g opacity="0.5">
<path d="M163.169 196.195L161.008 196.288L161.046 197.177L163.207 197.084L163.169 196.195Z" fill="white"/>
</g>
<path d="M163.074 198.769L160.913 198.862L160.951 199.752L163.112 199.659L163.074 198.769Z" fill="#0069B8"/>
<g opacity="0.5">
<path d="M163.074 198.769L160.913 198.862L160.951 199.752L163.112 199.659L163.074 198.769Z" fill="white"/>
</g>
<path d="M162.979 201.317L160.818 201.41L160.857 202.3L163.018 202.207L162.979 201.317Z" fill="#0069B8"/>
<g opacity="0.5">
<path d="M162.979 201.317L160.818 201.41L160.857 202.3L163.018 202.207L162.979 201.317Z" fill="white"/>
</g>
<path d="M162.868 203.901L160.707 203.994L160.745 204.883L162.906 204.79L162.868 203.901Z" fill="#0069B8"/>
<g opacity="0.5">
<path d="M162.868 203.901L160.707 203.994L160.745 204.883L162.906 204.79L162.868 203.901Z" fill="white"/>
</g>
<path d="M162.782 206.449L160.621 206.542L160.659 207.431L162.82 207.338L162.782 206.449Z" fill="#0069B8"/>
<g opacity="0.5">
<path d="M160.65 207.451L160.731 206.552L162.885 206.463L162.805 207.353L160.65 207.451Z" fill="white"/>
</g>
<path d="M162.663 209.034L160.502 209.125L160.539 210.014L162.701 209.923L162.663 209.034Z" fill="#0069B8"/>
<g opacity="0.5">
<path d="M162.663 209.034L160.502 209.125L160.539 210.014L162.701 209.923L162.663 209.034Z" fill="white"/>
</g>
<path d="M165.43 193.734L160.962 195.399L161.006 194.224L163.481 193.823L161.033 193.654L161.078 192.479L165.43 193.734Z" fill="#0069B8"/>
<path d="M192.714 189.488L174.057 190.28L174.146 188.429L192.803 187.637L192.714 189.488Z" fill="#0069B8"/>
<g opacity="0.7">
<path d="M192.714 189.488L174.057 190.28L174.146 188.429L192.803 187.637L192.714 189.488Z" fill="white"/>
</g>
<path d="M167.54 190.449L164.808 190.565L165.911 189.862L166.214 190.147L166.543 189.853L167.54 190.449Z" fill="#0069B8"/>
<path d="M165.805 189.782L164.701 190.485L164.781 188.856L165.805 189.782Z" fill="#0069B8"/>
<path d="M167.719 188.803L167.63 190.352L166.624 189.764L167.719 188.803Z" fill="#0069B8"/>
<path d="M166.246 189.484L166.186 189.548L166.192 189.554L166.253 189.49L166.246 189.484Z" fill="white"/>
<path d="M166.203 189.501L166.196 189.507L166.257 189.571L166.264 189.565L166.203 189.501Z" fill="white"/>
<path d="M167.718 188.651L166.543 189.72L166.214 190.004L165.911 189.728L164.888 188.803L164.808 188.723L167.718 188.651Z" fill="#0069B8"/>
<path d="M163.181 188.959L161.02 189.05L161.031 189.317L163.192 189.226L163.181 188.959Z" fill="#0069B8"/>
<path d="M163.184 189.626L161.022 189.717L161.034 189.984L163.195 189.893L163.184 189.626Z" fill="#0069B8"/>
<path d="M163.177 190.319L161.016 190.411L161.027 190.678L163.188 190.586L163.177 190.319Z" fill="#0069B8"/>
<path d="M288.6 55.0847H275.63C274.455 55.0847 273.503 54.1323 273.503 52.9573C273.503 51.7823 274.455 50.8298 275.63 50.8298H288.6C289.775 50.8298 290.727 51.7823 290.727 52.9573C290.727 54.1323 289.775 55.0847 288.6 55.0847Z" fill="#0069B8"/>
<g opacity="0.7">
<path d="M288.6 55.0847H275.63C274.455 55.0847 273.503 54.1323 273.503 52.9573C273.503 51.7823 274.455 50.8298 275.63 50.8298H288.6C289.775 50.8298 290.727 51.7823 290.727 52.9573C290.727 54.1323 289.775 55.0847 288.6 55.0847Z" fill="white"/>
</g>
<path d="M336.178 98.7997L286.455 190.307C285.814 191.482 284.336 191.918 283.161 191.277L198.553 145.301C197.378 144.66 196.942 143.182 197.583 142.007L262.252 22.9949C262.893 21.8199 264.37 21.3837 265.545 22.0246L322.559 53.0017L336.187 98.8086L336.178 98.7997Z" fill="#0069B8"/>
<g opacity="0.2">
<path d="M336.178 98.7997L286.455 190.307C285.814 191.482 284.336 191.918 283.161 191.277L198.553 145.301C197.378 144.66 196.942 143.182 197.583 142.007L262.252 22.9949C262.893 21.8199 264.37 21.3837 265.545 22.0246L322.559 53.0017L336.187 98.8086L336.178 98.7997Z" fill="white"/>
</g>
<path d="M308.261 119.351L245.073 85.2568L242.96 89.1738L306.148 123.268L308.261 119.351Z" fill="#0069B8"/>
<path d="M299.631 135.354L236.443 101.259L234.33 105.176L297.518 139.271L299.631 135.354Z" fill="#0069B8"/>
<path d="M290.993 151.356L227.806 117.262L225.692 121.179L288.88 155.273L290.993 151.356Z" fill="#0069B8"/>
<path d="M322.631 52.9573L307.632 80.5607C306.991 81.7357 307.427 83.2133 308.602 83.8542L336.116 98.8087L322.622 52.9662L322.631 52.9573Z" fill="#0069B8"/>
<path opacity="0.7" d="M322.631 52.9573L307.632 80.5607C306.991 81.7357 307.427 83.2133 308.602 83.8542L336.116 98.8087L322.622 52.9662L322.631 52.9573Z" fill="white"/>
<path d="M349.138 95.7199L299.415 187.227C298.774 188.402 297.296 188.838 296.121 188.197L211.513 142.221C210.338 141.58 209.902 140.103 210.543 138.928L275.212 19.9151C275.853 18.7401 277.33 18.3039 278.505 18.9448L335.519 49.9219L349.147 95.7288L349.138 95.7199Z" fill="#0069B8"/>
<g opacity="0.5">
<path d="M349.138 95.7199L299.415 187.227C298.774 188.402 297.296 188.838 296.121 188.197L211.513 142.221C210.338 141.58 209.902 140.103 210.543 138.928L275.212 19.9151C275.853 18.7401 277.33 18.3039 278.505 18.9448L335.519 49.9219L349.147 95.7288L349.138 95.7199Z" fill="white"/>
</g>
<path d="M319.559 115.348L259.741 83.0798C258.806 82.5813 257.649 82.9285 257.142 83.8542L256.848 84.3972C256.349 85.3319 256.697 86.4891 257.622 86.9964L317.44 119.264C318.375 119.763 319.532 119.416 320.039 118.49L320.333 117.947C320.832 117.012 320.484 115.855 319.559 115.348Z" fill="#0069B8"/>
<path d="M310.908 131.376L251.089 99.0993C250.158 98.5974 248.997 98.9446 248.496 99.8748L248.2 100.423C247.698 101.353 248.045 102.514 248.975 103.016L308.794 135.293C309.725 135.795 310.886 135.448 311.387 134.517L311.683 133.969C312.185 133.039 311.838 131.878 310.908 131.376Z" fill="#0069B8"/>
<path d="M302.279 147.379L242.46 115.102C241.529 114.6 240.369 114.947 239.867 115.877L239.571 116.426C239.069 117.356 239.416 118.517 240.346 119.019L300.165 151.296C301.096 151.797 302.257 151.45 302.759 150.52L303.054 149.972C303.556 149.041 303.209 147.881 302.279 147.379Z" fill="#0069B8"/>
<path d="M335.599 49.8774L320.6 77.4809C319.959 78.6559 320.396 80.1335 321.571 80.7744L349.085 95.7289L335.59 49.8863L335.599 49.8774Z" fill="#0069B8"/>
<path opacity="0.7" d="M335.599 49.8774L320.6 77.4809C319.959 78.6559 320.396 80.1335 321.571 80.7744L349.085 95.7289L335.59 49.8863L335.599 49.8774Z" fill="white"/>
<path d="M332.163 7.9248L336.347 26.5022C320.502 30.855 306.287 46.5304 296.059 61.3514C292.027 67.1996 288.608 73.9914 286.054 81.1749C286.054 81.1749 318.001 52.2719 335.617 50.5806L334.78 81.2906C334.78 81.2906 353.046 45.7115 388.527 32.6887C388.527 32.6887 358.805 11.2896 332.172 7.93371L332.163 7.9248Z" fill="#0069B8"/>
<path d="M116.623 210.887L124.697 303.169H111.683L102.995 203.864H108.959C112.947 203.864 116.276 206.917 116.623 210.887Z" fill="#0069B8"/>
<path opacity="0.2" d="M116.703 211.715L124.706 303.169H111.692L103.004 203.864H108.131C112.591 203.864 116.312 207.273 116.703 211.715Z" fill="black"/>
<path d="M108.167 209.872L116.33 303.169H38.8512L30.7865 211.021C30.4483 207.175 33.4837 203.864 37.3469 203.864H101.598C105.016 203.864 107.864 206.472 108.158 209.872H108.167Z" fill="#0069B8"/>
<path opacity="0.2" d="M108.256 210.887L116.33 303.169H38.8518L30.8939 212.231C30.5022 207.736 34.045 203.864 38.558 203.864H100.583C104.571 203.864 107.9 206.917 108.248 210.887H108.256Z" fill="white"/>
<path d="M244.519 303.169H39.207L36.9639 277.577H234.051C238.6 277.577 242.605 281.262 242.997 285.811L244.519 303.169Z" fill="#0069B8"/>
<path opacity="0.2" d="M244.519 303.169H39.207L36.9639 277.577H234.051C238.6 277.577 242.605 281.262 242.997 285.811L244.519 303.169Z" fill="white"/>
<path d="M253.937 312.969H36.7949C33.982 312.969 31.6943 310.69 31.6943 307.869C31.6943 305.056 33.9731 302.768 36.7949 302.768H253.937C256.75 302.768 259.038 305.047 259.038 307.869C259.038 310.681 256.759 312.969 253.937 312.969Z" fill="#0069B8"/>
<path opacity="0.2" d="M253.937 312.969H127.884C125.071 312.969 122.783 310.69 122.783 307.869C122.783 305.056 125.062 302.768 127.884 302.768H253.937C256.75 302.768 259.038 305.047 259.038 307.869C259.038 310.681 256.759 312.969 253.937 312.969Z" fill="black"/>
<path d="M39.6436 312.969L42.2161 321.728H47.3611L50.1918 312.969H39.6436Z" fill="#263238"/>
<path opacity="0.5" d="M39.6436 312.969L42.2161 321.728H47.3611L50.1918 312.969H39.6436Z" fill="white"/>
<path d="M113.375 312.969L115.948 321.728H121.093L123.923 312.969H113.375Z" fill="#263238"/>
<path opacity="0.5" d="M113.375 312.969L115.948 321.728H121.093L123.923 312.969H113.375Z" fill="white"/>
<path d="M169.81 312.969L172.382 321.728H177.527L180.358 312.969H169.81Z" fill="#263238"/>
<path opacity="0.5" d="M169.81 312.969L172.382 321.728H177.527L180.358 312.969H169.81Z" fill="white"/>
<path d="M243.541 312.969L246.114 321.728H251.259L254.089 312.969H243.541Z" fill="#263238"/>
<path opacity="0.5" d="M243.541 312.969L246.114 321.728H251.259L254.089 312.969H243.541Z" fill="white"/>
</svg>
