<svg width="258" height="260" viewBox="0 0 258 260" fill="none" xmlns="http://www.w3.org/2000/svg">
<path d="M246.775 175.651C221.785 234.492 155.218 267.455 97.491 258.564C88.0973 257.117 62.345 252.807 39.5449 232.474C-4.34709 193.331 -13.7332 115.825 21.6722 61.2029C47.4416 21.4486 93.6364 -1.0873 137.53 0.040393C146.985 0.282786 183.219 1.77975 215.063 28.0377C219.74 31.8942 230.056 41.0587 239.353 55.5985C261.185 89.7389 263.061 137.305 246.775 175.652V175.651Z" fill="#EAF6FF"/>
<g opacity="0.3">
<path d="M66.0509 87.1984C66.2081 87.7476 65.9269 88.3384 65.3853 88.5562C64.1999 89.0325 62.9765 89.4642 61.7494 89.8401C61.152 90.0229 60.5195 89.6867 60.3367 89.0893C60.3348 89.0817 60.3329 89.0751 60.331 89.0684C60.1625 88.4776 60.4977 87.8584 61.0876 87.6775C62.2541 87.3206 63.4159 86.9106 64.5417 86.458C65.1211 86.2251 65.7801 86.5063 66.0131 87.0857C66.0282 87.1227 66.0405 87.1605 66.0519 87.1984H66.0509ZM56.5579 89.8297C56.5702 89.8723 56.5796 89.9159 56.5872 89.9604C56.6866 90.5768 56.2672 91.1572 55.6508 91.2566C54.3849 91.4611 53.0971 91.6126 51.8236 91.7082C51.2006 91.7556 50.66 91.2907 50.6107 90.6658C50.5643 90.0427 51.0311 89.5002 51.6532 89.4538C52.8633 89.3629 54.0866 89.218 55.29 89.0239C55.8619 88.9321 56.4026 89.2853 56.5569 89.8288L56.5579 89.8297ZM46.722 90.305C46.7561 90.4262 46.7713 90.555 46.7627 90.6875C46.722 91.3106 46.1842 91.783 45.5612 91.7433C44.2839 91.6609 42.9943 91.5217 41.7274 91.3305C41.1101 91.2367 40.6859 90.6601 40.7787 90.0427C40.8724 89.4254 41.449 89.0003 42.0664 89.094C43.2689 89.2767 44.4931 89.4084 45.707 89.4869C46.1975 89.5182 46.5942 89.8581 46.722 90.305ZM37.0244 88.5685C37.0812 88.7683 37.0841 88.987 37.0197 89.201C36.8417 89.7994 36.2111 90.1393 35.6127 89.9613C34.3856 89.5949 33.1585 89.1707 31.9673 88.702C31.3869 88.4729 31.1019 87.8167 31.3301 87.2353C31.5592 86.6549 32.2154 86.369 32.7968 86.5981C33.9282 87.0441 35.0929 87.4465 36.2594 87.7949C36.6438 87.9095 36.9212 88.2106 37.0235 88.5694L37.0244 88.5685ZM27.9574 84.7129C28.037 84.9932 28.0095 85.3047 27.8552 85.5784C27.5484 86.1228 26.8581 86.3141 26.3147 86.0073C25.2021 85.3795 24.1 84.695 23.0405 83.9725C22.5244 83.6212 22.3909 82.9177 22.7431 82.4017C23.0944 81.8857 23.7979 81.7522 24.3149 82.1044C25.3214 82.7908 26.3686 83.4413 27.4263 84.0388C27.6961 84.1912 27.8798 84.4374 27.9584 84.7139L27.9574 84.7129ZM19.9698 78.9485C20.073 79.3121 19.9926 79.7193 19.7199 80.0194C19.3004 80.4824 18.5855 80.5165 18.1225 80.0971C17.1747 79.2373 16.2516 78.3255 15.3795 77.3881C14.9544 76.9308 14.98 76.215 15.4382 75.7899C15.8956 75.3647 16.6114 75.3903 17.0365 75.8476C17.865 76.7386 18.7418 77.604 19.6422 78.4211C19.8041 78.5679 19.914 78.7516 19.9698 78.9476V78.9485ZM6.01995 39.84C6.06256 39.9906 6.07487 40.1525 6.05025 40.3172C5.87035 41.5188 5.73968 42.744 5.66394 43.9597C5.62512 44.5828 5.08825 45.0562 4.46523 45.0174C3.8422 44.9785 3.36783 44.4417 3.4076 43.8187C3.48808 42.5385 3.62443 41.248 3.8138 39.983C3.90659 39.3656 4.48227 38.9396 5.09962 39.0323C5.55221 39.1005 5.90254 39.4281 6.01995 39.841V39.84ZM13.4631 71.5612C13.5919 72.0119 13.429 72.5147 13.0228 72.7978C12.5106 73.1557 11.8061 73.0308 11.4482 72.5185C10.7154 71.4694 10.0185 70.3758 9.37841 69.267C9.0688 68.7254 9.25059 68.0342 9.79219 67.7218C10.3328 67.4093 11.025 67.5949 11.3374 68.1356C11.9453 69.1884 12.6062 70.2271 13.3031 71.2232C13.3769 71.3293 13.4309 71.4429 13.4641 71.5603L13.4631 71.5612ZM5.66772 49.6834C5.68855 49.7554 5.70181 49.8302 5.70844 49.9069C5.80218 51.1188 5.94894 52.3431 6.14588 53.5447C6.24625 54.1611 5.82869 54.7424 5.21229 54.8428C4.59589 54.9431 4.01169 54.5265 3.91416 53.9092C3.70775 52.6442 3.55247 51.3565 3.454 50.0811C3.40571 49.4581 3.87156 48.9146 4.49458 48.8663C5.03996 48.8237 5.52475 49.1759 5.66867 49.6825L5.66772 49.6834ZM8.76865 62.9061C8.92487 63.4553 8.64556 64.0452 8.10491 64.263C7.52544 64.4968 6.86738 64.2175 6.63256 63.638C6.15346 62.4526 5.71885 61.2302 5.34201 60.005C5.33917 59.9974 5.33727 59.9898 5.33538 59.9823C5.16684 59.3924 5.50108 58.7731 6.09002 58.5923C6.68748 58.4086 7.31997 58.7428 7.50366 59.3403C7.86157 60.504 8.27439 61.6648 8.72982 62.7906C8.74497 62.8285 8.75823 62.8673 8.76865 62.9052V62.9061Z" fill="#80B4DB"/>
<path d="M7.90255 32.126C7.96315 32.34 7.9622 32.5748 7.88456 32.8011C7.69519 33.3532 7.51529 33.9175 7.3477 34.4799C7.16969 35.0783 6.54004 35.4192 5.94163 35.2412C5.34323 35.0632 5.00142 34.4335 5.18037 33.8351C5.35648 33.2433 5.54585 32.6497 5.74469 32.0692C5.94732 31.4784 6.59022 31.1631 7.18011 31.3657C7.54464 31.4907 7.80408 31.7823 7.90161 32.127L7.90255 32.126Z" fill="#80B4DB"/>
</g>
<g opacity="0.3">
<path d="M30.9201 6.46187C31.0697 6.98642 30.8207 7.55737 30.3103 7.79503C29.782 8.04121 29.2499 8.30348 28.7291 8.57239C28.1743 8.85928 27.4925 8.64246 27.2047 8.08855C26.9159 7.53181 27.1346 6.85102 27.6885 6.56413C28.2367 6.28007 28.7973 6.00454 29.3531 5.74511C29.9193 5.48094 30.5916 5.72617 30.8557 6.29144C30.8813 6.3473 30.9021 6.40411 30.9192 6.46092L30.9201 6.46187Z" fill="#80B4DB"/>
<path d="M91.9135 34.2375C92.0565 34.7375 92.191 35.2421 92.3178 35.7515C92.4684 36.3575 92.1001 36.9711 91.4941 37.1226C90.8881 37.2731 90.2717 36.902 90.123 36.2988C89.8305 35.1247 89.4915 33.9648 89.109 32.839C88.9092 32.2463 89.2254 31.6053 89.8163 31.4055C90.408 31.2048 91.05 31.522 91.2507 32.1138C91.4865 32.8106 91.71 33.5255 91.9135 34.2394V34.2375ZM93.3613 41.6296C93.3783 41.6902 93.3906 41.7536 93.3982 41.8189C93.5345 43.0735 93.6198 44.347 93.651 45.6054C93.6661 46.2293 93.1728 46.7482 92.5489 46.7634C91.9249 46.7785 91.4041 46.2843 91.3909 45.6603C91.3615 44.4654 91.281 43.2553 91.1513 42.0632C91.0841 41.4421 91.532 40.8844 92.1531 40.8172C92.7089 40.7566 93.2145 41.1097 93.3632 41.6296H93.3613ZM88.9546 26.6221C89.1004 27.1343 88.8666 27.6948 88.3733 27.942C87.8146 28.2213 87.1357 27.995 86.8555 27.4363C86.3215 26.3683 85.7335 25.3078 85.1085 24.2852C84.7838 23.7522 84.9514 23.0562 85.4835 22.7305C86.0166 22.4048 86.7125 22.5733 87.0382 23.1055C87.6963 24.182 88.3146 25.2984 88.8779 26.4242C88.9101 26.4885 88.9357 26.5548 88.9546 26.6211V26.6221ZM93.3423 51.3253C93.3821 51.4635 93.3944 51.6112 93.3783 51.7627C93.2363 53.0154 93.0384 54.2766 92.7913 55.5122C92.6691 56.1248 92.0736 56.5216 91.4609 56.3985C90.8483 56.2763 90.4516 55.6808 90.5737 55.0682C90.8086 53.895 90.996 52.6973 91.1305 51.508C91.2006 50.8878 91.7611 50.4419 92.3813 50.5119C92.85 50.565 93.2202 50.8982 93.3414 51.3253H93.3423ZM83.6873 18.4915C83.8076 18.9119 83.676 19.3825 83.3162 19.6769C82.8333 20.0727 82.1203 20.0008 81.7245 19.5179C80.9689 18.5937 80.1622 17.6886 79.328 16.8279C78.8934 16.3791 78.9039 15.6633 79.3527 15.2287C79.8015 14.794 80.5163 14.8054 80.9509 15.2533C81.8296 16.1594 82.678 17.1119 83.4743 18.0853C83.5747 18.2084 83.6457 18.3466 83.6864 18.4905L83.6873 18.4915ZM76.763 11.713C76.8587 12.0491 76.7981 12.425 76.5661 12.7214C76.1807 13.2128 75.4697 13.299 74.9782 12.9136C74.0352 12.1751 73.0505 11.4678 72.0515 10.8107C71.5289 10.4689 71.384 9.76724 71.7277 9.24458C72.0705 8.72287 72.7721 8.578 73.2938 8.92076C74.3457 9.61196 75.3816 10.3562 76.3739 11.1345C76.5689 11.2869 76.7006 11.4914 76.764 11.714L76.763 11.713ZM68.5264 6.60478C68.5993 6.86042 68.5832 7.14258 68.4592 7.40107C68.1903 7.96445 67.5152 8.20305 66.9518 7.93415C65.8696 7.41812 64.7551 6.94091 63.6369 6.51861C63.0527 6.298 62.7582 5.64562 62.9798 5.06047C63.2014 4.47627 63.8537 4.1818 64.4379 4.40336C65.6139 4.84838 66.788 5.3502 67.9271 5.89275C68.232 6.03856 68.4412 6.30273 68.5274 6.60383L68.5264 6.60478ZM59.3723 3.41485C59.4225 3.59191 59.431 3.78412 59.3865 3.97633C59.2473 4.58515 58.6413 4.96579 58.0325 4.8266C56.8641 4.55959 55.672 4.33897 54.4885 4.17233C53.8702 4.08522 53.4394 3.51238 53.5265 2.89503C53.6136 2.27674 54.1855 1.84593 54.8047 1.93304C56.0517 2.10915 57.3072 2.34113 58.5372 2.62234C58.9538 2.71797 59.2634 3.03233 59.3733 3.4158L59.3723 3.41485ZM49.7372 2.31272C49.7656 2.41214 49.7808 2.51724 49.7798 2.62613C49.7779 3.2501 49.2704 3.75572 48.6464 3.75382C47.4515 3.75098 46.2405 3.79832 45.0465 3.8968C44.4245 3.94793 43.8781 3.48302 43.827 2.86189C43.7759 2.23981 44.2389 1.69348 44.8619 1.64235C46.1184 1.53915 47.3938 1.48897 48.6512 1.49275C49.1672 1.4937 49.6018 1.84025 49.7363 2.31272H49.7372ZM40.1021 3.35236C40.1087 3.37508 40.1144 3.39781 40.1191 3.42053C40.2536 4.0303 39.8682 4.63344 39.2585 4.76789C38.3978 4.95726 37.5324 5.17599 36.6868 5.41743C36.381 5.50454 36.0761 5.59544 35.7731 5.68918C35.1766 5.87381 34.5432 5.53863 34.3595 4.94211C34.1616 4.34181 34.5091 3.71216 35.1056 3.52847C35.4247 3.43 35.7447 3.33532 36.0666 3.24252C36.9567 2.98877 37.8666 2.75869 38.7727 2.55985C39.3598 2.43013 39.9402 2.78236 40.103 3.35331L40.1021 3.35236Z" fill="#80B4DB"/>
<path d="M91.1792 60.8051C91.2408 61.021 91.2389 61.2577 91.1593 61.4859C90.9586 62.0644 90.7408 62.6486 90.5136 63.2243C90.2845 63.8056 89.6273 64.0897 89.0469 63.8606C88.4665 63.6305 88.1806 62.9753 88.4106 62.3939C88.6265 61.8476 88.8329 61.2918 89.0242 60.7426C89.2287 60.1527 89.8735 59.8412 90.4634 60.0467C90.8251 60.1726 91.0817 60.4633 91.1792 60.8051Z" fill="#80B4DB"/>
</g>
<path d="M78.1499 62.9336C78.2787 62.749 78.2759 62.5019 78.1433 62.3201L74.3531 57.1228C75.4628 54.3315 76.136 51.3433 76.3008 48.2566L81.9146 45.1253C82.1115 45.0155 82.2167 44.793 82.1778 44.5705L80.821 36.9749C80.7812 36.7533 80.6051 36.581 80.3826 36.546L74.0321 35.5518C72.8088 32.7131 71.1423 30.1424 69.1341 27.9079L70.8905 21.7202C70.952 21.5034 70.8696 21.2714 70.6841 21.1427L64.3544 16.7313C64.1698 16.6025 63.9226 16.6054 63.7408 16.7379L58.5436 20.5282C55.7523 19.4185 52.764 18.7452 49.6773 18.5805L46.5452 12.9666C46.4353 12.7697 46.2128 12.6646 45.9903 12.7034L38.3947 14.0603C38.1731 14.1 38.0008 14.2761 37.9658 14.4986L36.9716 20.8491C34.133 22.0725 31.5623 23.7389 29.3287 25.7462L23.141 23.9898C22.9242 23.9283 22.6922 24.0116 22.5634 24.1962L18.1521 30.5259C18.0233 30.7105 18.0262 30.9577 18.1587 31.1395L21.9489 36.3367C20.8383 39.128 20.166 42.1163 20.0013 45.203L14.3874 48.3351C14.1905 48.445 14.0854 48.6675 14.1242 48.89L15.481 56.4856C15.5208 56.7072 15.6969 56.8795 15.9194 56.9145L22.2699 57.9087C23.4932 60.7473 25.1597 63.318 27.167 65.5526L25.4106 71.7402C25.3491 71.9571 25.4314 72.189 25.617 72.3178L31.9467 76.7292C32.1313 76.8579 32.3784 76.8551 32.5602 76.7225L37.7575 72.9323C40.5488 74.042 43.537 74.7152 46.6237 74.88L49.755 80.4938C49.8648 80.6908 50.0873 80.7959 50.3098 80.7561L57.9045 79.3993C58.126 79.3595 58.2984 79.1834 58.3334 78.9609L59.3276 72.6104C62.1662 71.3871 64.7369 69.7206 66.9705 67.7133L73.1582 69.4697C73.375 69.5312 73.607 69.4489 73.7357 69.2633L78.1471 62.9336H78.1499Z" fill="#80B4DB"/>
<path d="M55.6104 44.6092C56.6472 48.2451 54.888 52.1982 51.342 53.7993C47.4439 55.5585 42.8422 53.8192 41.082 49.922C40.2289 48.034 40.1636 45.9263 40.8955 43.989C41.6274 42.0508 43.0704 40.5141 44.9594 39.6619C48.8575 37.9027 53.4592 39.6421 55.2194 43.5393C55.3775 43.8906 55.5082 44.2485 55.6114 44.6083L55.6104 44.6092ZM42.4284 48.3493C42.5089 48.6305 42.6093 48.906 42.7314 49.1777C44.0807 52.166 47.6096 53.4992 50.5978 52.1508C53.5861 50.8016 54.9211 47.2736 53.5709 44.2844C52.2217 41.2962 48.6928 39.963 45.7045 41.3113C44.2568 41.9647 43.1499 43.1435 42.5885 44.6291C42.1321 45.8363 42.08 47.1307 42.4284 48.3493Z" fill="#BDD0FB"/>
<path d="M66.3389 41.3854C66.517 42.0093 66.6647 42.6466 66.7802 43.2942C66.8171 43.4978 66.8502 43.7023 66.8796 43.9078C67.0273 44.919 67.0936 45.9397 67.0784 46.9557C67.0784 46.9699 67.0784 46.9831 67.0784 46.9973C67.0784 47.0361 67.0765 47.0759 67.0756 47.1147C67.0737 47.1914 67.0718 47.2681 67.069 47.3439C67.0623 47.5446 66.925 47.7103 66.7414 47.7633C66.6969 47.7756 66.6495 47.7822 66.6003 47.7804C66.3503 47.7718 66.1562 47.5616 66.1647 47.3126C66.2102 46.0277 66.1174 44.7296 65.8892 43.4542C64.7577 37.1179 60.4486 32.1328 54.8973 29.8471C51.8096 28.5745 48.3375 28.138 44.8133 28.7677C44.1951 28.8775 43.5872 29.0186 42.9916 29.189C38.9836 30.3319 35.52 32.7984 33.1046 36.2639C30.3304 40.2444 29.2728 45.0676 30.1259 49.8435C31.8889 59.7078 41.3432 66.2921 51.2017 64.5301C51.8096 64.4212 52.4099 64.2829 52.9998 64.1144C55.5563 63.3853 57.9253 62.1042 59.9307 60.3564C59.9828 60.3109 60.0415 60.2797 60.104 60.2626C60.2668 60.2162 60.4505 60.2636 60.5689 60.3999C60.7327 60.5893 60.7137 60.8743 60.5253 61.0381C58.4195 62.874 55.9322 64.2186 53.2488 64.9846C52.6296 65.1616 51.9999 65.3074 51.3617 65.421C41.0099 67.2702 31.0841 60.3507 29.2358 50.0026C28.3401 44.9881 29.4508 39.9253 32.3623 35.7469C34.897 32.1082 38.5339 29.5195 42.7416 28.3189C43.3666 28.1409 44.0047 27.9932 44.6533 27.8767C49.6678 26.981 54.7306 28.0916 58.91 31.0032C62.5487 33.5388 65.1383 37.1766 66.338 41.3854H66.3389Z" fill="#BDD0FB"/>
<g opacity="0.3">
<path d="M21.3987 149.675C21.1127 149.867 20.7236 149.857 20.4461 149.625C19.9263 149.192 19.4131 148.739 18.9208 148.275C18.6007 147.974 18.5846 147.47 18.8857 147.149C19.1859 146.827 19.6905 146.813 20.0115 147.114C20.4812 147.555 20.9707 147.988 21.4659 148.401C21.8039 148.682 21.8494 149.184 21.5681 149.522C21.518 149.581 21.4611 149.632 21.3996 149.673L21.3987 149.675Z" fill="#80B4DB"/>
<path d="M17.0702 145.34C16.735 145.564 16.2777 145.503 16.0145 145.186C15.2712 144.291 14.5658 143.347 13.9182 142.381C13.7818 142.177 13.6474 141.972 13.5139 141.764C13.2772 141.393 13.4135 140.902 13.7544 140.664C14.1246 140.427 14.6169 140.535 14.8546 140.905C14.9815 141.103 15.1103 141.299 15.2409 141.494C15.8592 142.415 16.5315 143.315 17.2407 144.17C17.5219 144.509 17.4745 145.01 17.1365 145.291C17.1147 145.308 17.0929 145.325 17.0712 145.34H17.0702ZM12.6115 138.378C12.5803 138.399 12.5471 138.419 12.5121 138.435C12.1154 138.626 11.6401 138.459 11.4488 138.062C10.8371 136.791 10.3003 135.47 9.85147 134.138C9.71039 133.721 9.93763 133.269 10.3514 133.129C10.769 132.989 11.2197 133.212 11.3598 133.629C11.7878 134.901 12.301 136.16 12.8842 137.373C13.0575 137.734 12.9344 138.162 12.6106 138.378H12.6115ZM9.97361 130.544C9.88934 130.6 9.79371 130.642 9.68861 130.664C9.25779 130.752 8.8374 130.472 8.75029 130.041C8.47002 128.661 8.27307 127.247 8.16608 125.841C8.13199 125.402 8.4596 125.02 8.89989 124.987C9.33828 124.954 9.7208 125.282 9.75394 125.72C9.8562 127.062 10.0437 128.408 10.3116 129.725C10.3779 130.051 10.234 130.371 9.97456 130.545L9.97361 130.544ZM9.34301 122.3C9.20572 122.392 9.04002 122.442 8.86296 122.434C8.42362 122.413 8.08371 122.04 8.10548 121.6C8.17271 120.19 8.32705 118.773 8.5666 117.386C8.6414 116.952 9.05422 116.663 9.48693 116.737C9.92059 116.812 10.2113 117.223 10.1365 117.658C9.90828 118.979 9.76057 120.332 9.69713 121.676C9.68482 121.938 9.54753 122.165 9.3449 122.3H9.34301ZM10.7453 114.152C10.554 114.28 10.3088 114.326 10.0711 114.254C9.65074 114.127 9.41213 113.683 9.53901 113.261C9.9471 111.912 10.4414 110.575 11.0095 109.288C11.1865 108.884 11.6571 108.702 12.0595 108.88C12.4619 109.058 12.6447 109.528 12.4667 109.93C11.9251 111.159 11.4526 112.434 11.0644 113.722C11.0085 113.905 10.893 114.054 10.7453 114.152ZM14.081 106.593C13.833 106.759 13.5016 106.778 13.2289 106.615C12.852 106.389 12.7289 105.901 12.9543 105.523C13.6777 104.313 14.4825 103.137 15.3489 102.028C15.6215 101.682 16.1205 101.62 16.4671 101.891C16.8136 102.161 16.8752 102.662 16.6044 103.008C15.7787 104.066 15.0108 105.186 14.3215 106.34C14.259 106.444 14.1767 106.529 14.082 106.593H14.081ZM19.1637 100.08C18.8541 100.289 18.4299 100.255 18.1572 99.981C17.8466 99.6695 17.8476 99.1658 18.1591 98.8543C19.1533 97.862 20.2232 96.9198 21.3396 96.0525C21.6918 95.7884 22.1879 95.8461 22.4568 96.1936C22.7267 96.5411 22.6642 97.041 22.3167 97.3109C21.2515 98.1375 20.2317 99.036 19.283 99.9819C19.2461 100.019 19.2054 100.052 19.1637 100.079V100.08ZM29.3735 93.1107C29.3357 93.1362 29.294 93.159 29.2505 93.1779C28.1881 93.6457 27.1333 94.1806 26.1136 94.7667C25.9583 94.8548 25.8077 94.9428 25.6581 95.0328C25.2803 95.2581 24.7918 95.136 24.5664 94.7582C24.3401 94.3804 24.4585 93.8795 24.841 93.6655C25.001 93.5709 25.161 93.4762 25.3239 93.3843C26.3891 92.7717 27.495 92.2121 28.6094 91.7207C29.0118 91.5437 29.4815 91.7254 29.6585 92.1279C29.8167 92.4867 29.6888 92.8986 29.3745 93.1097L29.3735 93.1107Z" fill="#80B4DB"/>
</g>
<g opacity="0.3">
<path d="M62.0016 151.493C61.6409 151.736 61.1504 151.643 60.9033 151.284C60.6533 150.922 60.7442 150.426 61.1069 150.177C62.1967 149.425 63.2496 148.601 64.2372 147.727C64.5667 147.44 65.0694 147.465 65.3611 147.795C65.6527 148.124 65.6214 148.627 65.2929 148.919C64.257 149.835 63.153 150.7 62.0111 151.489C62.0083 151.491 62.0054 151.492 62.0016 151.494V151.493ZM58.5154 153.6C58.4917 153.616 58.4671 153.63 58.4415 153.645C57.2144 154.289 55.9362 154.866 54.6409 155.359C54.2299 155.516 53.7698 155.309 53.6135 154.898C53.4564 154.486 53.6656 154.027 54.0737 153.871C55.3093 153.4 56.5289 152.85 57.7001 152.235C58.0893 152.03 58.5703 152.18 58.7748 152.569C58.9661 152.934 58.8477 153.377 58.5144 153.6H58.5154ZM68.0851 146.101C67.7916 146.298 67.392 146.281 67.1146 146.037C66.7851 145.746 66.7539 145.243 67.0446 144.914C67.9204 143.92 68.7432 142.866 69.4903 141.777C69.7412 141.415 70.2345 141.322 70.5971 141.571C70.9598 141.819 71.0516 142.316 70.8026 142.678C70.0195 143.818 69.157 144.924 68.2385 145.966C68.1921 146.019 68.1401 146.063 68.0851 146.101ZM50.9112 156.489C50.8364 156.539 50.7512 156.578 50.6575 156.601C49.3111 156.932 47.9296 157.183 46.5529 157.347C46.1164 157.399 45.7197 157.087 45.6676 156.65C45.6165 156.214 45.928 155.819 46.3635 155.766C47.6759 155.609 48.992 155.369 50.2768 155.054C50.7039 154.948 51.1356 155.21 51.2398 155.637C51.3212 155.97 51.1801 156.307 50.9103 156.488L50.9112 156.489ZM72.6859 139.399C72.452 139.556 72.1414 139.584 71.8744 139.445C71.4834 139.241 71.3328 138.76 71.5354 138.371C72.1462 137.2 72.6906 135.978 73.1545 134.74C73.3089 134.327 73.7681 134.12 74.18 134.274C74.5919 134.428 74.8002 134.888 74.6458 135.299C74.1592 136.597 73.5873 137.878 72.9481 139.107C72.8847 139.229 72.7929 139.328 72.6859 139.399ZM75.5434 131.789C75.3645 131.909 75.1372 131.956 74.9119 131.901C74.4849 131.797 74.2216 131.367 74.3258 130.939C74.6383 129.652 74.875 128.334 75.0303 127.025C75.0823 126.588 75.4781 126.276 75.9146 126.328C76.3511 126.38 76.6626 126.775 76.6115 127.211C76.4486 128.585 76.2006 129.966 75.8729 131.315C75.8237 131.517 75.7025 131.682 75.5434 131.789ZM76.496 123.712C76.37 123.796 76.2195 123.846 76.0557 123.846C75.6164 123.848 75.2584 123.493 75.2565 123.053C75.2528 121.729 75.1666 120.393 75.0018 119.084C74.9479 118.648 75.2565 118.25 75.6921 118.195C76.1286 118.14 76.5263 118.448 76.5821 118.885C76.7545 120.258 76.8454 121.658 76.8501 123.047C76.8501 123.324 76.71 123.568 76.4969 123.711L76.496 123.712Z" fill="#80B4DB"/>
<path d="M42.7978 157.455C42.67 157.54 42.5166 157.59 42.3518 157.589C41.6701 157.586 40.9855 157.564 40.3171 157.521C39.8787 157.493 39.5444 157.115 39.5719 156.676C39.6012 156.239 39.9781 155.905 40.4165 155.932C41.0537 155.973 41.707 155.995 42.3575 155.997C42.7968 155.999 43.1519 156.357 43.15 156.797C43.1491 157.071 43.0089 157.313 42.7968 157.455H42.7978Z" fill="#80B4DB"/>
</g>
<path d="M37.6185 148.545C37.7832 148.595 37.9612 148.535 38.0625 148.396L40.9438 144.424C43.2304 144.574 45.5578 144.361 47.8368 143.755L51.4282 147.093C51.5541 147.211 51.7407 147.234 51.8922 147.154L57.0856 144.384C57.2371 144.303 57.3214 144.135 57.2939 143.965L56.5232 139.122C58.2966 137.567 59.7699 135.754 60.9203 133.771L65.8241 133.592C65.9964 133.585 66.145 133.471 66.1952 133.306L67.909 127.675C67.9592 127.51 67.8995 127.332 67.7604 127.231L63.7883 124.35C63.9379 122.063 63.7249 119.736 63.1189 117.457L66.4575 113.865C66.5749 113.74 66.5986 113.553 66.5181 113.401L63.7486 108.208C63.6681 108.057 63.4996 107.972 63.3291 108L58.486 108.77C56.9313 106.997 55.1181 105.524 53.1354 104.373L52.9564 99.4696C52.9498 99.2982 52.8352 99.1486 52.6714 99.0984L47.0405 97.3846C46.8758 97.3345 46.6978 97.3941 46.5965 97.5333L43.7152 101.505C41.4286 101.356 39.1012 101.569 36.8222 102.175L33.2298 98.8362C33.1039 98.7187 32.9174 98.6951 32.7659 98.7756L27.5724 101.545C27.4209 101.626 27.3367 101.794 27.3641 101.965L28.1348 106.808C26.3614 108.362 24.8881 110.176 23.7377 112.158L18.834 112.337C18.6617 112.344 18.513 112.458 18.4628 112.622L16.749 118.253C16.6988 118.418 16.7585 118.596 16.8977 118.697L20.8697 121.578C20.7201 123.865 20.9331 126.192 21.5391 128.471L18.2005 132.064C18.0831 132.19 18.0595 132.376 18.1399 132.528L20.9095 137.721C20.9909 137.873 21.1585 137.957 21.3289 137.93L26.172 137.159C27.7268 138.931 29.54 140.406 31.5227 141.556L31.7016 146.46C31.7082 146.632 31.8228 146.781 31.9866 146.831L37.6175 148.545H37.6185Z" fill="#80B4DB"/>
<path d="M45.6732 127.974C44.6061 128.69 43.344 129.043 42.0373 128.981C40.4305 128.903 38.9506 128.204 37.8693 127.013C35.6376 124.555 35.8213 120.74 38.2793 118.507C40.7449 116.276 44.555 116.459 46.7867 118.918C47.868 120.109 48.4209 121.649 48.3433 123.256C48.2657 124.863 47.5669 126.344 46.3758 127.425C46.1532 127.627 45.9175 127.811 45.6732 127.975V127.974ZM39.8624 119.284C39.6844 119.404 39.513 119.537 39.3502 119.685C37.5417 121.328 37.4063 124.134 39.0491 125.942C39.8444 126.818 40.9333 127.332 42.1149 127.389C43.2976 127.446 44.43 127.039 45.3068 126.245C46.1826 125.449 46.6967 124.36 46.7536 123.179C46.8104 121.996 46.4042 120.863 45.6079 119.987C44.1147 118.342 41.6557 118.081 39.8624 119.284Z" fill="#BDD0FB"/>
<path d="M50.7203 135.292C50.3018 135.573 49.8663 135.835 49.4127 136.077C48.5123 136.558 47.5617 136.948 46.5845 137.235C46.541 137.248 46.4965 137.261 46.4529 137.273C46.113 137.371 45.7608 137.231 45.5733 136.952C45.5278 136.884 45.4919 136.808 45.4682 136.726C45.3479 136.303 45.5941 135.864 46.0155 135.742C46.9301 135.482 47.8201 135.122 48.6619 134.672C48.7083 134.648 48.7547 134.622 48.8001 134.597C50.7828 133.516 52.4209 131.981 53.613 130.132C54.2606 129.128 54.7766 128.032 55.144 126.863C55.1468 126.853 55.1497 126.844 55.1525 126.834C55.161 126.805 55.1705 126.777 55.179 126.747C56.2215 123.321 55.8683 119.695 54.183 116.535C53.9652 116.126 53.7285 115.732 53.4738 115.352C51.76 112.797 49.2404 110.926 46.2579 110.017C42.8322 108.975 39.2057 109.329 36.0461 111.013C32.8893 112.699 30.5724 115.513 29.529 118.939C28.4865 122.364 28.8397 125.991 30.5251 129.15C30.739 129.553 30.9739 129.942 31.2257 130.318C32.3193 131.947 33.7566 133.319 35.4401 134.33C35.5443 134.393 35.6286 134.474 35.691 134.569C35.8577 134.817 35.8766 135.149 35.7128 135.422C35.4856 135.798 34.998 135.921 34.6202 135.695C32.7369 134.563 31.1282 133.029 29.9039 131.206C29.6218 130.785 29.3595 130.349 29.1199 129.899C27.2348 126.364 26.839 122.306 28.0064 118.474C29.173 114.642 31.7597 111.492 35.2972 109.607C38.8317 107.722 42.889 107.326 46.7228 108.494C50.0594 109.509 52.8782 111.603 54.7956 114.461C55.0806 114.885 55.3457 115.327 55.589 115.784C59.2382 122.628 57.0273 131.06 50.7194 135.292L50.7203 135.292Z" fill="#BDD0FB"/>
<path d="M193.541 259.103L66.956 259.648C56.5425 259.692 47.9944 252.257 47.6857 242.885C46.3147 201.258 42.9004 79.7534 43.3785 40.1194C43.4609 33.3078 49.4904 27.763 57.0519 27.5348C86.4563 26.6439 157.166 25.0986 190.016 29.5507C196.933 30.4881 202.126 35.7203 202.377 42.0169C203.766 76.8939 208.261 207.14 207.444 246.756C207.303 253.589 201.129 259.071 193.54 259.103H193.541Z" fill="#0069B8"/>
<path d="M188.6 248.872L70.8603 249.379C64.9084 249.405 60.0397 245.184 59.928 239.9L56.1416 49.8407C56.0308 44.6027 60.7593 40.2879 66.661 40.2425L183.348 39.3837C187.567 39.3515 191.037 42.3208 191.156 46.0656L196.966 241.197C197.099 245.385 193.321 248.853 188.602 248.872H188.6Z" fill="#80B4DB"/>
<g style="mix-blend-mode:soft-light">
<path d="M123.306 37.0563C124.629 36.5081 125.257 34.9911 124.709 33.6678C124.161 32.3445 122.644 31.7161 121.321 32.2643C119.998 32.8124 119.369 34.3294 119.917 35.6527C120.465 36.976 121.982 37.6044 123.306 37.0563Z" fill="white"/>
</g>
<path d="M223.576 221.814H73.3493C71.8668 221.814 70.665 223.016 70.665 224.499V236.977C70.665 238.46 71.8668 239.662 73.3493 239.662H223.576C225.058 239.662 226.26 238.46 226.26 236.977V224.499C226.26 223.016 225.058 221.814 223.576 221.814Z" fill="url(#paint0_linear_60_3801)"/>
<path d="M88.752 216.247V192.381H93.1927V212.362H99.3472V216.247H88.7529H88.752Z" fill="white"/>
<path d="M118.61 204.281C118.61 208.232 117.87 211.267 116.39 213.389C114.91 215.511 112.793 216.573 110.039 216.573C107.286 216.573 105.152 215.514 103.673 213.398C102.193 211.282 101.452 208.231 101.452 204.248C101.452 200.264 102.193 197.269 103.673 195.163C105.152 193.057 107.286 192.004 110.072 192.004C112.859 192.004 114.937 193.062 116.407 195.179C117.876 197.295 118.611 200.329 118.611 204.28L118.61 204.281ZM105.991 204.281C105.991 207.002 106.334 209.075 107.02 210.501C107.705 211.926 108.712 212.639 110.04 212.639C112.718 212.639 114.056 209.854 114.056 204.281C114.056 198.708 112.728 195.923 110.072 195.923C108.723 195.923 107.705 196.633 107.02 198.053C106.334 199.474 105.991 201.55 105.991 204.282V204.281Z" fill="white"/>
<path d="M133.384 216.247L132.013 210.223H125.793L124.422 216.247H119.981L125.891 192.282H131.915L137.841 216.247H133.384ZM131.18 206.289L129.906 200.739C129.83 200.402 129.658 199.555 129.392 198.2C129.125 196.845 128.965 195.939 128.91 195.482C128.768 196.418 128.589 197.449 128.371 198.575C128.154 199.702 127.588 202.273 126.674 206.288H131.18V206.289Z" fill="white"/>
<path d="M155.128 204.086C155.128 208.026 154.325 211.037 152.72 213.121C151.114 215.205 148.805 216.248 145.79 216.248H139.946V192.382H146.329C149.104 192.382 151.264 193.407 152.81 195.459C154.355 197.511 155.128 200.386 155.128 204.087V204.086ZM150.573 204.216C150.573 198.884 149.103 196.217 146.165 196.217H144.386V212.362H145.822C147.444 212.362 148.641 211.684 149.414 210.329C150.186 208.974 150.573 206.937 150.573 204.215V204.216Z" fill="white"/>
<path d="M159.405 216.247V192.381H163.585V216.247H159.405Z" fill="white"/>
<path d="M185.345 216.247H179.926L172.547 198.959H172.335C172.607 200.277 172.743 201.691 172.743 203.204V216.248H168.629V192.382H174.081L181.394 209.49H181.574C181.368 208.347 181.265 206.988 181.265 205.409V192.383H185.345V216.249V216.247Z" fill="white"/>
<path d="M196.772 203.008H204.069V215.252C202.001 216.133 199.803 216.574 197.474 216.574C194.698 216.574 192.562 215.518 191.066 213.406C189.569 211.295 188.821 208.254 188.821 204.281C188.821 200.308 189.678 197.452 191.393 195.286C193.107 193.12 195.504 192.037 198.584 192.037C200.488 192.037 202.306 192.527 204.036 193.507L202.632 197.13C201.283 196.346 200.02 195.955 198.845 195.955C197.157 195.955 195.822 196.709 194.837 198.216C193.852 199.724 193.36 201.777 193.36 204.379C193.36 206.981 193.716 209.108 194.429 210.534C195.141 211.96 196.177 212.673 197.538 212.673C198.257 212.673 198.986 212.581 199.725 212.395V206.926H196.77V203.008H196.772Z" fill="white"/>
<path d="M125.428 171.704C157.054 171.704 182.692 146.066 182.692 114.44C182.692 82.8146 157.054 57.1769 125.428 57.1769C93.8027 57.1769 68.165 82.8146 68.165 114.44C68.165 146.066 93.8027 171.704 125.428 171.704Z" fill="#80B4DB"/>
<path d="M125.429 168.387C155.223 168.387 179.376 144.234 179.376 114.44C179.376 84.6464 155.223 60.4937 125.429 60.4937C95.6351 60.4937 71.4824 84.6464 71.4824 114.44C71.4824 144.234 95.6351 168.387 125.429 168.387Z" fill="white"/>
<path opacity="0.5" d="M129.248 111.813L174.921 110.57C172.108 83.3677 155.297 66.368 128.787 63.6401L129.249 111.814L129.248 111.813Z" fill="#80B4DB"/>
<path d="M120.728 160.995C117.754 160.738 114.779 160.179 111.839 159.301C87.9589 152.17 74.6056 126.518 82.346 102.308C86.1732 90.3395 94.4496 80.6977 105.603 75.1663C106.967 74.4902 108.617 75.0536 109.289 76.4246C109.962 77.7947 109.403 79.4545 108.042 80.1325C98.2625 85.0002 91.0097 93.4669 87.6578 103.967C80.8813 125.199 92.5739 147.707 113.512 153.995C128.704 158.557 145.059 153.453 155.238 141.089C156.197 139.924 157.884 139.756 159.006 140.714C160.127 141.67 160.26 143.388 159.303 144.553C149.701 156.241 135.256 162.246 120.727 160.995H120.728Z" fill="#80B4DB"/>
<path d="M100.247 90.6016L105.332 78.3115L93.084 73.1967L100.454 70.1592L112.645 75.2759L107.587 87.5329L100.247 90.6016Z" fill="#80B4DB"/>
<path d="M127.989 113.816C127.989 115.642 126.579 117.152 124.835 117.189C123.09 117.226 121.675 115.772 121.675 113.943C121.675 112.114 123.091 110.604 124.835 110.571C126.579 110.537 127.989 111.991 127.989 113.816Z" fill="#0069B8"/>
<path d="M124.79 89.9265C124.112 89.9369 123.605 90.2958 123.605 91.3468L123.561 112.133C123.561 113.183 124.112 114.018 124.79 113.998C125.468 113.978 126.019 113.112 126.019 112.063L125.975 91.3127C125.975 90.2636 125.469 89.9161 124.79 89.9265Z" fill="#80B4DB"/>
<path d="M124.663 114.322C124.299 113.897 123.674 113.872 123.268 114.269L100.288 137.155C99.8734 137.56 99.8393 138.234 100.21 138.66C100.582 139.086 101.218 139.103 101.632 138.699L124.586 115.811C124.992 115.414 125.026 114.748 124.663 114.322Z" fill="#0069B8"/>
<defs>
<linearGradient id="paint0_linear_60_3801" x1="65.9782" y1="232.578" x2="235.643" y2="228.794" gradientUnits="userSpaceOnUse">
<stop stop-color="#4D8AB8"/>
<stop offset="1" stop-color="#04365C"/>
</linearGradient>
</defs>
</svg>
